SplineFontDB: 3.2
FontName: Test
FullName: Test
FamilyName: Test
Weight: Book
Copyright: Copyright (c) 2024, Siwy
Version: 001.000
ItalicAngle: 0
UnderlinePosition: -100
UnderlineWidth: 50
Ascent: 800
Descent: 200
InvalidEm: 0
sfntRevision: 0x00010000
LayerCount: 2
Layer: 0 1 "Back" 1
Layer: 1 1 "Fore" 0
XUID: [1021 416 1312411310 29494]
StyleMap: 0x0000
FSType: 0
OS2Version: 4
OS2_WeightWidthSlopeOnly: 0
OS2_UseTypoMetrics: 1
CreationTime: 1732886346
ModificationTime: 1734184894
PfmFamily: 17
TTFWeight: 400
TTFWidth: 5
LineGap: 90
VLineGap: 0
Panose: 2 0 5 9 0 0 0 0 0 0
OS2TypoAscent: 800
OS2TypoAOffset: 0
OS2TypoDescent: -200
OS2TypoDOffset: 0
OS2TypoLinegap: 90
OS2WinAscent: 809
OS2WinAOffset: 0
OS2WinDescent: 0
OS2WinDOffset: 0
HheadAscent: 809
HheadAOffset: 0
HheadDescent: 0
HheadDOffset: 0
OS2SubXSize: 650
OS2SubYSize: 700
OS2SubXOff: 0
OS2SubYOff: 140
OS2SupXSize: 650
OS2SupYSize: 700
OS2SupXOff: 0
OS2SupYOff: 480
OS2StrikeYSize: 49
OS2StrikeYPos: 258
OS2CapHeight: 800
OS2XHeight: 800
OS2Vendor: 'PfEd'
OS2CodePages: 00000001.00000000
OS2UnicodeRanges: 00000001.00000000.00000000.00000000
DEI: 91125
ShortTable: cvt  2
  33
  633
EndShort
ShortTable: maxp 16
  1
  0
  55
  105
  2
  0
  0
  2
  0
  1
  1
  0
  64
  46
  0
  0
EndShort
LangName: 1033 "" "" "Regular" "FontForge 2.0 : Test : 1-12-2024" "" "Version 001.000"
GaspTable: 1 65535 2 0
Encoding: UnicodeBmp
UnicodeInterp: none
NameList: AGL For New Fonts
DisplaySize: -48
AntiAlias: 1
FitToEm: 0
WinInfo: 0 26 11
BeginChars: 65539 55

StartChar: .notdef
Encoding: 65536 -1 0
Width: 1000
GlyphClass: 1
Flags: W
LayerCount: 2
Fore
SplineSet
33 0 m 1,0,-1
 33 666 l 1,1,-1
 298 666 l 1,2,-1
 298 0 l 1,3,-1
 33 0 l 1,0,-1
66 33 m 1,4,-1
 265 33 l 1,5,-1
 265 633 l 1,6,-1
 66 633 l 1,7,-1
 66 33 l 1,4,-1
EndSplineSet
EndChar

StartChar: A
Encoding: 65 65 3
Width: 1000
GlyphClass: 1
Flags: WO
LayerCount: 2
Fore
SplineSet
271.375976562 766.108398438 m 1,0,-1
 390.706054688 675.758789062 l 1,1,2
 382.558447671 676.741644473 382.558447671 676.741644473 366.136973555 679.394903871 c 128,-1,3
 349.715499439 682.048163268 349.715499439 682.048163268 339.46251375 683.416482238 c 128,-1,4
 329.209528061 684.784801207 329.209528061 684.784801207 315.019175703 684.765356752 c 128,-1,5
 300.828823345 684.745912296 300.828823345 684.745912296 289.143554688 682.0390625 c 0,6,7
 281.309651172 680.224548363 281.309651172 680.224548363 274.453951048 677.433997377 c 128,-1,8
 267.598250924 674.643446391 267.598250924 674.643446391 265.020978762 673.333138243 c 128,-1,9
 262.4437066 672.022830094 262.4437066 672.022830094 253.211061643 666.050299867 c 128,-1,10
 243.978416687 660.07776964 243.978416687 660.07776964 241.533203125 658.55078125 c 0,11,12
 200.648411453 626.334546988 200.648411453 626.334546988 180.442075313 589.013346539 c 128,-1,13
 160.235739173 551.69214609 160.235739173 551.69214609 143.278320312 491.524414062 c 0,14,15
 121.332662496 411.824365482 121.332662496 411.824365482 140.948242188 323.765625 c 0,16,17
 145.626558119 306.790997651 145.626558119 306.790997651 154.675420252 292.753858006 c 128,-1,18
 163.724282384 278.716718361 163.724282384 278.716718361 178.624994788 266.562029445 c 128,-1,19
 193.525707191 254.407340529 193.525707191 254.407340529 204.249394861 247.343762791 c 128,-1,20
 214.973082531 240.280185054 214.973082531 240.280185054 234.765625 228.6875 c 1,21,22
 185.72387325 256.511116724 185.72387325 256.511116724 135.158031455 284.913714334 c 2,23,-1
 112.115353503 298.279141946 l 1,24,25
 113.366796551 297.707943202 113.366796551 297.707943202 118.329983974 295.319641869 c 0,26,27
 156.366219745 277.016486078 156.366219745 277.016486078 175.462890625 270.513671875 c 0,28,29
 202.66321533 261.251018376 202.66321533 261.251018376 243.900390625 252.971679688 c 0,30,31
 298.563714002 242.544961353 298.563714002 242.544961353 376.567382812 281.03515625 c 1,32,33
 437.886206801 315.774069948 437.886206801 315.774069948 504.090820312 385.682617188 c 0,34,35
 529.835739857 416.532984078 529.835739857 416.532984078 537.754283242 442.008228154 c 128,-1,36
 545.672826627 467.483472229 545.672826627 467.483472229 539.999023438 505.548828125 c 0,37,38
 535.354904158 526.16862693 535.354904158 526.16862693 523.594679594 549.188248233 c 128,-1,39
 511.83445503 572.207869536 511.83445503 572.207869536 503.203497489 584.755436663 c 128,-1,40
 494.572539949 597.30300379 494.572539949 597.30300379 475.879882812 622.840820312 c 0,41,42
 462.949621868 638.336317084 462.949621868 638.336317084 434.391129502 675.87177516 c 128,-1,43
 405.832637135 713.407233237 405.832637135 713.407233237 389.150390625 732.448242188 c 0,44,45
 374.469126844 750.430683575 374.469126844 750.430683575 370.58203125 753.392578125 c 2,46,-1
 358.84375 760.043945312 l 1,47,48
 432.2898151 716.088703968 432.2898151 716.088703968 480.592739728 689.135668837 c 0,49,50
 485.929093795 686.157982915 485.929093795 686.157982915 485.939464743 686.076621687 c 128,-1,51
 485.948012417 686.009564234 485.948012417 686.009564234 482.806046009 687.441882253 c 0,52,53
 457.839966038 698.823088023 457.839966038 698.823088023 437.358398438 705.555664062 c 0,54,55
 427.250319555 708.429041456 427.250319555 708.429041456 427.249023438 708.430664062 c 0,56,57
 422.297613101 714.629831437 422.297613101 714.629831437 432.649954333 713.349686198 c 0,58,59
 435.088665938 713.048121075 435.088665938 713.048121075 440.556704096 711.999234559 c 0,60,61
 450.034682866 710.181155782 450.034682866 710.181155782 451.257368633 710.988127386 c 0,62,63
 453.032322115 712.159595229 453.032322115 712.159595229 444.444335938 718.348632812 c 0,64,65
 424.302581005 732.864585292 424.302581005 732.864585292 384.333804257 755.000431749 c 128,-1,66
 344.36502751 777.136278206 344.36502751 777.136278206 332.965820312 784.169921875 c 0,67,68
 329.955061907 786.027593317 329.955061907 786.027593317 334.820985845 783.70288471 c 0,69,70
 336.864310116 782.726680894 336.864310116 782.726680894 342.592880962 779.892156923 c 0,71,72
 350.278273628 776.089388253 350.278273628 776.089388253 352.591796875 775.0234375 c 0,73,74
 355.402310158 773.728341898 355.402310158 773.728341898 358.600864784 772.271959847 c 128,-1,75
 361.799419409 770.815577795 361.799419409 770.815577795 365.635788862 769.076021924 c 128,-1,76
 369.472158315 767.336466053 369.472158315 767.336466053 371.653320312 766.342773438 c 0,77,78
 393.355841259 756.394986448 393.355841259 756.394986448 418.325851097 742.941142148 c 128,-1,79
 443.295860936 729.487297847 443.295860936 729.487297847 460.650543556 719.253148013 c 128,-1,80
 478.005226176 709.018998179 478.005226176 709.018998179 506.562698021 691.844615048 c 128,-1,81
 535.120169866 674.670231917 535.120169866 674.670231917 549.4375 666.275390625 c 0,82,83
 567.396879471 655.744693662 567.396879471 655.744693662 580.548828125 638.154296875 c 0,84,85
 606.263115638 594.264843918 606.263115638 594.264843918 622.02734375 518.391601562 c 0,86,87
 635.740659511 462.020729875 635.740659511 462.020729875 640.08203125 386.822265625 c 0,88,89
 641.62286559 352.813913407 641.62286559 352.813913407 641.66796875 273.520507812 c 0,90,91
 641.73931946 267.252517831 641.73931946 267.252517831 641.603638167 253.811009691 c 128,-1,92
 641.467956875 240.369501552 641.467956875 240.369501552 641.552169328 232.557459547 c 128,-1,93
 641.636381781 224.745417542 641.636381781 224.745417542 642.675751204 213.55637102 c 128,-1,94
 643.715120628 202.367324497 643.715120628 202.367324497 645.887695312 193.0859375 c 0,95,96
 659.549225221 158.21572186 659.549225221 158.21572186 674.842773438 137.124023438 c 0,97,98
 677.612853207 133.303941614 677.612853207 133.303941614 681.104063882 129.285980769 c 128,-1,99
 684.595274557 125.268019924 684.595274557 125.268019924 688.998149659 120.511545273 c 128,-1,100
 693.401024762 115.755070622 693.401024762 115.755070622 695.741210938 113.055664062 c 1,101,-1
 557.98046875 171.520507812 l 1,102,103
 521.787460138 215.943169166 521.787460138 215.943169166 510.98046875 258.583007812 c 0,104,105
 508.628582193 273.246822247 508.628582193 273.246822247 508.462890625 341.396484375 c 0,106,107
 508.5456301 416.973085047 508.5456301 416.973085047 506.615234375 453.779296875 c 0,108,109
 501.644825162 527.329145782 501.644825162 527.329145782 487.98828125 583.096679688 c 0,110,111
 470.350063633 660.020323925 470.350063633 660.020323925 442.348632812 696.325195312 c 0,112,113
 431.493294479 706.397715998 431.493294479 706.397715998 422.081054688 712.676757812 c 0,114,115
 420.116681398 713.987463973 420.116681398 713.987463973 413.080341953 718.318231144 c 0,116,117
 410.123525311 720.21353549 410.123525311 720.21353549 409.946289062 720.357421875 c 1,118,119
 468.986652622 687.093401217 468.986652622 687.093401217 525.111658841 655.61894922 c 2,120,-1
 545.069314786 644.264514786 l 1,121,122
 543.899439139 644.879640043 543.899439139 644.879640043 540.010158696 646.945291409 c 0,123,124
 506.084193121 664.96384733 506.084193121 664.96384733 488.44921875 673.475585938 c 0,125,126
 479.588653746 677.664435297 479.588653746 677.664435297 452.418765515 690.260296943 c 128,-1,127
 425.248877285 702.856158589 425.248877285 702.856158589 416.614296985 707.250999932 c 128,-1,128
 407.979716685 711.645841274 407.979716685 711.645841274 387.360078015 722.565953193 c 128,-1,129
 366.740439346 733.486065112 366.740439346 733.486065112 347.97365636 745.311031182 c 128,-1,130
 329.206873373 757.135997251 329.206873373 757.135997251 304.779296875 773.604492188 c 0,131,132
 299.623731027 776.909081268 299.623731027 776.909081268 300.636474609 787.134155273 c 128,-1,133
 301.649218192 797.359229278 301.649218192 797.359229278 307.997070312 799.67578125 c 0,134,135
 307.998353286 799.676249581 307.998353286 799.676249581 319.067382812 797.186523438 c 0,136,137
 467.475672922 751.650966962 467.475672922 751.650966962 526.764648438 674.047851562 c 0,138,139
 543.428833761 653.375013166 543.428833761 653.375013166 573.037355372 614.732427053 c 128,-1,140
 602.645876983 576.08984094 602.645876983 576.08984094 612.353515625 563.698242188 c 0,141,142
 630.117185622 538.522667175 630.117185622 538.522667175 639.539609618 523.851617647 c 128,-1,143
 648.962033615 509.18056812 648.962033615 509.18056812 659.648866944 485.291285999 c 128,-1,144
 670.335700273 461.402003877 670.335700273 461.402003877 673.665039062 439.359375 c 0,145,146
 673.876965919 436.848806769 673.876965919 436.848806769 674.397626879 432.252596624 c 128,-1,147
 674.918287839 427.656386478 674.918287839 427.656386478 675.236162184 423.890958064 c 128,-1,148
 675.554036528 420.12552965 675.554036528 420.12552965 675.572265625 416.766601562 c 0,149,150
 675.844540096 359.522587248 675.844540096 359.522587248 631.008789062 308.391601562 c 0,151,152
 563.046120007 236.465054925 563.046120007 236.465054925 500.856445312 199.39453125 c 0,153,154
 418.55368007 156.153524894 418.55368007 156.153524894 362.821289062 163.177734375 c 0,155,156
 288.022434444 176.057576654 288.022434444 176.057576654 237.200461962 200.337085827 c 128,-1,157
 186.378489479 224.616594999 186.378489479 224.616594999 96.0634765625 282.337890625 c 0,158,159
 57.6163314272 306.890485329 57.6163314272 306.890485329 36.1095413958 329.957550658 c 128,-1,160
 14.6027513644 353.024615987 14.6027513644 353.024615987 6.716796875 388.887695312 c 0,161,162
 -9.51252187792 482.024009926 -9.51252187792 482.024009926 13.55859375 562.23046875 c 0,163,164
 31.9095473755 625.734491968 31.9095473755 625.734491968 52.8257531398 664.301751381 c 128,-1,165
 73.7419589042 702.869010793 73.7419589042 702.869010793 116.58203125 738.643554688 c 0,166,167
 120.125527193 741.097607855 120.125527193 741.097607855 126.864396478 745.935997959 c 128,-1,168
 133.603265763 750.774388063 133.603265763 750.774388063 136.694423835 752.821337978 c 128,-1,169
 139.785581906 754.868287894 139.785581906 754.868287894 145.114443353 758.045497959 c 128,-1,170
 150.4433048 761.222708024 150.4433048 761.222708024 155.70056446 763.428025478 c 128,-1,171
 160.95782412 765.633342932 160.95782412 765.633342932 167.495117188 767.71484375 c 0,172,173
 182.827228707 772.596593708 182.827228707 772.596593708 198.653818678 772.919094406 c 128,-1,174
 214.480408649 773.241595104 214.480408649 773.241595104 239.95099903 769.910007157 c 128,-1,175
 265.421589411 766.578419209 265.421589411 766.578419209 271.375976562 766.108398438 c 1,0,-1
EndSplineSet
EndChar

StartChar: B
Encoding: 66 66 4
Width: 1000
GlyphClass: 1
Flags: W
LayerCount: 2
Fore
SplineSet
0 800 m 1,0,-1
 133.38671875 732.03515625 l 1,1,2
 131.805123063 670.369087911 131.805123063 670.369087911 143.001953125 508.88671875 c 0,3,4
 153.366408126 400.365655383 153.366408126 400.365655383 157.237304688 295.247070312 c 0,5,6
 157.905848703 249.321914581 157.905848703 249.321914581 169.893554688 116.150390625 c 1,7,8
 183.386423071 11.373068237 183.386423071 11.373068237 184.368164062 -4.046875 c 0,9,10
 185.951100923 -35.2553635939 185.951100923 -35.2553635939 186.29296875 -94.6904296875 c 0,11,12
 186.164955357 -150.083063616 186.164955357 -150.083063616 186.202148438 -173.288085938 c 0,13,14
 186.146241034 -211.222057963 186.146241034 -211.222057963 198.696289062 -241.57421875 c 1,15,16
 188.892895415 -241.73111633 188.892895415 -241.73111633 208.286486007 -251.59934572 c 2,17,-1
 218.712890625 -255.868164062 l 1,18,19
 203.727956404 -246.629611677 203.727956404 -246.629611677 162.804367348 -223.259581273 c 128,-1,20
 121.880778291 -199.88955087 121.880778291 -199.88955087 100.461914062 -185.744140625 c 0,21,22
 98.8889253643 -184.704828624 98.8889253643 -184.704828624 101.469316164 -184.880041003 c 0,23,24
 102.505210584 -184.950379777 102.505210584 -184.950379777 105.464219599 -185.346097636 c 0,25,26
 111.162882417 -186.108198271 111.162882417 -186.108198271 112.866210938 -185.962890625 c 0,27,28
 115.053525565 -185.776274496 115.053525565 -185.776274496 117.487686196 -185.35553444 c 128,-1,29
 119.921846828 -184.934794383 119.921846828 -184.934794383 122.883082033 -184.327408269 c 128,-1,30
 125.844317238 -183.720022154 125.844317238 -183.720022154 127.46875 -183.439453125 c 0,31,32
 172.542300466 -171.53874263 172.542300466 -171.53874263 223.260742188 -152.442382812 c 0,33,34
 243.252611915 -146.319714529 243.252611915 -146.319714529 302.454101562 -112.958007812 c 0,35,36
 332.794206003 -95.2648107911 332.794206003 -95.2648107911 365.065429688 -69.8984375 c 0,37,38
 400.676825606 -42.7386728532 400.676825606 -42.7386728532 434.905273438 8.90625 c 0,39,40
 466.754595978 61.8351083149 466.754595978 61.8351083149 466.442382812 114.346679688 c 1,41,42
 459.890845781 171.823248082 459.890845781 171.823248082 410.325195312 257.483398438 c 0,43,44
 406.064026816 263.785242771 406.064026816 263.785242771 389.751068283 290.564045183 c 128,-1,45
 373.438109749 317.342847595 373.438109749 317.342847595 362.8125 330.379882812 c 0,46,47
 359.387679189 334.581989419 359.387679189 334.581989419 355.143965325 339.03067518 c 128,-1,48
 350.900251462 343.479360941 350.900251462 343.479360941 345.649328945 348.693608674 c 128,-1,49
 340.398406429 353.907856408 340.398406429 353.907856408 337.522460938 356.94140625 c 0,50,51
 293.641621889 397.839608166 293.641621889 397.839608166 260.334960938 420.09765625 c 0,52,53
 238.047793174 432.06542695 238.047793174 432.06542695 260.706803804 419.212295089 c 0,54,55
 316.109213225 387.785747596 316.109213225 387.785747596 366.911132812 357.5703125 c 0,56,57
 368.373392355 356.700524315 368.373392355 356.700524315 365.811481121 357.876590218 c 0,58,59
 365.165018835 358.173353917 365.165018835 358.173353917 363.538573403 358.933993739 c 0,60,61
 358.775254812 361.161655201 358.775254812 361.161655201 357.3671875 361.720703125 c 0,62,63
 355.479712848 362.470606284 355.479712848 362.470606284 353.003593735 363.282640766 c 128,-1,64
 350.527474622 364.094675248 350.527474622 364.094675248 349.417630224 364.497632671 c 128,-1,65
 348.307785826 364.900590094 348.307785826 364.900590094 348.431640625 365.106445312 c 128,-1,66
 348.435943735 365.113602614 348.435943735 365.113602614 360.079101562 380.897460938 c 0,67,68
 361.988140385 380.203489303 361.988140385 380.203489303 364.156116787 379.455367719 c 0,69,70
 366.067286005 378.795864718 366.067286005 378.795864718 366.360946811 378.335084978 c 0,71,72
 367.588112892 376.409553021 367.588112892 376.409553021 373.49609375 371.99609375 c 0,73,74
 380.319674176 366.898812857 380.319674176 366.898812857 384.117550736 365.040751918 c 128,-1,75
 387.915427296 363.182690979 387.915427296 363.182690979 396.244140625 355.780273438 c 0,76,77
 401.493558697 351.11453863 401.493558697 351.11453863 410.837422904 342.017561624 c 128,-1,78
 420.181287111 332.920584618 420.181287111 332.920584618 424.232421875 329.197265625 c 0,79,80
 434.433028808 319.764014914 434.433028808 319.764014914 452.415630436 299.878878152 c 128,-1,81
 470.398232065 279.993741389 470.398232065 279.993741389 479.602539062 271.235351562 c 0,82,83
 484.77334258 266.314721843 484.77334258 266.314721843 494.730894218 257.778676344 c 128,-1,84
 504.688445856 249.242630846 504.688445856 249.242630846 508.396484375 245.880859375 c 2,85,-1
 509.441068321 245.04410399 l 1,86,-1
 510.475126291 244.216058463 l 1,87,-1
 511.498200594 243.397024242 l 1,88,-1
 513.477890172 241.812524307 l 1,89,-1
 531.496532281 226.413354406 l 1,90,91
 529.271624595 227.270388193 529.271624595 227.270388193 499.062947173 246.161022224 c 0,92,93
 447.889703122 278.161596496 447.889703122 278.161596496 405.19921875 304.279296875 c 1,94,95
 414.329947913 298.693599443 414.329947913 298.693599443 423.168945312 303.556640625 c 0,96,97
 427.927406759 306.175377363 427.927406759 306.175377363 440.625976562 322.786132812 c 0,98,99
 445.025990445 329.068188146 445.025990445 329.068188146 455.625640685 342.666323276 c 128,-1,100
 466.225290924 356.264458405 466.225290924 356.264458405 471.349609375 363.9296875 c 1,101,-1
 600.877929688 287.954101562 l 1,102,103
 595.631150361 280.205213592 595.631150361 280.205213592 584.776591372 266.495758245 c 128,-1,104
 573.922032384 252.786302898 573.922032384 252.786302898 569.397460938 246.407226562 c 0,105,106
 568.671104432 245.413206461 568.671104432 245.413206461 565.437411102 240.908361962 c 128,-1,107
 562.203717773 236.403517464 562.203717773 236.403517464 561.075047899 234.959505999 c 128,-1,108
 559.946378026 233.515494535 559.946378026 233.515494535 556.998652675 229.809168267 c 128,-1,109
 554.050927324 226.102841999 554.050927324 226.102841999 552.132724876 224.377833487 c 128,-1,110
 550.214522428 222.652824974 550.214522428 222.652824974 547.28313131 220.06921291 c 128,-1,111
 544.351740192 217.485600846 544.351740192 217.485600846 541.374371423 215.803791258 c 128,-1,112
 538.397002655 214.121981671 538.397002655 214.121981671 535.094726562 212.830078125 c 0,113,114
 524.852555189 208.822692537 524.852555189 208.822692537 522.017578125 210.286132812 c 0,115,116
 502.241388357 220.492037201 502.241388357 220.492037201 479.483759622 232.191247694 c 128,-1,117
 456.726130887 243.890458188 456.726130887 243.890458188 449.484836633 247.2053164 c 128,-1,118
 442.24354238 250.520174612 442.24354238 250.520174612 429.02257727 258.212094314 c 128,-1,119
 415.80161216 265.904014016 415.80161216 265.904014016 414.105651365 266.710896757 c 128,-1,120
 412.409690571 267.517779499 412.409690571 267.517779499 401.802033584 275.677775118 c 128,-1,121
 391.194376596 283.837770737 391.194376596 283.837770737 388.120393758 286.612044716 c 128,-1,122
 385.04641092 289.386318696 385.04641092 289.386318696 370.0625 302.397460938 c 0,123,124
 353.460307523 317.483911939 353.460307523 317.483911939 324.761365596 346.757249153 c 128,-1,125
 296.06242367 376.030586367 296.06242367 376.030586367 286.063476562 385.704101562 c 0,126,127
 258.518842157 410.748906337 258.518842157 410.748906337 220.25 437.795898438 c 1,128,129
 222.584645082 443.20014622 222.584645082 443.20014622 224.891935082 450.099757409 c 0,130,131
 226.776089442 455.73404374 226.776089442 455.73404374 228.138233541 456.354688592 c 128,-1,132
 229.500377639 456.975333445 229.500377639 456.975333445 235.789087872 455.064916229 c 0,133,134
 237.792462514 454.456320625 237.792462514 454.456320625 238.970703125 454.110351562 c 0,135,136
 239.227349126 454.034964031 239.227349126 454.034964031 243.416160571 453.08078897 c 128,-1,137
 247.604972015 452.12661391 247.604972015 452.12661391 249.521484375 451.080078125 c 0,138,139
 277.320968383 435.902201563 277.320968383 435.902201563 305.007483811 420.900797477 c 128,-1,140
 332.693999238 405.899393392 332.693999238 405.899393392 338.521156814 402.88841346 c 128,-1,141
 344.34831439 399.877433529 344.34831439 399.877433529 357.395093186 392.173188102 c 128,-1,142
 370.441871981 384.468942676 370.441871981 384.468942676 375.342281814 381.20635096 c 128,-1,143
 380.242691647 377.943759244 380.242691647 377.943759244 399.6953125 365.118164062 c 0,144,145
 443.432639643 332.361785942 443.432639643 332.361785942 475.374023438 299.232421875 c 0,146,147
 509.478189359 261.649571666 509.478189359 261.649571666 546.059570312 196.827148438 c 0,148,149
 595.872049478 104.667093465 595.872049478 104.667093465 599.331054688 46.376953125 c 1,150,151
 597.293204637 -11.7543216618 597.293204637 -11.7543216618 563.762695312 -66.5244140625 c 0,152,153
 527.90564591 -121.012712528 527.90564591 -121.012712528 492.126953125 -149.540039062 c 0,154,155
 467.872942205 -170.009997105 467.872942205 -170.009997105 427.94140625 -194.6875 c 0,156,157
 423.025999804 -197.420870928 423.025999804 -197.420870928 404.244250376 -208.595430215 c 128,-1,158
 385.462500947 -219.769989503 385.462500947 -219.769989503 373.091361604 -225.822213014 c 128,-1,159
 360.72022226 -231.874436524 360.72022226 -231.874436524 347.565429688 -235.911132812 c 0,160,161
 333.361561714 -241.574868962 333.361561714 -241.574868962 250.416992188 -268.927734375 c 0,162,163
 220.744461813 -276.184603217 220.744461813 -276.184603217 220.336914062 -275.999023438 c 0,164,165
 211.902268109 -272.183096621 211.902268109 -272.183096621 182.029033473 -260.928425363 c 128,-1,166
 152.155798836 -249.673754105 152.155798836 -249.673754105 133.148700902 -241.124492117 c 128,-1,167
 114.141602968 -232.57523013 114.141602968 -232.57523013 92.6313283947 -215.382160715 c 128,-1,168
 71.1210538214 -198.189091299 71.1210538214 -198.189091299 62.7158203125 -177.90234375 c 0,169,170
 51.360589411 -138.381831199 51.360589411 -138.381831199 52.52734375 -105.154296875 c 0,171,172
 52.7124485022 -61.2451563169 52.7124485022 -61.2451563169 52.6181640625 -26.6259765625 c 0,173,174
 52.627590616 31.0192831286 52.627590616 31.0192831286 50.5673828125 62.9248046875 c 0,175,176
 48.6936945415 86.3090514435 48.6936945415 86.3090514435 43.3744975423 129.695491541 c 128,-1,177
 38.0553005431 173.081931639 38.0553005431 173.081931639 37.04296875 182.368164062 c 0,178,179
 25.3564475625 316.057861317 25.3564475625 316.057861317 24.9912109375 362.012695312 c 0,180,181
 20.9455718345 469.669265567 20.9455718345 469.669265567 11.0439453125 575.017578125 c 0,182,183
 0.653557726987 736.205135477 0.653557726987 736.205135477 0 800 c 1,0,-1
EndSplineSet
EndChar

StartChar: C
Encoding: 67 67 5
Width: 1000
GlyphClass: 1
Flags: W
LayerCount: 2
Fore
SplineSet
379.680664062 797.08984375 m 1,0,-1
 500.203125 708.293945312 l 1,1,2
 417.035836148 716.771273717 417.035836148 716.771273717 337.143554688 706.272460938 c 0,3,4
 274.405681763 698.11436259 274.405681763 698.11436259 229.05859375 665.229492188 c 0,5,6
 200.258049385 641.333139803 200.258049385 641.333139803 177.553710938 592.842773438 c 1,7,8
 163.35223712 551.963895377 163.35223712 551.963895377 150.220703125 506.232421875 c 0,9,10
 133.689718686 444.101566874 133.689718686 444.101566874 133.151367188 401.170898438 c 0,11,12
 134.292970359 363.852698383 134.292970359 363.852698383 169.108398438 312.888671875 c 0,13,14
 170.144205729 311.537109375 170.144205729 311.537109375 171.994140625 309.01953125 c 128,-1,15
 173.844075521 306.501953125 173.844075521 306.501953125 175.397786458 304.474609375 c 128,-1,16
 176.951497396 302.447265625 176.951497396 302.447265625 178.430664062 300.724609375 c 0,17,18
 187.575620448 290.073169663 187.575620448 290.073169663 199.74609375 282.844726562 c 2,19,-1
 214.201171875 275.326171875 l 1,20,21
 161.679918977 306.293710043 161.679918977 306.293710043 104.697904512 338.361337019 c 2,22,-1
 93.5561188791 344.82937693 l 1,23,24
 95.3039011278 343.990401556 95.3039011278 343.990401556 109.433421581 336.722515441 c 2,25,-1
 110.366460869 336.242584839 l 1,26,-1
 111.313317874 335.755560806 l 1,27,-1
 112.273515149 335.261702004 l 1,28,-1
 113.246603203 334.761251719 l 1,29,-1
 114.232158239 334.254439112 l 1,30,-1
 115.431640625 333.637695312 l 2,31,32
 155.984531502 312.783903857 155.984531502 312.783903857 208.090820312 296.53515625 c 0,33,34
 252.384354888 283.065093624 252.384354888 283.065093624 334.651367188 279.141601562 c 0,35,36
 396.702379826 275.837889048 396.702379826 275.837889048 447.5546875 282 c 0,37,38
 477.408962341 284.111824913 477.408962341 284.111824913 525.541015625 308.375976562 c 1,39,-1
 650.935546875 225.672851562 l 1,40,41
 648.094323891 224.342411633 648.094323891 224.342411633 632.38830379 216.687351528 c 128,-1,42
 616.682283688 209.032291423 616.682283688 209.032291423 610.5279102 206.475307163 c 128,-1,43
 604.373536711 203.918322903 604.373536711 203.918322903 592.246610674 200.285984341 c 128,-1,44
 580.119684637 196.653645778 580.119684637 196.653645778 569.653320312 195.834960938 c 0,45,46
 516.220705736 187.530845083 516.220705736 187.530845083 454.952148438 190.920898438 c 0,47,48
 368.278975188 194.478320857 368.278975188 194.478320857 326.34765625 205.108398438 c 0,49,50
 263.452024787 224.158048058 263.452024787 224.158048058 232.408203125 240.286132812 c 0,51,52
 209.755358392 250.674162633 209.755358392 250.674162633 204.717483415 252.985008768 c 128,-1,53
 199.679608437 255.295854903 199.679608437 255.295854903 188.376258773 261.459694357 c 128,-1,54
 177.072909108 267.623533811 177.072909108 267.623533811 170.617295915 271.883665018 c 128,-1,55
 164.161682721 276.143796224 164.161682721 276.143796224 136.951071273 292.409913107 c 128,-1,56
 109.740459825 308.67602999 109.740459825 308.67602999 74.6103515625 329.211914062 c 0,57,58
 51.0206231529 343.001759062 51.0206231529 343.001759062 32.099609375 373.0859375 c 0,59,60
 -0.996139022061 427.465321011 -0.996139022061 427.465321011 0.037109375 469.4296875 c 0,61,62
 1.70424952127 512.628230702 1.70424952127 512.628230702 18.9755859375 577.79296875 c 0,63,64
 36.4731088217 638.788838613 36.4731088217 638.788838613 47.3017578125 666.637695312 c 0,65,66
 72.292614781 718.850798171 72.292614781 718.850798171 102.448242188 745.231445312 c 0,67,68
 149.259140223 781.997617896 149.259140223 781.997617896 215.6640625 792.0234375 c 0,69,70
 259.954737367 798.36843288 259.954737367 798.36843288 270.719726562 799.090820312 c 0,71,72
 290.809484765 800.43777985 290.809484765 800.43777985 379.680664062 797.08984375 c 1,0,-1
EndSplineSet
EndChar

StartChar: D
Encoding: 68 68 6
Width: 1000
GlyphClass: 1
Flags: W
LayerCount: 2
Fore
SplineSet
356.241210938 359.504882812 m 1,0,-1
 476.165039062 269.921875 l 1,1,2
 379.661835985 283.723730795 379.661835985 283.723730795 331.538085938 279.06640625 c 1,3,4
 267.341419644 266.198682317 267.341419644 266.198682317 196.547851562 194.7734375 c 0,5,6
 157.390908385 150.274703811 157.390908385 150.274703811 146.571289062 124.444335938 c 0,7,8
 141.919686672 113.339998358 141.919686672 113.339998358 135.998046875 86.294921875 c 0,9,10
 124.533066516 29.276954345 124.533066516 29.276954345 149.938476562 -28.0283203125 c 1,11,12
 174.862029323 -69.4520898941 174.862029323 -69.4520898941 235.67578125 -110.64453125 c 0,13,14
 237.948811641 -112.198918992 237.948811641 -112.198918992 242.099092066 -115.012052728 c 128,-1,15
 246.249372491 -117.825186464 246.249372491 -117.825186464 249.646350642 -120.147778001 c 128,-1,16
 253.043328793 -122.470369538 253.043328793 -122.470369538 256.03515625 -124.565429688 c 0,17,18
 258.319601705 -126.16515517 258.319601705 -126.16515517 265.43826221 -131.416588259 c 128,-1,19
 272.556922715 -136.668021349 272.556922715 -136.668021349 276.59765625 -139.30078125 c 0,20,21
 279.338475058 -141.086113272 279.338475058 -141.086113272 298.21484375 -152.04296875 c 1,22,-1
 167.341033238 -76.5793727706 l 1,23,24
 197.579360285 -93.6342656199 197.579360285 -93.6342656199 211.806640625 -100.444335938 c 0,25,26
 211.85478462 -100.467387076 211.85478462 -100.467387076 230.184570312 -108.5 c 0,27,28
 232.331073541 -109.341659419 232.331073541 -109.341659419 242.90940371 -113.577146644 c 128,-1,29
 253.48773388 -117.81263387 253.48773388 -117.81263387 256.970519792 -119.092978681 c 128,-1,30
 260.453305704 -120.373323492 260.453305704 -120.373323492 269.516075079 -123.373090293 c 128,-1,31
 278.578844454 -126.372857094 278.578844454 -126.372857094 283.929540336 -127.35900154 c 128,-1,32
 289.280236219 -128.345145986 289.280236219 -128.345145986 296.943384468 -129.201911546 c 128,-1,33
 304.606532718 -130.058677106 304.606532718 -130.058677106 311.525390625 -129.668945312 c 0,34,35
 341.630157693 -118.748364774 341.630157693 -118.748364774 383.638671875 -75.3447265625 c 1,36,37
 421.045678811 -29.9274918674 421.045678811 -29.9274918674 440.276367188 68.291015625 c 0,38,39
 451.52347939 136.684288833 451.52347939 136.684288833 469.046875 260.407226562 c 1,40,41
 484.677916194 337.363328639 484.677916194 337.363328639 484.346679688 441.677734375 c 0,42,43
 484.067315202 469.708454042 484.067315202 469.708454042 482.143570716 522.430467753 c 128,-1,44
 480.21982623 575.152481464 480.21982623 575.152481464 479.952148438 584.458007812 c 0,45,46
 479.327886245 611.025558179 479.327886245 611.025558179 479.079101562 664.643554688 c 0,47,48
 479.659773962 731.604543842 479.659773962 731.604543842 479.256835938 770.388671875 c 1,49,50
 483.096898736 811.231686728 483.096898736 811.231686728 513.137599504 794.773174451 c 0,51,52
 522.66022321 789.555978608 522.66022321 789.555978608 580.864150948 741.673990071 c 0,53,54
 603.945091375 722.686245294 603.945091375 722.686245294 622.1953125 710.061523438 c 0,55,56
 622.594073083 709.7855965 622.594073083 709.7855965 629.4765625 650.450195312 c 0,57,58
 635.714605507 596.164591287 635.714605507 596.164591287 638.080078125 505.315429688 c 0,59,60
 642.179686335 441.187858077 642.179686335 441.187858077 630.639648438 373.314453125 c 0,61,62
 610.105638741 252.152667488 610.105638741 252.152667488 603.216796875 200.786132812 c 0,63,64
 589.508140642 84.8286518005 589.508140642 84.8286518005 588.474609375 70.2861328125 c 0,65,66
 583.721022884 7.81725389676 583.721022884 7.81725389676 591.408203125 -51.958984375 c 0,67,68
 592.413310131 -57.376639575 592.413310131 -57.376639575 594.335352778 -71.7205144319 c 128,-1,69
 596.257395426 -86.0643892888 596.257395426 -86.0643892888 598.587824305 -96.0971939014 c 128,-1,70
 600.918253184 -106.129998514 600.918253184 -106.129998514 605.0625 -114.984375 c 0,71,72
 606.581400618 -118.22881489 606.581400618 -118.22881489 619.595703125 -139.336914062 c 0,73,74
 630.393962873 -153.029939369 630.393962873 -153.029939369 639.810546875 -159.932617188 c 0,75,76
 645.118269757 -163.822156287 645.118269757 -163.822156287 652.193359375 -167.918945312 c 1,77,78
 610.688214672 -143.883322487 610.688214672 -143.883322487 559.350895848 -114.324125153 c 2,79,-1
 524.620760194 -93.8960804518 l 1,80,81
 527.491861924 -95.3380750248 527.491861924 -95.3380750248 544.144492084 -104.143135591 c 2,82,-1
 545.10699338 -104.652054671 l 1,83,-1
 546.079644514 -105.166325982 l 1,84,-1
 547.062087322 -105.685746422 l 1,85,-1
 548.940429688 -106.678710938 l 1,86,-1
 666.091796875 -200.109375 l 1,87,88
 662.714232717 -198.631243446 662.714232717 -198.631243446 655.901659815 -195.662536967 c 0,89,90
 623.485974316 -181.536793733 623.485974316 -181.536793733 605.805707409 -173.049339628 c 128,-1,91
 588.125440501 -164.561885522 588.125440501 -164.561885522 561.554646359 -149.461081515 c 128,-1,92
 534.983852216 -134.360277507 534.983852216 -134.360277507 515.885469344 -116.904473113 c 128,-1,93
 496.787086472 -99.448668718 496.787086472 -99.448668718 482.768554688 -78.4677734375 c 0,94,95
 462.982744133 -42.4043638882 462.982744133 -42.4043638882 457.721679688 14.228515625 c 0,96,97
 450.878791296 80.4901732788 450.878791296 80.4901732788 455.93359375 139.067382812 c 0,98,99
 456.936497826 151.906611635 456.936497826 151.906611635 471.801757812 270.043945312 c 0,100,101
 475.414724295 295.244418474 475.414724295 295.244418474 499.12109375 442.99609375 c 0,102,103
 508.506381052 504.669040545 508.506381052 504.669040545 505.127929688 572.629882812 c 0,104,105
 502.919130082 660.303195547 502.919130082 660.303195547 495.840820312 716.528320312 c 0,106,107
 491.316929962 752.43318565 491.316929962 752.43318565 490.186523438 757.967773438 c 0,108,109
 489.800982743 759.855406667 489.800982743 759.855406667 487.170240459 765.305322083 c 0,110,111
 484.418194986 772.840826592 484.418194986 772.840826592 486.041015625 773.043945312 c 0,112,113
 554.576612442 749.930035 554.576612442 749.930035 606.396781059 739.885745366 c 0,114,115
 618.236198958 737.590914113 618.236198958 737.590914113 619.824507732 736.278556367 c 128,-1,116
 621.412816507 734.966198621 621.412816507 734.966198621 619.103251254 729.386883399 c 0,117,118
 613.773331041 716.511167963 613.773331041 716.511167963 612.671875 702.405273438 c 0,119,120
 612.207869414 660.48236873 612.207869414 660.48236873 612.837890625 596.526367188 c 0,121,122
 612.814835473 548.279027047 612.814835473 548.279027047 613.509765625 516.829101562 c 0,123,124
 615.782381451 410.713238931 615.782381451 410.713238931 616.133789062 374.551757812 c 0,125,126
 616.098318547 267.971303176 616.098318547 267.971303176 600.357421875 191.116210938 c 1,127,128
 582.704062801 70.7216197396 582.704062801 70.7216197396 570.747070312 -1.4140625 c 0,129,130
 550.341074821 -104.402673261 550.341074821 -104.402673261 511.318359375 -153.100585938 c 1,131,132
 472.21756216 -195.315590839 472.21756216 -195.315590839 434.349609375 -215.725585938 c 0,133,134
 420.560500369 -219.472403532 420.560500369 -219.472403532 420.55859375 -219.47265625 c 0,135,136
 409.248752084 -220.970814514 409.248752084 -220.970814514 397.487034056 -218.34649592 c 128,-1,137
 385.725316029 -215.722177326 385.725316029 -215.722177326 369.086859173 -209.085795747 c 128,-1,138
 352.448402317 -202.449414167 352.448402317 -202.449414167 347.461914062 -200.857421875 c 0,139,140
 305.273859522 -184.840885287 305.273859522 -184.840885287 257.70915817 -158.561703075 c 128,-1,141
 210.144456817 -132.282520864 210.144456817 -132.282520864 179.35334183 -111.9754063 c 128,-1,142
 148.562226843 -91.6682917353 148.562226843 -91.6682917353 97.1220703125 -55.919921875 c 0,143,144
 33.6870848226 -8.27869947477 33.6870848226 -8.27869947477 14.171875 34.779296875 c 0,145,146
 -8.11753016854 97.0464321144 -8.11753016854 97.0464321144 4.623046875 156.994140625 c 0,147,148
 11.5130137937 186.042472372 11.5130137937 186.042472372 16.8671875 198.412109375 c 0,149,150
 29.0237752771 226.494481718 29.0237752771 226.494481718 69.8203125 272.275390625 c 0,151,152
 142.055162505 346.466358577 142.055162505 346.466358577 209.9375 365.213867188 c 1,153,154
 242.674882788 369.877590777 242.674882788 369.877590777 257.924804688 369.565429688 c 0,155,156
 276.921630089 369.177049144 276.921630089 369.177049144 311.704721716 364.760477902 c 128,-1,157
 346.487813344 360.343906661 346.487813344 360.343906661 356.241210938 359.504882812 c 1,0,-1
EndSplineSet
EndChar

StartChar: E
Encoding: 69 69 7
Width: 1000
GlyphClass: 1
Flags: W
LayerCount: 2
Fore
SplineSet
481 309 m 2,0,1
 455 321 455 321 440 336 c 0,2,3
 427 351 427 351 425 380 c 2,4,-1
 425 395 l 1,5,-1
 419 388 l 2,6,7
 393 355 393 355 354 335 c 0,8,9
 293 305 293 305 196 329 c 0,10,11
 164 338 164 338 130 356 c 0,12,13
 87 379 87 379 67.5 393.5 c 128,-1,14
 48 408 48 408 31 430 c 0,15,16
 -3 472 -3 472 0 543 c 0,17,18
 3 607 3 607 25 666 c 128,-1,19
 47 725 47 725 81 759 c 0,20,21
 94 772 94 772 103 776.5 c 128,-1,22
 112 781 112 781 120 785 c 0,23,24
 160 808 160 808 217 796 c 0,25,26
 259 788 259 788 305 762 c 0,27,28
 347 739 347 739 379 713 c 0,29,30
 418 683 418 683 440 648 c 0,31,32
 442 645 442 645 443.5 643 c 128,-1,33
 445 641 445 641 446 640 c 128,-1,34
 447 639 447 639 447 639 c 1,35,36
 448 640 448 640 450.5 656.5 c 128,-1,37
 453 673 453 673 453 674 c 1,38,39
 453 674 453 674 473.5 664 c 128,-1,40
 494 654 494 654 499 650 c 1,41,42
 499 650 499 650 498 644 c 0,43,44
 493 615 493 615 486 557 c 0,45,46
 474 457 474 457 473 385 c 0,47,48
 472 342 472 342 479 327 c 0,49,50
 480 325 480 325 481 323 c 128,-1,51
 482 321 482 321 482.5 320 c 128,-1,52
 483 319 483 319 482 319 c 2,53,54
 482 319 482 319 475.5 322.5 c 128,-1,55
 469 326 469 326 469 326 c 2,56,57
 468 325 468 325 470 323.5 c 128,-1,58
 472 322 472 322 475 319.5 c 128,-1,59
 478 317 478 317 482 314 c 0,60,61
 495 304 495 304 495 303 c 1,62,-1
 481 309 l 2,0,1
262 349 m 0,63,64
 346 359 346 359 396 446 c 0,65,66
 425 495 425 495 430 547 c 0,67,68
 435 607 435 607 397 665 c 0,69,70
 382 688 382 688 358 711 c 0,71,72
 325 742 325 742 312 746 c 0,73,74
 308 748 308 748 299 752 c 0,75,76
 281 762 281 762 252 768 c 0,77,78
 218 774 218 774 188 766 c 0,79,80
 137 753 137 753 106 692 c 0,81,82
 88 655 88 655 90 624 c 2,83,-1
 90 614 l 1,84,-1
 83 618 l 2,85,86
 75 621 75 621 70 624 c 2,87,-1
 65 626 l 1,88,-1
 63 620 l 2,89,90
 53 591 53 591 48.5 554 c 128,-1,91
 44 517 44 517 46 491 c 0,92,93
 49 457 49 457 62 431 c 0,94,95
 70 416 70 416 83 402 c 0,96,97
 107 376 107 376 113 376 c 0,98,99
 114 376 114 376 129 369 c 0,100,101
 163 355 163 355 211 349 c 0,102,103
 218 348 218 348 235.5 348 c 128,-1,104
 253 348 253 348 262 349 c 0,63,64
EndSplineSet
EndChar

StartChar: F
Encoding: 70 70 8
Width: 1000
GlyphClass: 1
Flags: W
LayerCount: 2
Fore
SplineSet
481 309 m 2,0,1
 455 321 455 321 440 336 c 0,2,3
 427 351 427 351 425 380 c 2,4,-1
 425 395 l 1,5,-1
 419 388 l 2,6,7
 393 355 393 355 354 335 c 0,8,9
 293 305 293 305 196 329 c 0,10,11
 164 338 164 338 130 356 c 0,12,13
 87 379 87 379 67.5 393.5 c 128,-1,14
 48 408 48 408 31 430 c 0,15,16
 -3 472 -3 472 0 543 c 0,17,18
 3 607 3 607 25 666 c 128,-1,19
 47 725 47 725 81 759 c 0,20,21
 94 772 94 772 103 776.5 c 128,-1,22
 112 781 112 781 120 785 c 0,23,24
 160 808 160 808 217 796 c 0,25,26
 259 788 259 788 305 762 c 0,27,28
 347 739 347 739 379 713 c 0,29,30
 418 683 418 683 440 648 c 0,31,32
 442 645 442 645 443.5 643 c 128,-1,33
 445 641 445 641 446 640 c 128,-1,34
 447 639 447 639 447 639 c 1,35,36
 448 640 448 640 450.5 656.5 c 128,-1,37
 453 673 453 673 453 674 c 1,38,39
 453 674 453 674 473.5 664 c 128,-1,40
 494 654 494 654 499 650 c 1,41,42
 499 650 499 650 498 644 c 0,43,44
 493 615 493 615 486 557 c 0,45,46
 474 457 474 457 473 385 c 0,47,48
 472 342 472 342 479 327 c 0,49,50
 480 325 480 325 481 323 c 128,-1,51
 482 321 482 321 482.5 320 c 128,-1,52
 483 319 483 319 482 319 c 2,53,54
 482 319 482 319 475.5 322.5 c 128,-1,55
 469 326 469 326 469 326 c 2,56,57
 468 325 468 325 470 323.5 c 128,-1,58
 472 322 472 322 475 319.5 c 128,-1,59
 478 317 478 317 482 314 c 0,60,61
 495 304 495 304 495 303 c 1,62,-1
 481 309 l 2,0,1
262 349 m 0,63,64
 346 359 346 359 396 446 c 0,65,66
 425 495 425 495 430 547 c 0,67,68
 435 607 435 607 397 665 c 0,69,70
 382 688 382 688 358 711 c 0,71,72
 325 742 325 742 312 746 c 0,73,74
 308 748 308 748 299 752 c 0,75,76
 281 762 281 762 252 768 c 0,77,78
 218 774 218 774 188 766 c 0,79,80
 137 753 137 753 106 692 c 0,81,82
 88 655 88 655 90 624 c 2,83,-1
 90 614 l 1,84,-1
 83 618 l 2,85,86
 75 621 75 621 70 624 c 2,87,-1
 65 626 l 1,88,-1
 63 620 l 2,89,90
 53 591 53 591 48.5 554 c 128,-1,91
 44 517 44 517 46 491 c 0,92,93
 49 457 49 457 62 431 c 0,94,95
 70 416 70 416 83 402 c 0,96,97
 107 376 107 376 113 376 c 0,98,99
 114 376 114 376 129 369 c 0,100,101
 163 355 163 355 211 349 c 0,102,103
 218 348 218 348 235.5 348 c 128,-1,104
 253 348 253 348 262 349 c 0,63,64
EndSplineSet
EndChar

StartChar: G
Encoding: 71 71 9
Width: 1000
GlyphClass: 1
Flags: W
LayerCount: 2
Fore
SplineSet
481 309 m 2,0,1
 455 321 455 321 440 336 c 0,2,3
 427 351 427 351 425 380 c 2,4,-1
 425 395 l 1,5,-1
 419 388 l 2,6,7
 393 355 393 355 354 335 c 0,8,9
 293 305 293 305 196 329 c 0,10,11
 164 338 164 338 130 356 c 0,12,13
 87 379 87 379 67.5 393.5 c 128,-1,14
 48 408 48 408 31 430 c 0,15,16
 -3 472 -3 472 0 543 c 0,17,18
 3 607 3 607 25 666 c 128,-1,19
 47 725 47 725 81 759 c 0,20,21
 94 772 94 772 103 776.5 c 128,-1,22
 112 781 112 781 120 785 c 0,23,24
 160 808 160 808 217 796 c 0,25,26
 259 788 259 788 305 762 c 0,27,28
 347 739 347 739 379 713 c 0,29,30
 418 683 418 683 440 648 c 0,31,32
 442 645 442 645 443.5 643 c 128,-1,33
 445 641 445 641 446 640 c 128,-1,34
 447 639 447 639 447 639 c 1,35,36
 448 640 448 640 450.5 656.5 c 128,-1,37
 453 673 453 673 453 674 c 1,38,39
 453 674 453 674 473.5 664 c 128,-1,40
 494 654 494 654 499 650 c 1,41,42
 499 650 499 650 498 644 c 0,43,44
 493 615 493 615 486 557 c 0,45,46
 474 457 474 457 473 385 c 0,47,48
 472 342 472 342 479 327 c 0,49,50
 480 325 480 325 481 323 c 128,-1,51
 482 321 482 321 482.5 320 c 128,-1,52
 483 319 483 319 482 319 c 2,53,54
 482 319 482 319 475.5 322.5 c 128,-1,55
 469 326 469 326 469 326 c 2,56,57
 468 325 468 325 470 323.5 c 128,-1,58
 472 322 472 322 475 319.5 c 128,-1,59
 478 317 478 317 482 314 c 0,60,61
 495 304 495 304 495 303 c 1,62,-1
 481 309 l 2,0,1
262 349 m 0,63,64
 346 359 346 359 396 446 c 0,65,66
 425 495 425 495 430 547 c 0,67,68
 435 607 435 607 397 665 c 0,69,70
 382 688 382 688 358 711 c 0,71,72
 325 742 325 742 312 746 c 0,73,74
 308 748 308 748 299 752 c 0,75,76
 281 762 281 762 252 768 c 0,77,78
 218 774 218 774 188 766 c 0,79,80
 137 753 137 753 106 692 c 0,81,82
 88 655 88 655 90 624 c 2,83,-1
 90 614 l 1,84,-1
 83 618 l 2,85,86
 75 621 75 621 70 624 c 2,87,-1
 65 626 l 1,88,-1
 63 620 l 2,89,90
 53 591 53 591 48.5 554 c 128,-1,91
 44 517 44 517 46 491 c 0,92,93
 49 457 49 457 62 431 c 0,94,95
 70 416 70 416 83 402 c 0,96,97
 107 376 107 376 113 376 c 0,98,99
 114 376 114 376 129 369 c 0,100,101
 163 355 163 355 211 349 c 0,102,103
 218 348 218 348 235.5 348 c 128,-1,104
 253 348 253 348 262 349 c 0,63,64
EndSplineSet
EndChar

StartChar: H
Encoding: 72 72 10
Width: 1000
GlyphClass: 1
Flags: W
LayerCount: 2
Fore
SplineSet
481 309 m 2,0,1
 455 321 455 321 440 336 c 0,2,3
 427 351 427 351 425 380 c 2,4,-1
 425 395 l 1,5,-1
 419 388 l 2,6,7
 393 355 393 355 354 335 c 0,8,9
 293 305 293 305 196 329 c 0,10,11
 164 338 164 338 130 356 c 0,12,13
 87 379 87 379 67.5 393.5 c 128,-1,14
 48 408 48 408 31 430 c 0,15,16
 -3 472 -3 472 0 543 c 0,17,18
 3 607 3 607 25 666 c 128,-1,19
 47 725 47 725 81 759 c 0,20,21
 94 772 94 772 103 776.5 c 128,-1,22
 112 781 112 781 120 785 c 0,23,24
 160 808 160 808 217 796 c 0,25,26
 259 788 259 788 305 762 c 0,27,28
 347 739 347 739 379 713 c 0,29,30
 418 683 418 683 440 648 c 0,31,32
 442 645 442 645 443.5 643 c 128,-1,33
 445 641 445 641 446 640 c 128,-1,34
 447 639 447 639 447 639 c 1,35,36
 448 640 448 640 450.5 656.5 c 128,-1,37
 453 673 453 673 453 674 c 1,38,39
 453 674 453 674 473.5 664 c 128,-1,40
 494 654 494 654 499 650 c 1,41,42
 499 650 499 650 498 644 c 0,43,44
 493 615 493 615 486 557 c 0,45,46
 474 457 474 457 473 385 c 0,47,48
 472 342 472 342 479 327 c 0,49,50
 480 325 480 325 481 323 c 128,-1,51
 482 321 482 321 482.5 320 c 128,-1,52
 483 319 483 319 482 319 c 2,53,54
 482 319 482 319 475.5 322.5 c 128,-1,55
 469 326 469 326 469 326 c 2,56,57
 468 325 468 325 470 323.5 c 128,-1,58
 472 322 472 322 475 319.5 c 128,-1,59
 478 317 478 317 482 314 c 0,60,61
 495 304 495 304 495 303 c 1,62,-1
 481 309 l 2,0,1
262 349 m 0,63,64
 346 359 346 359 396 446 c 0,65,66
 425 495 425 495 430 547 c 0,67,68
 435 607 435 607 397 665 c 0,69,70
 382 688 382 688 358 711 c 0,71,72
 325 742 325 742 312 746 c 0,73,74
 308 748 308 748 299 752 c 0,75,76
 281 762 281 762 252 768 c 0,77,78
 218 774 218 774 188 766 c 0,79,80
 137 753 137 753 106 692 c 0,81,82
 88 655 88 655 90 624 c 2,83,-1
 90 614 l 1,84,-1
 83 618 l 2,85,86
 75 621 75 621 70 624 c 2,87,-1
 65 626 l 1,88,-1
 63 620 l 2,89,90
 53 591 53 591 48.5 554 c 128,-1,91
 44 517 44 517 46 491 c 0,92,93
 49 457 49 457 62 431 c 0,94,95
 70 416 70 416 83 402 c 0,96,97
 107 376 107 376 113 376 c 0,98,99
 114 376 114 376 129 369 c 0,100,101
 163 355 163 355 211 349 c 0,102,103
 218 348 218 348 235.5 348 c 128,-1,104
 253 348 253 348 262 349 c 0,63,64
EndSplineSet
EndChar

StartChar: I
Encoding: 73 73 11
Width: 1000
GlyphClass: 1
Flags: W
LayerCount: 2
Fore
SplineSet
481 309 m 2,0,1
 455 321 455 321 440 336 c 0,2,3
 427 351 427 351 425 380 c 2,4,-1
 425 395 l 1,5,-1
 419 388 l 2,6,7
 393 355 393 355 354 335 c 0,8,9
 293 305 293 305 196 329 c 0,10,11
 164 338 164 338 130 356 c 0,12,13
 87 379 87 379 67.5 393.5 c 128,-1,14
 48 408 48 408 31 430 c 0,15,16
 -3 472 -3 472 0 543 c 0,17,18
 3 607 3 607 25 666 c 128,-1,19
 47 725 47 725 81 759 c 0,20,21
 94 772 94 772 103 776.5 c 128,-1,22
 112 781 112 781 120 785 c 0,23,24
 160 808 160 808 217 796 c 0,25,26
 259 788 259 788 305 762 c 0,27,28
 347 739 347 739 379 713 c 0,29,30
 418 683 418 683 440 648 c 0,31,32
 442 645 442 645 443.5 643 c 128,-1,33
 445 641 445 641 446 640 c 128,-1,34
 447 639 447 639 447 639 c 1,35,36
 448 640 448 640 450.5 656.5 c 128,-1,37
 453 673 453 673 453 674 c 1,38,39
 453 674 453 674 473.5 664 c 128,-1,40
 494 654 494 654 499 650 c 1,41,42
 499 650 499 650 498 644 c 0,43,44
 493 615 493 615 486 557 c 0,45,46
 474 457 474 457 473 385 c 0,47,48
 472 342 472 342 479 327 c 0,49,50
 480 325 480 325 481 323 c 128,-1,51
 482 321 482 321 482.5 320 c 128,-1,52
 483 319 483 319 482 319 c 2,53,54
 482 319 482 319 475.5 322.5 c 128,-1,55
 469 326 469 326 469 326 c 2,56,57
 468 325 468 325 470 323.5 c 128,-1,58
 472 322 472 322 475 319.5 c 128,-1,59
 478 317 478 317 482 314 c 0,60,61
 495 304 495 304 495 303 c 1,62,-1
 481 309 l 2,0,1
262 349 m 0,63,64
 346 359 346 359 396 446 c 0,65,66
 425 495 425 495 430 547 c 0,67,68
 435 607 435 607 397 665 c 0,69,70
 382 688 382 688 358 711 c 0,71,72
 325 742 325 742 312 746 c 0,73,74
 308 748 308 748 299 752 c 0,75,76
 281 762 281 762 252 768 c 0,77,78
 218 774 218 774 188 766 c 0,79,80
 137 753 137 753 106 692 c 0,81,82
 88 655 88 655 90 624 c 2,83,-1
 90 614 l 1,84,-1
 83 618 l 2,85,86
 75 621 75 621 70 624 c 2,87,-1
 65 626 l 1,88,-1
 63 620 l 2,89,90
 53 591 53 591 48.5 554 c 128,-1,91
 44 517 44 517 46 491 c 0,92,93
 49 457 49 457 62 431 c 0,94,95
 70 416 70 416 83 402 c 0,96,97
 107 376 107 376 113 376 c 0,98,99
 114 376 114 376 129 369 c 0,100,101
 163 355 163 355 211 349 c 0,102,103
 218 348 218 348 235.5 348 c 128,-1,104
 253 348 253 348 262 349 c 0,63,64
EndSplineSet
EndChar

StartChar: J
Encoding: 74 74 12
Width: 1000
GlyphClass: 1
Flags: W
LayerCount: 2
Fore
SplineSet
481 309 m 2,0,1
 455 321 455 321 440 336 c 0,2,3
 427 351 427 351 425 380 c 2,4,-1
 425 395 l 1,5,-1
 419 388 l 2,6,7
 393 355 393 355 354 335 c 0,8,9
 293 305 293 305 196 329 c 0,10,11
 164 338 164 338 130 356 c 0,12,13
 87 379 87 379 67.5 393.5 c 128,-1,14
 48 408 48 408 31 430 c 0,15,16
 -3 472 -3 472 0 543 c 0,17,18
 3 607 3 607 25 666 c 128,-1,19
 47 725 47 725 81 759 c 0,20,21
 94 772 94 772 103 776.5 c 128,-1,22
 112 781 112 781 120 785 c 0,23,24
 160 808 160 808 217 796 c 0,25,26
 259 788 259 788 305 762 c 0,27,28
 347 739 347 739 379 713 c 0,29,30
 418 683 418 683 440 648 c 0,31,32
 442 645 442 645 443.5 643 c 128,-1,33
 445 641 445 641 446 640 c 128,-1,34
 447 639 447 639 447 639 c 1,35,36
 448 640 448 640 450.5 656.5 c 128,-1,37
 453 673 453 673 453 674 c 1,38,39
 453 674 453 674 473.5 664 c 128,-1,40
 494 654 494 654 499 650 c 1,41,42
 499 650 499 650 498 644 c 0,43,44
 493 615 493 615 486 557 c 0,45,46
 474 457 474 457 473 385 c 0,47,48
 472 342 472 342 479 327 c 0,49,50
 480 325 480 325 481 323 c 128,-1,51
 482 321 482 321 482.5 320 c 128,-1,52
 483 319 483 319 482 319 c 2,53,54
 482 319 482 319 475.5 322.5 c 128,-1,55
 469 326 469 326 469 326 c 2,56,57
 468 325 468 325 470 323.5 c 128,-1,58
 472 322 472 322 475 319.5 c 128,-1,59
 478 317 478 317 482 314 c 0,60,61
 495 304 495 304 495 303 c 1,62,-1
 481 309 l 2,0,1
262 349 m 0,63,64
 346 359 346 359 396 446 c 0,65,66
 425 495 425 495 430 547 c 0,67,68
 435 607 435 607 397 665 c 0,69,70
 382 688 382 688 358 711 c 0,71,72
 325 742 325 742 312 746 c 0,73,74
 308 748 308 748 299 752 c 0,75,76
 281 762 281 762 252 768 c 0,77,78
 218 774 218 774 188 766 c 0,79,80
 137 753 137 753 106 692 c 0,81,82
 88 655 88 655 90 624 c 2,83,-1
 90 614 l 1,84,-1
 83 618 l 2,85,86
 75 621 75 621 70 624 c 2,87,-1
 65 626 l 1,88,-1
 63 620 l 2,89,90
 53 591 53 591 48.5 554 c 128,-1,91
 44 517 44 517 46 491 c 0,92,93
 49 457 49 457 62 431 c 0,94,95
 70 416 70 416 83 402 c 0,96,97
 107 376 107 376 113 376 c 0,98,99
 114 376 114 376 129 369 c 0,100,101
 163 355 163 355 211 349 c 0,102,103
 218 348 218 348 235.5 348 c 128,-1,104
 253 348 253 348 262 349 c 0,63,64
EndSplineSet
EndChar

StartChar: K
Encoding: 75 75 13
Width: 1000
GlyphClass: 1
Flags: W
LayerCount: 2
Fore
SplineSet
481 309 m 2,0,1
 455 321 455 321 440 336 c 0,2,3
 427 351 427 351 425 380 c 2,4,-1
 425 395 l 1,5,-1
 419 388 l 2,6,7
 393 355 393 355 354 335 c 0,8,9
 293 305 293 305 196 329 c 0,10,11
 164 338 164 338 130 356 c 0,12,13
 87 379 87 379 67.5 393.5 c 128,-1,14
 48 408 48 408 31 430 c 0,15,16
 -3 472 -3 472 0 543 c 0,17,18
 3 607 3 607 25 666 c 128,-1,19
 47 725 47 725 81 759 c 0,20,21
 94 772 94 772 103 776.5 c 128,-1,22
 112 781 112 781 120 785 c 0,23,24
 160 808 160 808 217 796 c 0,25,26
 259 788 259 788 305 762 c 0,27,28
 347 739 347 739 379 713 c 0,29,30
 418 683 418 683 440 648 c 0,31,32
 442 645 442 645 443.5 643 c 128,-1,33
 445 641 445 641 446 640 c 128,-1,34
 447 639 447 639 447 639 c 1,35,36
 448 640 448 640 450.5 656.5 c 128,-1,37
 453 673 453 673 453 674 c 1,38,39
 453 674 453 674 473.5 664 c 128,-1,40
 494 654 494 654 499 650 c 1,41,42
 499 650 499 650 498 644 c 0,43,44
 493 615 493 615 486 557 c 0,45,46
 474 457 474 457 473 385 c 0,47,48
 472 342 472 342 479 327 c 0,49,50
 480 325 480 325 481 323 c 128,-1,51
 482 321 482 321 482.5 320 c 128,-1,52
 483 319 483 319 482 319 c 2,53,54
 482 319 482 319 475.5 322.5 c 128,-1,55
 469 326 469 326 469 326 c 2,56,57
 468 325 468 325 470 323.5 c 128,-1,58
 472 322 472 322 475 319.5 c 128,-1,59
 478 317 478 317 482 314 c 0,60,61
 495 304 495 304 495 303 c 1,62,-1
 481 309 l 2,0,1
262 349 m 0,63,64
 346 359 346 359 396 446 c 0,65,66
 425 495 425 495 430 547 c 0,67,68
 435 607 435 607 397 665 c 0,69,70
 382 688 382 688 358 711 c 0,71,72
 325 742 325 742 312 746 c 0,73,74
 308 748 308 748 299 752 c 0,75,76
 281 762 281 762 252 768 c 0,77,78
 218 774 218 774 188 766 c 0,79,80
 137 753 137 753 106 692 c 0,81,82
 88 655 88 655 90 624 c 2,83,-1
 90 614 l 1,84,-1
 83 618 l 2,85,86
 75 621 75 621 70 624 c 2,87,-1
 65 626 l 1,88,-1
 63 620 l 2,89,90
 53 591 53 591 48.5 554 c 128,-1,91
 44 517 44 517 46 491 c 0,92,93
 49 457 49 457 62 431 c 0,94,95
 70 416 70 416 83 402 c 0,96,97
 107 376 107 376 113 376 c 0,98,99
 114 376 114 376 129 369 c 0,100,101
 163 355 163 355 211 349 c 0,102,103
 218 348 218 348 235.5 348 c 128,-1,104
 253 348 253 348 262 349 c 0,63,64
EndSplineSet
EndChar

StartChar: L
Encoding: 76 76 14
Width: 1000
GlyphClass: 1
Flags: W
LayerCount: 2
Fore
SplineSet
481 309 m 2,0,1
 455 321 455 321 440 336 c 0,2,3
 427 351 427 351 425 380 c 2,4,-1
 425 395 l 1,5,-1
 419 388 l 2,6,7
 393 355 393 355 354 335 c 0,8,9
 293 305 293 305 196 329 c 0,10,11
 164 338 164 338 130 356 c 0,12,13
 87 379 87 379 67.5 393.5 c 128,-1,14
 48 408 48 408 31 430 c 0,15,16
 -3 472 -3 472 0 543 c 0,17,18
 3 607 3 607 25 666 c 128,-1,19
 47 725 47 725 81 759 c 0,20,21
 94 772 94 772 103 776.5 c 128,-1,22
 112 781 112 781 120 785 c 0,23,24
 160 808 160 808 217 796 c 0,25,26
 259 788 259 788 305 762 c 0,27,28
 347 739 347 739 379 713 c 0,29,30
 418 683 418 683 440 648 c 0,31,32
 442 645 442 645 443.5 643 c 128,-1,33
 445 641 445 641 446 640 c 128,-1,34
 447 639 447 639 447 639 c 1,35,36
 448 640 448 640 450.5 656.5 c 128,-1,37
 453 673 453 673 453 674 c 1,38,39
 453 674 453 674 473.5 664 c 128,-1,40
 494 654 494 654 499 650 c 1,41,42
 499 650 499 650 498 644 c 0,43,44
 493 615 493 615 486 557 c 0,45,46
 474 457 474 457 473 385 c 0,47,48
 472 342 472 342 479 327 c 0,49,50
 480 325 480 325 481 323 c 128,-1,51
 482 321 482 321 482.5 320 c 128,-1,52
 483 319 483 319 482 319 c 2,53,54
 482 319 482 319 475.5 322.5 c 128,-1,55
 469 326 469 326 469 326 c 2,56,57
 468 325 468 325 470 323.5 c 128,-1,58
 472 322 472 322 475 319.5 c 128,-1,59
 478 317 478 317 482 314 c 0,60,61
 495 304 495 304 495 303 c 1,62,-1
 481 309 l 2,0,1
262 349 m 0,63,64
 346 359 346 359 396 446 c 0,65,66
 425 495 425 495 430 547 c 0,67,68
 435 607 435 607 397 665 c 0,69,70
 382 688 382 688 358 711 c 0,71,72
 325 742 325 742 312 746 c 0,73,74
 308 748 308 748 299 752 c 0,75,76
 281 762 281 762 252 768 c 0,77,78
 218 774 218 774 188 766 c 0,79,80
 137 753 137 753 106 692 c 0,81,82
 88 655 88 655 90 624 c 2,83,-1
 90 614 l 1,84,-1
 83 618 l 2,85,86
 75 621 75 621 70 624 c 2,87,-1
 65 626 l 1,88,-1
 63 620 l 2,89,90
 53 591 53 591 48.5 554 c 128,-1,91
 44 517 44 517 46 491 c 0,92,93
 49 457 49 457 62 431 c 0,94,95
 70 416 70 416 83 402 c 0,96,97
 107 376 107 376 113 376 c 0,98,99
 114 376 114 376 129 369 c 0,100,101
 163 355 163 355 211 349 c 0,102,103
 218 348 218 348 235.5 348 c 128,-1,104
 253 348 253 348 262 349 c 0,63,64
EndSplineSet
EndChar

StartChar: M
Encoding: 77 77 15
Width: 1000
GlyphClass: 1
Flags: W
LayerCount: 2
Fore
SplineSet
481 309 m 2,0,1
 455 321 455 321 440 336 c 0,2,3
 427 351 427 351 425 380 c 2,4,-1
 425 395 l 1,5,-1
 419 388 l 2,6,7
 393 355 393 355 354 335 c 0,8,9
 293 305 293 305 196 329 c 0,10,11
 164 338 164 338 130 356 c 0,12,13
 87 379 87 379 67.5 393.5 c 128,-1,14
 48 408 48 408 31 430 c 0,15,16
 -3 472 -3 472 0 543 c 0,17,18
 3 607 3 607 25 666 c 128,-1,19
 47 725 47 725 81 759 c 0,20,21
 94 772 94 772 103 776.5 c 128,-1,22
 112 781 112 781 120 785 c 0,23,24
 160 808 160 808 217 796 c 0,25,26
 259 788 259 788 305 762 c 0,27,28
 347 739 347 739 379 713 c 0,29,30
 418 683 418 683 440 648 c 0,31,32
 442 645 442 645 443.5 643 c 128,-1,33
 445 641 445 641 446 640 c 128,-1,34
 447 639 447 639 447 639 c 1,35,36
 448 640 448 640 450.5 656.5 c 128,-1,37
 453 673 453 673 453 674 c 1,38,39
 453 674 453 674 473.5 664 c 128,-1,40
 494 654 494 654 499 650 c 1,41,42
 499 650 499 650 498 644 c 0,43,44
 493 615 493 615 486 557 c 0,45,46
 474 457 474 457 473 385 c 0,47,48
 472 342 472 342 479 327 c 0,49,50
 480 325 480 325 481 323 c 128,-1,51
 482 321 482 321 482.5 320 c 128,-1,52
 483 319 483 319 482 319 c 2,53,54
 482 319 482 319 475.5 322.5 c 128,-1,55
 469 326 469 326 469 326 c 2,56,57
 468 325 468 325 470 323.5 c 128,-1,58
 472 322 472 322 475 319.5 c 128,-1,59
 478 317 478 317 482 314 c 0,60,61
 495 304 495 304 495 303 c 1,62,-1
 481 309 l 2,0,1
262 349 m 0,63,64
 346 359 346 359 396 446 c 0,65,66
 425 495 425 495 430 547 c 0,67,68
 435 607 435 607 397 665 c 0,69,70
 382 688 382 688 358 711 c 0,71,72
 325 742 325 742 312 746 c 0,73,74
 308 748 308 748 299 752 c 0,75,76
 281 762 281 762 252 768 c 0,77,78
 218 774 218 774 188 766 c 0,79,80
 137 753 137 753 106 692 c 0,81,82
 88 655 88 655 90 624 c 2,83,-1
 90 614 l 1,84,-1
 83 618 l 2,85,86
 75 621 75 621 70 624 c 2,87,-1
 65 626 l 1,88,-1
 63 620 l 2,89,90
 53 591 53 591 48.5 554 c 128,-1,91
 44 517 44 517 46 491 c 0,92,93
 49 457 49 457 62 431 c 0,94,95
 70 416 70 416 83 402 c 0,96,97
 107 376 107 376 113 376 c 0,98,99
 114 376 114 376 129 369 c 0,100,101
 163 355 163 355 211 349 c 0,102,103
 218 348 218 348 235.5 348 c 128,-1,104
 253 348 253 348 262 349 c 0,63,64
EndSplineSet
EndChar

StartChar: N
Encoding: 78 78 16
Width: 1000
GlyphClass: 1
Flags: W
LayerCount: 2
Fore
SplineSet
481 309 m 2,0,1
 455 321 455 321 440 336 c 0,2,3
 427 351 427 351 425 380 c 2,4,-1
 425 395 l 1,5,-1
 419 388 l 2,6,7
 393 355 393 355 354 335 c 0,8,9
 293 305 293 305 196 329 c 0,10,11
 164 338 164 338 130 356 c 0,12,13
 87 379 87 379 67.5 393.5 c 128,-1,14
 48 408 48 408 31 430 c 0,15,16
 -3 472 -3 472 0 543 c 0,17,18
 3 607 3 607 25 666 c 128,-1,19
 47 725 47 725 81 759 c 0,20,21
 94 772 94 772 103 776.5 c 128,-1,22
 112 781 112 781 120 785 c 0,23,24
 160 808 160 808 217 796 c 0,25,26
 259 788 259 788 305 762 c 0,27,28
 347 739 347 739 379 713 c 0,29,30
 418 683 418 683 440 648 c 0,31,32
 442 645 442 645 443.5 643 c 128,-1,33
 445 641 445 641 446 640 c 128,-1,34
 447 639 447 639 447 639 c 1,35,36
 448 640 448 640 450.5 656.5 c 128,-1,37
 453 673 453 673 453 674 c 1,38,39
 453 674 453 674 473.5 664 c 128,-1,40
 494 654 494 654 499 650 c 1,41,42
 499 650 499 650 498 644 c 0,43,44
 493 615 493 615 486 557 c 0,45,46
 474 457 474 457 473 385 c 0,47,48
 472 342 472 342 479 327 c 0,49,50
 480 325 480 325 481 323 c 128,-1,51
 482 321 482 321 482.5 320 c 128,-1,52
 483 319 483 319 482 319 c 2,53,54
 482 319 482 319 475.5 322.5 c 128,-1,55
 469 326 469 326 469 326 c 2,56,57
 468 325 468 325 470 323.5 c 128,-1,58
 472 322 472 322 475 319.5 c 128,-1,59
 478 317 478 317 482 314 c 0,60,61
 495 304 495 304 495 303 c 1,62,-1
 481 309 l 2,0,1
262 349 m 0,63,64
 346 359 346 359 396 446 c 0,65,66
 425 495 425 495 430 547 c 0,67,68
 435 607 435 607 397 665 c 0,69,70
 382 688 382 688 358 711 c 0,71,72
 325 742 325 742 312 746 c 0,73,74
 308 748 308 748 299 752 c 0,75,76
 281 762 281 762 252 768 c 0,77,78
 218 774 218 774 188 766 c 0,79,80
 137 753 137 753 106 692 c 0,81,82
 88 655 88 655 90 624 c 2,83,-1
 90 614 l 1,84,-1
 83 618 l 2,85,86
 75 621 75 621 70 624 c 2,87,-1
 65 626 l 1,88,-1
 63 620 l 2,89,90
 53 591 53 591 48.5 554 c 128,-1,91
 44 517 44 517 46 491 c 0,92,93
 49 457 49 457 62 431 c 0,94,95
 70 416 70 416 83 402 c 0,96,97
 107 376 107 376 113 376 c 0,98,99
 114 376 114 376 129 369 c 0,100,101
 163 355 163 355 211 349 c 0,102,103
 218 348 218 348 235.5 348 c 128,-1,104
 253 348 253 348 262 349 c 0,63,64
EndSplineSet
EndChar

StartChar: O
Encoding: 79 79 17
Width: 1000
GlyphClass: 1
Flags: W
LayerCount: 2
Fore
SplineSet
481 309 m 2,0,1
 455 321 455 321 440 336 c 0,2,3
 427 351 427 351 425 380 c 2,4,-1
 425 395 l 1,5,-1
 419 388 l 2,6,7
 393 355 393 355 354 335 c 0,8,9
 293 305 293 305 196 329 c 0,10,11
 164 338 164 338 130 356 c 0,12,13
 87 379 87 379 67.5 393.5 c 128,-1,14
 48 408 48 408 31 430 c 0,15,16
 -3 472 -3 472 0 543 c 0,17,18
 3 607 3 607 25 666 c 128,-1,19
 47 725 47 725 81 759 c 0,20,21
 94 772 94 772 103 776.5 c 128,-1,22
 112 781 112 781 120 785 c 0,23,24
 160 808 160 808 217 796 c 0,25,26
 259 788 259 788 305 762 c 0,27,28
 347 739 347 739 379 713 c 0,29,30
 418 683 418 683 440 648 c 0,31,32
 442 645 442 645 443.5 643 c 128,-1,33
 445 641 445 641 446 640 c 128,-1,34
 447 639 447 639 447 639 c 1,35,36
 448 640 448 640 450.5 656.5 c 128,-1,37
 453 673 453 673 453 674 c 1,38,39
 453 674 453 674 473.5 664 c 128,-1,40
 494 654 494 654 499 650 c 1,41,42
 499 650 499 650 498 644 c 0,43,44
 493 615 493 615 486 557 c 0,45,46
 474 457 474 457 473 385 c 0,47,48
 472 342 472 342 479 327 c 0,49,50
 480 325 480 325 481 323 c 128,-1,51
 482 321 482 321 482.5 320 c 128,-1,52
 483 319 483 319 482 319 c 2,53,54
 482 319 482 319 475.5 322.5 c 128,-1,55
 469 326 469 326 469 326 c 2,56,57
 468 325 468 325 470 323.5 c 128,-1,58
 472 322 472 322 475 319.5 c 128,-1,59
 478 317 478 317 482 314 c 0,60,61
 495 304 495 304 495 303 c 1,62,-1
 481 309 l 2,0,1
262 349 m 0,63,64
 346 359 346 359 396 446 c 0,65,66
 425 495 425 495 430 547 c 0,67,68
 435 607 435 607 397 665 c 0,69,70
 382 688 382 688 358 711 c 0,71,72
 325 742 325 742 312 746 c 0,73,74
 308 748 308 748 299 752 c 0,75,76
 281 762 281 762 252 768 c 0,77,78
 218 774 218 774 188 766 c 0,79,80
 137 753 137 753 106 692 c 0,81,82
 88 655 88 655 90 624 c 2,83,-1
 90 614 l 1,84,-1
 83 618 l 2,85,86
 75 621 75 621 70 624 c 2,87,-1
 65 626 l 1,88,-1
 63 620 l 2,89,90
 53 591 53 591 48.5 554 c 128,-1,91
 44 517 44 517 46 491 c 0,92,93
 49 457 49 457 62 431 c 0,94,95
 70 416 70 416 83 402 c 0,96,97
 107 376 107 376 113 376 c 0,98,99
 114 376 114 376 129 369 c 0,100,101
 163 355 163 355 211 349 c 0,102,103
 218 348 218 348 235.5 348 c 128,-1,104
 253 348 253 348 262 349 c 0,63,64
EndSplineSet
EndChar

StartChar: P
Encoding: 80 80 18
Width: 1000
GlyphClass: 1
Flags: W
LayerCount: 2
Fore
SplineSet
481 309 m 2,0,1
 455 321 455 321 440 336 c 0,2,3
 427 351 427 351 425 380 c 2,4,-1
 425 395 l 1,5,-1
 419 388 l 2,6,7
 393 355 393 355 354 335 c 0,8,9
 293 305 293 305 196 329 c 0,10,11
 164 338 164 338 130 356 c 0,12,13
 87 379 87 379 67.5 393.5 c 128,-1,14
 48 408 48 408 31 430 c 0,15,16
 -3 472 -3 472 0 543 c 0,17,18
 3 607 3 607 25 666 c 128,-1,19
 47 725 47 725 81 759 c 0,20,21
 94 772 94 772 103 776.5 c 128,-1,22
 112 781 112 781 120 785 c 0,23,24
 160 808 160 808 217 796 c 0,25,26
 259 788 259 788 305 762 c 0,27,28
 347 739 347 739 379 713 c 0,29,30
 418 683 418 683 440 648 c 0,31,32
 442 645 442 645 443.5 643 c 128,-1,33
 445 641 445 641 446 640 c 128,-1,34
 447 639 447 639 447 639 c 1,35,36
 448 640 448 640 450.5 656.5 c 128,-1,37
 453 673 453 673 453 674 c 1,38,39
 453 674 453 674 473.5 664 c 128,-1,40
 494 654 494 654 499 650 c 1,41,42
 499 650 499 650 498 644 c 0,43,44
 493 615 493 615 486 557 c 0,45,46
 474 457 474 457 473 385 c 0,47,48
 472 342 472 342 479 327 c 0,49,50
 480 325 480 325 481 323 c 128,-1,51
 482 321 482 321 482.5 320 c 128,-1,52
 483 319 483 319 482 319 c 2,53,54
 482 319 482 319 475.5 322.5 c 128,-1,55
 469 326 469 326 469 326 c 2,56,57
 468 325 468 325 470 323.5 c 128,-1,58
 472 322 472 322 475 319.5 c 128,-1,59
 478 317 478 317 482 314 c 0,60,61
 495 304 495 304 495 303 c 1,62,-1
 481 309 l 2,0,1
262 349 m 0,63,64
 346 359 346 359 396 446 c 0,65,66
 425 495 425 495 430 547 c 0,67,68
 435 607 435 607 397 665 c 0,69,70
 382 688 382 688 358 711 c 0,71,72
 325 742 325 742 312 746 c 0,73,74
 308 748 308 748 299 752 c 0,75,76
 281 762 281 762 252 768 c 0,77,78
 218 774 218 774 188 766 c 0,79,80
 137 753 137 753 106 692 c 0,81,82
 88 655 88 655 90 624 c 2,83,-1
 90 614 l 1,84,-1
 83 618 l 2,85,86
 75 621 75 621 70 624 c 2,87,-1
 65 626 l 1,88,-1
 63 620 l 2,89,90
 53 591 53 591 48.5 554 c 128,-1,91
 44 517 44 517 46 491 c 0,92,93
 49 457 49 457 62 431 c 0,94,95
 70 416 70 416 83 402 c 0,96,97
 107 376 107 376 113 376 c 0,98,99
 114 376 114 376 129 369 c 0,100,101
 163 355 163 355 211 349 c 0,102,103
 218 348 218 348 235.5 348 c 128,-1,104
 253 348 253 348 262 349 c 0,63,64
EndSplineSet
EndChar

StartChar: Q
Encoding: 81 81 19
Width: 1000
GlyphClass: 1
Flags: W
LayerCount: 2
Fore
SplineSet
481 309 m 2,0,1
 455 321 455 321 440 336 c 0,2,3
 427 351 427 351 425 380 c 2,4,-1
 425 395 l 1,5,-1
 419 388 l 2,6,7
 393 355 393 355 354 335 c 0,8,9
 293 305 293 305 196 329 c 0,10,11
 164 338 164 338 130 356 c 0,12,13
 87 379 87 379 67.5 393.5 c 128,-1,14
 48 408 48 408 31 430 c 0,15,16
 -3 472 -3 472 0 543 c 0,17,18
 3 607 3 607 25 666 c 128,-1,19
 47 725 47 725 81 759 c 0,20,21
 94 772 94 772 103 776.5 c 128,-1,22
 112 781 112 781 120 785 c 0,23,24
 160 808 160 808 217 796 c 0,25,26
 259 788 259 788 305 762 c 0,27,28
 347 739 347 739 379 713 c 0,29,30
 418 683 418 683 440 648 c 0,31,32
 442 645 442 645 443.5 643 c 128,-1,33
 445 641 445 641 446 640 c 128,-1,34
 447 639 447 639 447 639 c 1,35,36
 448 640 448 640 450.5 656.5 c 128,-1,37
 453 673 453 673 453 674 c 1,38,39
 453 674 453 674 473.5 664 c 128,-1,40
 494 654 494 654 499 650 c 1,41,42
 499 650 499 650 498 644 c 0,43,44
 493 615 493 615 486 557 c 0,45,46
 474 457 474 457 473 385 c 0,47,48
 472 342 472 342 479 327 c 0,49,50
 480 325 480 325 481 323 c 128,-1,51
 482 321 482 321 482.5 320 c 128,-1,52
 483 319 483 319 482 319 c 2,53,54
 482 319 482 319 475.5 322.5 c 128,-1,55
 469 326 469 326 469 326 c 2,56,57
 468 325 468 325 470 323.5 c 128,-1,58
 472 322 472 322 475 319.5 c 128,-1,59
 478 317 478 317 482 314 c 0,60,61
 495 304 495 304 495 303 c 1,62,-1
 481 309 l 2,0,1
262 349 m 0,63,64
 346 359 346 359 396 446 c 0,65,66
 425 495 425 495 430 547 c 0,67,68
 435 607 435 607 397 665 c 0,69,70
 382 688 382 688 358 711 c 0,71,72
 325 742 325 742 312 746 c 0,73,74
 308 748 308 748 299 752 c 0,75,76
 281 762 281 762 252 768 c 0,77,78
 218 774 218 774 188 766 c 0,79,80
 137 753 137 753 106 692 c 0,81,82
 88 655 88 655 90 624 c 2,83,-1
 90 614 l 1,84,-1
 83 618 l 2,85,86
 75 621 75 621 70 624 c 2,87,-1
 65 626 l 1,88,-1
 63 620 l 2,89,90
 53 591 53 591 48.5 554 c 128,-1,91
 44 517 44 517 46 491 c 0,92,93
 49 457 49 457 62 431 c 0,94,95
 70 416 70 416 83 402 c 0,96,97
 107 376 107 376 113 376 c 0,98,99
 114 376 114 376 129 369 c 0,100,101
 163 355 163 355 211 349 c 0,102,103
 218 348 218 348 235.5 348 c 128,-1,104
 253 348 253 348 262 349 c 0,63,64
EndSplineSet
EndChar

StartChar: R
Encoding: 82 82 20
Width: 1000
GlyphClass: 1
Flags: W
LayerCount: 2
Fore
SplineSet
481 309 m 2,0,1
 455 321 455 321 440 336 c 0,2,3
 427 351 427 351 425 380 c 2,4,-1
 425 395 l 1,5,-1
 419 388 l 2,6,7
 393 355 393 355 354 335 c 0,8,9
 293 305 293 305 196 329 c 0,10,11
 164 338 164 338 130 356 c 0,12,13
 87 379 87 379 67.5 393.5 c 128,-1,14
 48 408 48 408 31 430 c 0,15,16
 -3 472 -3 472 0 543 c 0,17,18
 3 607 3 607 25 666 c 128,-1,19
 47 725 47 725 81 759 c 0,20,21
 94 772 94 772 103 776.5 c 128,-1,22
 112 781 112 781 120 785 c 0,23,24
 160 808 160 808 217 796 c 0,25,26
 259 788 259 788 305 762 c 0,27,28
 347 739 347 739 379 713 c 0,29,30
 418 683 418 683 440 648 c 0,31,32
 442 645 442 645 443.5 643 c 128,-1,33
 445 641 445 641 446 640 c 128,-1,34
 447 639 447 639 447 639 c 1,35,36
 448 640 448 640 450.5 656.5 c 128,-1,37
 453 673 453 673 453 674 c 1,38,39
 453 674 453 674 473.5 664 c 128,-1,40
 494 654 494 654 499 650 c 1,41,42
 499 650 499 650 498 644 c 0,43,44
 493 615 493 615 486 557 c 0,45,46
 474 457 474 457 473 385 c 0,47,48
 472 342 472 342 479 327 c 0,49,50
 480 325 480 325 481 323 c 128,-1,51
 482 321 482 321 482.5 320 c 128,-1,52
 483 319 483 319 482 319 c 2,53,54
 482 319 482 319 475.5 322.5 c 128,-1,55
 469 326 469 326 469 326 c 2,56,57
 468 325 468 325 470 323.5 c 128,-1,58
 472 322 472 322 475 319.5 c 128,-1,59
 478 317 478 317 482 314 c 0,60,61
 495 304 495 304 495 303 c 1,62,-1
 481 309 l 2,0,1
262 349 m 0,63,64
 346 359 346 359 396 446 c 0,65,66
 425 495 425 495 430 547 c 0,67,68
 435 607 435 607 397 665 c 0,69,70
 382 688 382 688 358 711 c 0,71,72
 325 742 325 742 312 746 c 0,73,74
 308 748 308 748 299 752 c 0,75,76
 281 762 281 762 252 768 c 0,77,78
 218 774 218 774 188 766 c 0,79,80
 137 753 137 753 106 692 c 0,81,82
 88 655 88 655 90 624 c 2,83,-1
 90 614 l 1,84,-1
 83 618 l 2,85,86
 75 621 75 621 70 624 c 2,87,-1
 65 626 l 1,88,-1
 63 620 l 2,89,90
 53 591 53 591 48.5 554 c 128,-1,91
 44 517 44 517 46 491 c 0,92,93
 49 457 49 457 62 431 c 0,94,95
 70 416 70 416 83 402 c 0,96,97
 107 376 107 376 113 376 c 0,98,99
 114 376 114 376 129 369 c 0,100,101
 163 355 163 355 211 349 c 0,102,103
 218 348 218 348 235.5 348 c 128,-1,104
 253 348 253 348 262 349 c 0,63,64
EndSplineSet
EndChar

StartChar: S
Encoding: 83 83 21
Width: 1000
GlyphClass: 1
Flags: W
LayerCount: 2
Fore
SplineSet
481 309 m 2,0,1
 455 321 455 321 440 336 c 0,2,3
 427 351 427 351 425 380 c 2,4,-1
 425 395 l 1,5,-1
 419 388 l 2,6,7
 393 355 393 355 354 335 c 0,8,9
 293 305 293 305 196 329 c 0,10,11
 164 338 164 338 130 356 c 0,12,13
 87 379 87 379 67.5 393.5 c 128,-1,14
 48 408 48 408 31 430 c 0,15,16
 -3 472 -3 472 0 543 c 0,17,18
 3 607 3 607 25 666 c 128,-1,19
 47 725 47 725 81 759 c 0,20,21
 94 772 94 772 103 776.5 c 128,-1,22
 112 781 112 781 120 785 c 0,23,24
 160 808 160 808 217 796 c 0,25,26
 259 788 259 788 305 762 c 0,27,28
 347 739 347 739 379 713 c 0,29,30
 418 683 418 683 440 648 c 0,31,32
 442 645 442 645 443.5 643 c 128,-1,33
 445 641 445 641 446 640 c 128,-1,34
 447 639 447 639 447 639 c 1,35,36
 448 640 448 640 450.5 656.5 c 128,-1,37
 453 673 453 673 453 674 c 1,38,39
 453 674 453 674 473.5 664 c 128,-1,40
 494 654 494 654 499 650 c 1,41,42
 499 650 499 650 498 644 c 0,43,44
 493 615 493 615 486 557 c 0,45,46
 474 457 474 457 473 385 c 0,47,48
 472 342 472 342 479 327 c 0,49,50
 480 325 480 325 481 323 c 128,-1,51
 482 321 482 321 482.5 320 c 128,-1,52
 483 319 483 319 482 319 c 2,53,54
 482 319 482 319 475.5 322.5 c 128,-1,55
 469 326 469 326 469 326 c 2,56,57
 468 325 468 325 470 323.5 c 128,-1,58
 472 322 472 322 475 319.5 c 128,-1,59
 478 317 478 317 482 314 c 0,60,61
 495 304 495 304 495 303 c 1,62,-1
 481 309 l 2,0,1
262 349 m 0,63,64
 346 359 346 359 396 446 c 0,65,66
 425 495 425 495 430 547 c 0,67,68
 435 607 435 607 397 665 c 0,69,70
 382 688 382 688 358 711 c 0,71,72
 325 742 325 742 312 746 c 0,73,74
 308 748 308 748 299 752 c 0,75,76
 281 762 281 762 252 768 c 0,77,78
 218 774 218 774 188 766 c 0,79,80
 137 753 137 753 106 692 c 0,81,82
 88 655 88 655 90 624 c 2,83,-1
 90 614 l 1,84,-1
 83 618 l 2,85,86
 75 621 75 621 70 624 c 2,87,-1
 65 626 l 1,88,-1
 63 620 l 2,89,90
 53 591 53 591 48.5 554 c 128,-1,91
 44 517 44 517 46 491 c 0,92,93
 49 457 49 457 62 431 c 0,94,95
 70 416 70 416 83 402 c 0,96,97
 107 376 107 376 113 376 c 0,98,99
 114 376 114 376 129 369 c 0,100,101
 163 355 163 355 211 349 c 0,102,103
 218 348 218 348 235.5 348 c 128,-1,104
 253 348 253 348 262 349 c 0,63,64
EndSplineSet
EndChar

StartChar: T
Encoding: 84 84 22
Width: 1000
GlyphClass: 1
Flags: W
LayerCount: 2
Fore
SplineSet
481 309 m 2,0,1
 455 321 455 321 440 336 c 0,2,3
 427 351 427 351 425 380 c 2,4,-1
 425 395 l 1,5,-1
 419 388 l 2,6,7
 393 355 393 355 354 335 c 0,8,9
 293 305 293 305 196 329 c 0,10,11
 164 338 164 338 130 356 c 0,12,13
 87 379 87 379 67.5 393.5 c 128,-1,14
 48 408 48 408 31 430 c 0,15,16
 -3 472 -3 472 0 543 c 0,17,18
 3 607 3 607 25 666 c 128,-1,19
 47 725 47 725 81 759 c 0,20,21
 94 772 94 772 103 776.5 c 128,-1,22
 112 781 112 781 120 785 c 0,23,24
 160 808 160 808 217 796 c 0,25,26
 259 788 259 788 305 762 c 0,27,28
 347 739 347 739 379 713 c 0,29,30
 418 683 418 683 440 648 c 0,31,32
 442 645 442 645 443.5 643 c 128,-1,33
 445 641 445 641 446 640 c 128,-1,34
 447 639 447 639 447 639 c 1,35,36
 448 640 448 640 450.5 656.5 c 128,-1,37
 453 673 453 673 453 674 c 1,38,39
 453 674 453 674 473.5 664 c 128,-1,40
 494 654 494 654 499 650 c 1,41,42
 499 650 499 650 498 644 c 0,43,44
 493 615 493 615 486 557 c 0,45,46
 474 457 474 457 473 385 c 0,47,48
 472 342 472 342 479 327 c 0,49,50
 480 325 480 325 481 323 c 128,-1,51
 482 321 482 321 482.5 320 c 128,-1,52
 483 319 483 319 482 319 c 2,53,54
 482 319 482 319 475.5 322.5 c 128,-1,55
 469 326 469 326 469 326 c 2,56,57
 468 325 468 325 470 323.5 c 128,-1,58
 472 322 472 322 475 319.5 c 128,-1,59
 478 317 478 317 482 314 c 0,60,61
 495 304 495 304 495 303 c 1,62,-1
 481 309 l 2,0,1
262 349 m 0,63,64
 346 359 346 359 396 446 c 0,65,66
 425 495 425 495 430 547 c 0,67,68
 435 607 435 607 397 665 c 0,69,70
 382 688 382 688 358 711 c 0,71,72
 325 742 325 742 312 746 c 0,73,74
 308 748 308 748 299 752 c 0,75,76
 281 762 281 762 252 768 c 0,77,78
 218 774 218 774 188 766 c 0,79,80
 137 753 137 753 106 692 c 0,81,82
 88 655 88 655 90 624 c 2,83,-1
 90 614 l 1,84,-1
 83 618 l 2,85,86
 75 621 75 621 70 624 c 2,87,-1
 65 626 l 1,88,-1
 63 620 l 2,89,90
 53 591 53 591 48.5 554 c 128,-1,91
 44 517 44 517 46 491 c 0,92,93
 49 457 49 457 62 431 c 0,94,95
 70 416 70 416 83 402 c 0,96,97
 107 376 107 376 113 376 c 0,98,99
 114 376 114 376 129 369 c 0,100,101
 163 355 163 355 211 349 c 0,102,103
 218 348 218 348 235.5 348 c 128,-1,104
 253 348 253 348 262 349 c 0,63,64
EndSplineSet
EndChar

StartChar: U
Encoding: 85 85 23
Width: 1000
GlyphClass: 1
Flags: W
LayerCount: 2
Fore
SplineSet
481 309 m 2,0,1
 455 321 455 321 440 336 c 0,2,3
 427 351 427 351 425 380 c 2,4,-1
 425 395 l 1,5,-1
 419 388 l 2,6,7
 393 355 393 355 354 335 c 0,8,9
 293 305 293 305 196 329 c 0,10,11
 164 338 164 338 130 356 c 0,12,13
 87 379 87 379 67.5 393.5 c 128,-1,14
 48 408 48 408 31 430 c 0,15,16
 -3 472 -3 472 0 543 c 0,17,18
 3 607 3 607 25 666 c 128,-1,19
 47 725 47 725 81 759 c 0,20,21
 94 772 94 772 103 776.5 c 128,-1,22
 112 781 112 781 120 785 c 0,23,24
 160 808 160 808 217 796 c 0,25,26
 259 788 259 788 305 762 c 0,27,28
 347 739 347 739 379 713 c 0,29,30
 418 683 418 683 440 648 c 0,31,32
 442 645 442 645 443.5 643 c 128,-1,33
 445 641 445 641 446 640 c 128,-1,34
 447 639 447 639 447 639 c 1,35,36
 448 640 448 640 450.5 656.5 c 128,-1,37
 453 673 453 673 453 674 c 1,38,39
 453 674 453 674 473.5 664 c 128,-1,40
 494 654 494 654 499 650 c 1,41,42
 499 650 499 650 498 644 c 0,43,44
 493 615 493 615 486 557 c 0,45,46
 474 457 474 457 473 385 c 0,47,48
 472 342 472 342 479 327 c 0,49,50
 480 325 480 325 481 323 c 128,-1,51
 482 321 482 321 482.5 320 c 128,-1,52
 483 319 483 319 482 319 c 2,53,54
 482 319 482 319 475.5 322.5 c 128,-1,55
 469 326 469 326 469 326 c 2,56,57
 468 325 468 325 470 323.5 c 128,-1,58
 472 322 472 322 475 319.5 c 128,-1,59
 478 317 478 317 482 314 c 0,60,61
 495 304 495 304 495 303 c 1,62,-1
 481 309 l 2,0,1
262 349 m 0,63,64
 346 359 346 359 396 446 c 0,65,66
 425 495 425 495 430 547 c 0,67,68
 435 607 435 607 397 665 c 0,69,70
 382 688 382 688 358 711 c 0,71,72
 325 742 325 742 312 746 c 0,73,74
 308 748 308 748 299 752 c 0,75,76
 281 762 281 762 252 768 c 0,77,78
 218 774 218 774 188 766 c 0,79,80
 137 753 137 753 106 692 c 0,81,82
 88 655 88 655 90 624 c 2,83,-1
 90 614 l 1,84,-1
 83 618 l 2,85,86
 75 621 75 621 70 624 c 2,87,-1
 65 626 l 1,88,-1
 63 620 l 2,89,90
 53 591 53 591 48.5 554 c 128,-1,91
 44 517 44 517 46 491 c 0,92,93
 49 457 49 457 62 431 c 0,94,95
 70 416 70 416 83 402 c 0,96,97
 107 376 107 376 113 376 c 0,98,99
 114 376 114 376 129 369 c 0,100,101
 163 355 163 355 211 349 c 0,102,103
 218 348 218 348 235.5 348 c 128,-1,104
 253 348 253 348 262 349 c 0,63,64
EndSplineSet
EndChar

StartChar: V
Encoding: 86 86 24
Width: 1000
GlyphClass: 1
Flags: W
LayerCount: 2
Fore
SplineSet
481 309 m 2,0,1
 455 321 455 321 440 336 c 0,2,3
 427 351 427 351 425 380 c 2,4,-1
 425 395 l 1,5,-1
 419 388 l 2,6,7
 393 355 393 355 354 335 c 0,8,9
 293 305 293 305 196 329 c 0,10,11
 164 338 164 338 130 356 c 0,12,13
 87 379 87 379 67.5 393.5 c 128,-1,14
 48 408 48 408 31 430 c 0,15,16
 -3 472 -3 472 0 543 c 0,17,18
 3 607 3 607 25 666 c 128,-1,19
 47 725 47 725 81 759 c 0,20,21
 94 772 94 772 103 776.5 c 128,-1,22
 112 781 112 781 120 785 c 0,23,24
 160 808 160 808 217 796 c 0,25,26
 259 788 259 788 305 762 c 0,27,28
 347 739 347 739 379 713 c 0,29,30
 418 683 418 683 440 648 c 0,31,32
 442 645 442 645 443.5 643 c 128,-1,33
 445 641 445 641 446 640 c 128,-1,34
 447 639 447 639 447 639 c 1,35,36
 448 640 448 640 450.5 656.5 c 128,-1,37
 453 673 453 673 453 674 c 1,38,39
 453 674 453 674 473.5 664 c 128,-1,40
 494 654 494 654 499 650 c 1,41,42
 499 650 499 650 498 644 c 0,43,44
 493 615 493 615 486 557 c 0,45,46
 474 457 474 457 473 385 c 0,47,48
 472 342 472 342 479 327 c 0,49,50
 480 325 480 325 481 323 c 128,-1,51
 482 321 482 321 482.5 320 c 128,-1,52
 483 319 483 319 482 319 c 2,53,54
 482 319 482 319 475.5 322.5 c 128,-1,55
 469 326 469 326 469 326 c 2,56,57
 468 325 468 325 470 323.5 c 128,-1,58
 472 322 472 322 475 319.5 c 128,-1,59
 478 317 478 317 482 314 c 0,60,61
 495 304 495 304 495 303 c 1,62,-1
 481 309 l 2,0,1
262 349 m 0,63,64
 346 359 346 359 396 446 c 0,65,66
 425 495 425 495 430 547 c 0,67,68
 435 607 435 607 397 665 c 0,69,70
 382 688 382 688 358 711 c 0,71,72
 325 742 325 742 312 746 c 0,73,74
 308 748 308 748 299 752 c 0,75,76
 281 762 281 762 252 768 c 0,77,78
 218 774 218 774 188 766 c 0,79,80
 137 753 137 753 106 692 c 0,81,82
 88 655 88 655 90 624 c 2,83,-1
 90 614 l 1,84,-1
 83 618 l 2,85,86
 75 621 75 621 70 624 c 2,87,-1
 65 626 l 1,88,-1
 63 620 l 2,89,90
 53 591 53 591 48.5 554 c 128,-1,91
 44 517 44 517 46 491 c 0,92,93
 49 457 49 457 62 431 c 0,94,95
 70 416 70 416 83 402 c 0,96,97
 107 376 107 376 113 376 c 0,98,99
 114 376 114 376 129 369 c 0,100,101
 163 355 163 355 211 349 c 0,102,103
 218 348 218 348 235.5 348 c 128,-1,104
 253 348 253 348 262 349 c 0,63,64
EndSplineSet
EndChar

StartChar: W
Encoding: 87 87 25
Width: 1000
GlyphClass: 1
Flags: W
LayerCount: 2
Fore
SplineSet
481 309 m 2,0,1
 455 321 455 321 440 336 c 0,2,3
 427 351 427 351 425 380 c 2,4,-1
 425 395 l 1,5,-1
 419 388 l 2,6,7
 393 355 393 355 354 335 c 0,8,9
 293 305 293 305 196 329 c 0,10,11
 164 338 164 338 130 356 c 0,12,13
 87 379 87 379 67.5 393.5 c 128,-1,14
 48 408 48 408 31 430 c 0,15,16
 -3 472 -3 472 0 543 c 0,17,18
 3 607 3 607 25 666 c 128,-1,19
 47 725 47 725 81 759 c 0,20,21
 94 772 94 772 103 776.5 c 128,-1,22
 112 781 112 781 120 785 c 0,23,24
 160 808 160 808 217 796 c 0,25,26
 259 788 259 788 305 762 c 0,27,28
 347 739 347 739 379 713 c 0,29,30
 418 683 418 683 440 648 c 0,31,32
 442 645 442 645 443.5 643 c 128,-1,33
 445 641 445 641 446 640 c 128,-1,34
 447 639 447 639 447 639 c 1,35,36
 448 640 448 640 450.5 656.5 c 128,-1,37
 453 673 453 673 453 674 c 1,38,39
 453 674 453 674 473.5 664 c 128,-1,40
 494 654 494 654 499 650 c 1,41,42
 499 650 499 650 498 644 c 0,43,44
 493 615 493 615 486 557 c 0,45,46
 474 457 474 457 473 385 c 0,47,48
 472 342 472 342 479 327 c 0,49,50
 480 325 480 325 481 323 c 128,-1,51
 482 321 482 321 482.5 320 c 128,-1,52
 483 319 483 319 482 319 c 2,53,54
 482 319 482 319 475.5 322.5 c 128,-1,55
 469 326 469 326 469 326 c 2,56,57
 468 325 468 325 470 323.5 c 128,-1,58
 472 322 472 322 475 319.5 c 128,-1,59
 478 317 478 317 482 314 c 0,60,61
 495 304 495 304 495 303 c 1,62,-1
 481 309 l 2,0,1
262 349 m 0,63,64
 346 359 346 359 396 446 c 0,65,66
 425 495 425 495 430 547 c 0,67,68
 435 607 435 607 397 665 c 0,69,70
 382 688 382 688 358 711 c 0,71,72
 325 742 325 742 312 746 c 0,73,74
 308 748 308 748 299 752 c 0,75,76
 281 762 281 762 252 768 c 0,77,78
 218 774 218 774 188 766 c 0,79,80
 137 753 137 753 106 692 c 0,81,82
 88 655 88 655 90 624 c 2,83,-1
 90 614 l 1,84,-1
 83 618 l 2,85,86
 75 621 75 621 70 624 c 2,87,-1
 65 626 l 1,88,-1
 63 620 l 2,89,90
 53 591 53 591 48.5 554 c 128,-1,91
 44 517 44 517 46 491 c 0,92,93
 49 457 49 457 62 431 c 0,94,95
 70 416 70 416 83 402 c 0,96,97
 107 376 107 376 113 376 c 0,98,99
 114 376 114 376 129 369 c 0,100,101
 163 355 163 355 211 349 c 0,102,103
 218 348 218 348 235.5 348 c 128,-1,104
 253 348 253 348 262 349 c 0,63,64
EndSplineSet
EndChar

StartChar: X
Encoding: 88 88 26
Width: 1000
GlyphClass: 1
Flags: W
LayerCount: 2
Fore
SplineSet
481 309 m 2,0,1
 455 321 455 321 440 336 c 0,2,3
 427 351 427 351 425 380 c 2,4,-1
 425 395 l 1,5,-1
 419 388 l 2,6,7
 393 355 393 355 354 335 c 0,8,9
 293 305 293 305 196 329 c 0,10,11
 164 338 164 338 130 356 c 0,12,13
 87 379 87 379 67.5 393.5 c 128,-1,14
 48 408 48 408 31 430 c 0,15,16
 -3 472 -3 472 0 543 c 0,17,18
 3 607 3 607 25 666 c 128,-1,19
 47 725 47 725 81 759 c 0,20,21
 94 772 94 772 103 776.5 c 128,-1,22
 112 781 112 781 120 785 c 0,23,24
 160 808 160 808 217 796 c 0,25,26
 259 788 259 788 305 762 c 0,27,28
 347 739 347 739 379 713 c 0,29,30
 418 683 418 683 440 648 c 0,31,32
 442 645 442 645 443.5 643 c 128,-1,33
 445 641 445 641 446 640 c 128,-1,34
 447 639 447 639 447 639 c 1,35,36
 448 640 448 640 450.5 656.5 c 128,-1,37
 453 673 453 673 453 674 c 1,38,39
 453 674 453 674 473.5 664 c 128,-1,40
 494 654 494 654 499 650 c 1,41,42
 499 650 499 650 498 644 c 0,43,44
 493 615 493 615 486 557 c 0,45,46
 474 457 474 457 473 385 c 0,47,48
 472 342 472 342 479 327 c 0,49,50
 480 325 480 325 481 323 c 128,-1,51
 482 321 482 321 482.5 320 c 128,-1,52
 483 319 483 319 482 319 c 2,53,54
 482 319 482 319 475.5 322.5 c 128,-1,55
 469 326 469 326 469 326 c 2,56,57
 468 325 468 325 470 323.5 c 128,-1,58
 472 322 472 322 475 319.5 c 128,-1,59
 478 317 478 317 482 314 c 0,60,61
 495 304 495 304 495 303 c 1,62,-1
 481 309 l 2,0,1
262 349 m 0,63,64
 346 359 346 359 396 446 c 0,65,66
 425 495 425 495 430 547 c 0,67,68
 435 607 435 607 397 665 c 0,69,70
 382 688 382 688 358 711 c 0,71,72
 325 742 325 742 312 746 c 0,73,74
 308 748 308 748 299 752 c 0,75,76
 281 762 281 762 252 768 c 0,77,78
 218 774 218 774 188 766 c 0,79,80
 137 753 137 753 106 692 c 0,81,82
 88 655 88 655 90 624 c 2,83,-1
 90 614 l 1,84,-1
 83 618 l 2,85,86
 75 621 75 621 70 624 c 2,87,-1
 65 626 l 1,88,-1
 63 620 l 2,89,90
 53 591 53 591 48.5 554 c 128,-1,91
 44 517 44 517 46 491 c 0,92,93
 49 457 49 457 62 431 c 0,94,95
 70 416 70 416 83 402 c 0,96,97
 107 376 107 376 113 376 c 0,98,99
 114 376 114 376 129 369 c 0,100,101
 163 355 163 355 211 349 c 0,102,103
 218 348 218 348 235.5 348 c 128,-1,104
 253 348 253 348 262 349 c 0,63,64
EndSplineSet
EndChar

StartChar: Y
Encoding: 89 89 27
Width: 1000
GlyphClass: 1
Flags: W
LayerCount: 2
Fore
SplineSet
481 309 m 2,0,1
 455 321 455 321 440 336 c 0,2,3
 427 351 427 351 425 380 c 2,4,-1
 425 395 l 1,5,-1
 419 388 l 2,6,7
 393 355 393 355 354 335 c 0,8,9
 293 305 293 305 196 329 c 0,10,11
 164 338 164 338 130 356 c 0,12,13
 87 379 87 379 67.5 393.5 c 128,-1,14
 48 408 48 408 31 430 c 0,15,16
 -3 472 -3 472 0 543 c 0,17,18
 3 607 3 607 25 666 c 128,-1,19
 47 725 47 725 81 759 c 0,20,21
 94 772 94 772 103 776.5 c 128,-1,22
 112 781 112 781 120 785 c 0,23,24
 160 808 160 808 217 796 c 0,25,26
 259 788 259 788 305 762 c 0,27,28
 347 739 347 739 379 713 c 0,29,30
 418 683 418 683 440 648 c 0,31,32
 442 645 442 645 443.5 643 c 128,-1,33
 445 641 445 641 446 640 c 128,-1,34
 447 639 447 639 447 639 c 1,35,36
 448 640 448 640 450.5 656.5 c 128,-1,37
 453 673 453 673 453 674 c 1,38,39
 453 674 453 674 473.5 664 c 128,-1,40
 494 654 494 654 499 650 c 1,41,42
 499 650 499 650 498 644 c 0,43,44
 493 615 493 615 486 557 c 0,45,46
 474 457 474 457 473 385 c 0,47,48
 472 342 472 342 479 327 c 0,49,50
 480 325 480 325 481 323 c 128,-1,51
 482 321 482 321 482.5 320 c 128,-1,52
 483 319 483 319 482 319 c 2,53,54
 482 319 482 319 475.5 322.5 c 128,-1,55
 469 326 469 326 469 326 c 2,56,57
 468 325 468 325 470 323.5 c 128,-1,58
 472 322 472 322 475 319.5 c 128,-1,59
 478 317 478 317 482 314 c 0,60,61
 495 304 495 304 495 303 c 1,62,-1
 481 309 l 2,0,1
262 349 m 0,63,64
 346 359 346 359 396 446 c 0,65,66
 425 495 425 495 430 547 c 0,67,68
 435 607 435 607 397 665 c 0,69,70
 382 688 382 688 358 711 c 0,71,72
 325 742 325 742 312 746 c 0,73,74
 308 748 308 748 299 752 c 0,75,76
 281 762 281 762 252 768 c 0,77,78
 218 774 218 774 188 766 c 0,79,80
 137 753 137 753 106 692 c 0,81,82
 88 655 88 655 90 624 c 2,83,-1
 90 614 l 1,84,-1
 83 618 l 2,85,86
 75 621 75 621 70 624 c 2,87,-1
 65 626 l 1,88,-1
 63 620 l 2,89,90
 53 591 53 591 48.5 554 c 128,-1,91
 44 517 44 517 46 491 c 0,92,93
 49 457 49 457 62 431 c 0,94,95
 70 416 70 416 83 402 c 0,96,97
 107 376 107 376 113 376 c 0,98,99
 114 376 114 376 129 369 c 0,100,101
 163 355 163 355 211 349 c 0,102,103
 218 348 218 348 235.5 348 c 128,-1,104
 253 348 253 348 262 349 c 0,63,64
EndSplineSet
EndChar

StartChar: Z
Encoding: 90 90 28
Width: 1000
GlyphClass: 1
Flags: W
LayerCount: 2
Fore
SplineSet
481 309 m 2,0,1
 455 321 455 321 440 336 c 0,2,3
 427 351 427 351 425 380 c 2,4,-1
 425 395 l 1,5,-1
 419 388 l 2,6,7
 393 355 393 355 354 335 c 0,8,9
 293 305 293 305 196 329 c 0,10,11
 164 338 164 338 130 356 c 0,12,13
 87 379 87 379 67.5 393.5 c 128,-1,14
 48 408 48 408 31 430 c 0,15,16
 -3 472 -3 472 0 543 c 0,17,18
 3 607 3 607 25 666 c 128,-1,19
 47 725 47 725 81 759 c 0,20,21
 94 772 94 772 103 776.5 c 128,-1,22
 112 781 112 781 120 785 c 0,23,24
 160 808 160 808 217 796 c 0,25,26
 259 788 259 788 305 762 c 0,27,28
 347 739 347 739 379 713 c 0,29,30
 418 683 418 683 440 648 c 0,31,32
 442 645 442 645 443.5 643 c 128,-1,33
 445 641 445 641 446 640 c 128,-1,34
 447 639 447 639 447 639 c 1,35,36
 448 640 448 640 450.5 656.5 c 128,-1,37
 453 673 453 673 453 674 c 1,38,39
 453 674 453 674 473.5 664 c 128,-1,40
 494 654 494 654 499 650 c 1,41,42
 499 650 499 650 498 644 c 0,43,44
 493 615 493 615 486 557 c 0,45,46
 474 457 474 457 473 385 c 0,47,48
 472 342 472 342 479 327 c 0,49,50
 480 325 480 325 481 323 c 128,-1,51
 482 321 482 321 482.5 320 c 128,-1,52
 483 319 483 319 482 319 c 2,53,54
 482 319 482 319 475.5 322.5 c 128,-1,55
 469 326 469 326 469 326 c 2,56,57
 468 325 468 325 470 323.5 c 128,-1,58
 472 322 472 322 475 319.5 c 128,-1,59
 478 317 478 317 482 314 c 0,60,61
 495 304 495 304 495 303 c 1,62,-1
 481 309 l 2,0,1
262 349 m 0,63,64
 346 359 346 359 396 446 c 0,65,66
 425 495 425 495 430 547 c 0,67,68
 435 607 435 607 397 665 c 0,69,70
 382 688 382 688 358 711 c 0,71,72
 325 742 325 742 312 746 c 0,73,74
 308 748 308 748 299 752 c 0,75,76
 281 762 281 762 252 768 c 0,77,78
 218 774 218 774 188 766 c 0,79,80
 137 753 137 753 106 692 c 0,81,82
 88 655 88 655 90 624 c 2,83,-1
 90 614 l 1,84,-1
 83 618 l 2,85,86
 75 621 75 621 70 624 c 2,87,-1
 65 626 l 1,88,-1
 63 620 l 2,89,90
 53 591 53 591 48.5 554 c 128,-1,91
 44 517 44 517 46 491 c 0,92,93
 49 457 49 457 62 431 c 0,94,95
 70 416 70 416 83 402 c 0,96,97
 107 376 107 376 113 376 c 0,98,99
 114 376 114 376 129 369 c 0,100,101
 163 355 163 355 211 349 c 0,102,103
 218 348 218 348 235.5 348 c 128,-1,104
 253 348 253 348 262 349 c 0,63,64
EndSplineSet
EndChar

StartChar: a
Encoding: 97 97 29
Width: 1000
GlyphClass: 1
Flags: W
LayerCount: 2
Fore
SplineSet
481 309 m 2,0,1
 455 321 455 321 440 336 c 0,2,3
 427 351 427 351 425 380 c 2,4,-1
 425 395 l 1,5,-1
 419 388 l 2,6,7
 393 355 393 355 354 335 c 0,8,9
 293 305 293 305 196 329 c 0,10,11
 164 338 164 338 130 356 c 0,12,13
 87 379 87 379 67.5 393.5 c 128,-1,14
 48 408 48 408 31 430 c 0,15,16
 -3 472 -3 472 0 543 c 0,17,18
 3 607 3 607 25 666 c 128,-1,19
 47 725 47 725 81 759 c 0,20,21
 94 772 94 772 103 776.5 c 128,-1,22
 112 781 112 781 120 785 c 0,23,24
 160 808 160 808 217 796 c 0,25,26
 259 788 259 788 305 762 c 0,27,28
 347 739 347 739 379 713 c 0,29,30
 418 683 418 683 440 648 c 0,31,32
 442 645 442 645 443.5 643 c 128,-1,33
 445 641 445 641 446 640 c 128,-1,34
 447 639 447 639 447 639 c 1,35,36
 448 640 448 640 450.5 656.5 c 128,-1,37
 453 673 453 673 453 674 c 1,38,39
 453 674 453 674 473.5 664 c 128,-1,40
 494 654 494 654 499 650 c 1,41,42
 499 650 499 650 498 644 c 0,43,44
 493 615 493 615 486 557 c 0,45,46
 474 457 474 457 473 385 c 0,47,48
 472 342 472 342 479 327 c 0,49,50
 480 325 480 325 481 323 c 128,-1,51
 482 321 482 321 482.5 320 c 128,-1,52
 483 319 483 319 482 319 c 2,53,54
 482 319 482 319 475.5 322.5 c 128,-1,55
 469 326 469 326 469 326 c 2,56,57
 468 325 468 325 470 323.5 c 128,-1,58
 472 322 472 322 475 319.5 c 128,-1,59
 478 317 478 317 482 314 c 0,60,61
 495 304 495 304 495 303 c 1,62,-1
 481 309 l 2,0,1
262 349 m 0,63,64
 346 359 346 359 396 446 c 0,65,66
 425 495 425 495 430 547 c 0,67,68
 435 607 435 607 397 665 c 0,69,70
 382 688 382 688 358 711 c 0,71,72
 325 742 325 742 312 746 c 0,73,74
 308 748 308 748 299 752 c 0,75,76
 281 762 281 762 252 768 c 0,77,78
 218 774 218 774 188 766 c 0,79,80
 137 753 137 753 106 692 c 0,81,82
 88 655 88 655 90 624 c 2,83,-1
 90 614 l 1,84,-1
 83 618 l 2,85,86
 75 621 75 621 70 624 c 2,87,-1
 65 626 l 1,88,-1
 63 620 l 2,89,90
 53 591 53 591 48.5 554 c 128,-1,91
 44 517 44 517 46 491 c 0,92,93
 49 457 49 457 62 431 c 0,94,95
 70 416 70 416 83 402 c 0,96,97
 107 376 107 376 113 376 c 0,98,99
 114 376 114 376 129 369 c 0,100,101
 163 355 163 355 211 349 c 0,102,103
 218 348 218 348 235.5 348 c 128,-1,104
 253 348 253 348 262 349 c 0,63,64
EndSplineSet
EndChar

StartChar: b
Encoding: 98 98 30
Width: 1000
GlyphClass: 1
Flags: W
LayerCount: 2
Fore
SplineSet
481 309 m 2,0,1
 455 321 455 321 440 336 c 0,2,3
 427 351 427 351 425 380 c 2,4,-1
 425 395 l 1,5,-1
 419 388 l 2,6,7
 393 355 393 355 354 335 c 0,8,9
 293 305 293 305 196 329 c 0,10,11
 164 338 164 338 130 356 c 0,12,13
 87 379 87 379 67.5 393.5 c 128,-1,14
 48 408 48 408 31 430 c 0,15,16
 -3 472 -3 472 0 543 c 0,17,18
 3 607 3 607 25 666 c 128,-1,19
 47 725 47 725 81 759 c 0,20,21
 94 772 94 772 103 776.5 c 128,-1,22
 112 781 112 781 120 785 c 0,23,24
 160 808 160 808 217 796 c 0,25,26
 259 788 259 788 305 762 c 0,27,28
 347 739 347 739 379 713 c 0,29,30
 418 683 418 683 440 648 c 0,31,32
 442 645 442 645 443.5 643 c 128,-1,33
 445 641 445 641 446 640 c 128,-1,34
 447 639 447 639 447 639 c 1,35,36
 448 640 448 640 450.5 656.5 c 128,-1,37
 453 673 453 673 453 674 c 1,38,39
 453 674 453 674 473.5 664 c 128,-1,40
 494 654 494 654 499 650 c 1,41,42
 499 650 499 650 498 644 c 0,43,44
 493 615 493 615 486 557 c 0,45,46
 474 457 474 457 473 385 c 0,47,48
 472 342 472 342 479 327 c 0,49,50
 480 325 480 325 481 323 c 128,-1,51
 482 321 482 321 482.5 320 c 128,-1,52
 483 319 483 319 482 319 c 2,53,54
 482 319 482 319 475.5 322.5 c 128,-1,55
 469 326 469 326 469 326 c 2,56,57
 468 325 468 325 470 323.5 c 128,-1,58
 472 322 472 322 475 319.5 c 128,-1,59
 478 317 478 317 482 314 c 0,60,61
 495 304 495 304 495 303 c 1,62,-1
 481 309 l 2,0,1
262 349 m 0,63,64
 346 359 346 359 396 446 c 0,65,66
 425 495 425 495 430 547 c 0,67,68
 435 607 435 607 397 665 c 0,69,70
 382 688 382 688 358 711 c 0,71,72
 325 742 325 742 312 746 c 0,73,74
 308 748 308 748 299 752 c 0,75,76
 281 762 281 762 252 768 c 0,77,78
 218 774 218 774 188 766 c 0,79,80
 137 753 137 753 106 692 c 0,81,82
 88 655 88 655 90 624 c 2,83,-1
 90 614 l 1,84,-1
 83 618 l 2,85,86
 75 621 75 621 70 624 c 2,87,-1
 65 626 l 1,88,-1
 63 620 l 2,89,90
 53 591 53 591 48.5 554 c 128,-1,91
 44 517 44 517 46 491 c 0,92,93
 49 457 49 457 62 431 c 0,94,95
 70 416 70 416 83 402 c 0,96,97
 107 376 107 376 113 376 c 0,98,99
 114 376 114 376 129 369 c 0,100,101
 163 355 163 355 211 349 c 0,102,103
 218 348 218 348 235.5 348 c 128,-1,104
 253 348 253 348 262 349 c 0,63,64
EndSplineSet
EndChar

StartChar: c
Encoding: 99 99 31
Width: 1000
GlyphClass: 1
Flags: W
LayerCount: 2
Fore
SplineSet
481 309 m 2,0,1
 455 321 455 321 440 336 c 0,2,3
 427 351 427 351 425 380 c 2,4,-1
 425 395 l 1,5,-1
 419 388 l 2,6,7
 393 355 393 355 354 335 c 0,8,9
 293 305 293 305 196 329 c 0,10,11
 164 338 164 338 130 356 c 0,12,13
 87 379 87 379 67.5 393.5 c 128,-1,14
 48 408 48 408 31 430 c 0,15,16
 -3 472 -3 472 0 543 c 0,17,18
 3 607 3 607 25 666 c 128,-1,19
 47 725 47 725 81 759 c 0,20,21
 94 772 94 772 103 776.5 c 128,-1,22
 112 781 112 781 120 785 c 0,23,24
 160 808 160 808 217 796 c 0,25,26
 259 788 259 788 305 762 c 0,27,28
 347 739 347 739 379 713 c 0,29,30
 418 683 418 683 440 648 c 0,31,32
 442 645 442 645 443.5 643 c 128,-1,33
 445 641 445 641 446 640 c 128,-1,34
 447 639 447 639 447 639 c 1,35,36
 448 640 448 640 450.5 656.5 c 128,-1,37
 453 673 453 673 453 674 c 1,38,39
 453 674 453 674 473.5 664 c 128,-1,40
 494 654 494 654 499 650 c 1,41,42
 499 650 499 650 498 644 c 0,43,44
 493 615 493 615 486 557 c 0,45,46
 474 457 474 457 473 385 c 0,47,48
 472 342 472 342 479 327 c 0,49,50
 480 325 480 325 481 323 c 128,-1,51
 482 321 482 321 482.5 320 c 128,-1,52
 483 319 483 319 482 319 c 2,53,54
 482 319 482 319 475.5 322.5 c 128,-1,55
 469 326 469 326 469 326 c 2,56,57
 468 325 468 325 470 323.5 c 128,-1,58
 472 322 472 322 475 319.5 c 128,-1,59
 478 317 478 317 482 314 c 0,60,61
 495 304 495 304 495 303 c 1,62,-1
 481 309 l 2,0,1
262 349 m 0,63,64
 346 359 346 359 396 446 c 0,65,66
 425 495 425 495 430 547 c 0,67,68
 435 607 435 607 397 665 c 0,69,70
 382 688 382 688 358 711 c 0,71,72
 325 742 325 742 312 746 c 0,73,74
 308 748 308 748 299 752 c 0,75,76
 281 762 281 762 252 768 c 0,77,78
 218 774 218 774 188 766 c 0,79,80
 137 753 137 753 106 692 c 0,81,82
 88 655 88 655 90 624 c 2,83,-1
 90 614 l 1,84,-1
 83 618 l 2,85,86
 75 621 75 621 70 624 c 2,87,-1
 65 626 l 1,88,-1
 63 620 l 2,89,90
 53 591 53 591 48.5 554 c 128,-1,91
 44 517 44 517 46 491 c 0,92,93
 49 457 49 457 62 431 c 0,94,95
 70 416 70 416 83 402 c 0,96,97
 107 376 107 376 113 376 c 0,98,99
 114 376 114 376 129 369 c 0,100,101
 163 355 163 355 211 349 c 0,102,103
 218 348 218 348 235.5 348 c 128,-1,104
 253 348 253 348 262 349 c 0,63,64
EndSplineSet
EndChar

StartChar: d
Encoding: 100 100 32
Width: 1000
GlyphClass: 1
Flags: W
LayerCount: 2
Fore
SplineSet
481 309 m 2,0,1
 455 321 455 321 440 336 c 0,2,3
 427 351 427 351 425 380 c 2,4,-1
 425 395 l 1,5,-1
 419 388 l 2,6,7
 393 355 393 355 354 335 c 0,8,9
 293 305 293 305 196 329 c 0,10,11
 164 338 164 338 130 356 c 0,12,13
 87 379 87 379 67.5 393.5 c 128,-1,14
 48 408 48 408 31 430 c 0,15,16
 -3 472 -3 472 0 543 c 0,17,18
 3 607 3 607 25 666 c 128,-1,19
 47 725 47 725 81 759 c 0,20,21
 94 772 94 772 103 776.5 c 128,-1,22
 112 781 112 781 120 785 c 0,23,24
 160 808 160 808 217 796 c 0,25,26
 259 788 259 788 305 762 c 0,27,28
 347 739 347 739 379 713 c 0,29,30
 418 683 418 683 440 648 c 0,31,32
 442 645 442 645 443.5 643 c 128,-1,33
 445 641 445 641 446 640 c 128,-1,34
 447 639 447 639 447 639 c 1,35,36
 448 640 448 640 450.5 656.5 c 128,-1,37
 453 673 453 673 453 674 c 1,38,39
 453 674 453 674 473.5 664 c 128,-1,40
 494 654 494 654 499 650 c 1,41,42
 499 650 499 650 498 644 c 0,43,44
 493 615 493 615 486 557 c 0,45,46
 474 457 474 457 473 385 c 0,47,48
 472 342 472 342 479 327 c 0,49,50
 480 325 480 325 481 323 c 128,-1,51
 482 321 482 321 482.5 320 c 128,-1,52
 483 319 483 319 482 319 c 2,53,54
 482 319 482 319 475.5 322.5 c 128,-1,55
 469 326 469 326 469 326 c 2,56,57
 468 325 468 325 470 323.5 c 128,-1,58
 472 322 472 322 475 319.5 c 128,-1,59
 478 317 478 317 482 314 c 0,60,61
 495 304 495 304 495 303 c 1,62,-1
 481 309 l 2,0,1
262 349 m 0,63,64
 346 359 346 359 396 446 c 0,65,66
 425 495 425 495 430 547 c 0,67,68
 435 607 435 607 397 665 c 0,69,70
 382 688 382 688 358 711 c 0,71,72
 325 742 325 742 312 746 c 0,73,74
 308 748 308 748 299 752 c 0,75,76
 281 762 281 762 252 768 c 0,77,78
 218 774 218 774 188 766 c 0,79,80
 137 753 137 753 106 692 c 0,81,82
 88 655 88 655 90 624 c 2,83,-1
 90 614 l 1,84,-1
 83 618 l 2,85,86
 75 621 75 621 70 624 c 2,87,-1
 65 626 l 1,88,-1
 63 620 l 2,89,90
 53 591 53 591 48.5 554 c 128,-1,91
 44 517 44 517 46 491 c 0,92,93
 49 457 49 457 62 431 c 0,94,95
 70 416 70 416 83 402 c 0,96,97
 107 376 107 376 113 376 c 0,98,99
 114 376 114 376 129 369 c 0,100,101
 163 355 163 355 211 349 c 0,102,103
 218 348 218 348 235.5 348 c 128,-1,104
 253 348 253 348 262 349 c 0,63,64
EndSplineSet
EndChar

StartChar: e
Encoding: 101 101 33
Width: 1000
GlyphClass: 1
Flags: W
LayerCount: 2
Fore
SplineSet
481 309 m 2,0,1
 455 321 455 321 440 336 c 0,2,3
 427 351 427 351 425 380 c 2,4,-1
 425 395 l 1,5,-1
 419 388 l 2,6,7
 393 355 393 355 354 335 c 0,8,9
 293 305 293 305 196 329 c 0,10,11
 164 338 164 338 130 356 c 0,12,13
 87 379 87 379 67.5 393.5 c 128,-1,14
 48 408 48 408 31 430 c 0,15,16
 -3 472 -3 472 0 543 c 0,17,18
 3 607 3 607 25 666 c 128,-1,19
 47 725 47 725 81 759 c 0,20,21
 94 772 94 772 103 776.5 c 128,-1,22
 112 781 112 781 120 785 c 0,23,24
 160 808 160 808 217 796 c 0,25,26
 259 788 259 788 305 762 c 0,27,28
 347 739 347 739 379 713 c 0,29,30
 418 683 418 683 440 648 c 0,31,32
 442 645 442 645 443.5 643 c 128,-1,33
 445 641 445 641 446 640 c 128,-1,34
 447 639 447 639 447 639 c 1,35,36
 448 640 448 640 450.5 656.5 c 128,-1,37
 453 673 453 673 453 674 c 1,38,39
 453 674 453 674 473.5 664 c 128,-1,40
 494 654 494 654 499 650 c 1,41,42
 499 650 499 650 498 644 c 0,43,44
 493 615 493 615 486 557 c 0,45,46
 474 457 474 457 473 385 c 0,47,48
 472 342 472 342 479 327 c 0,49,50
 480 325 480 325 481 323 c 128,-1,51
 482 321 482 321 482.5 320 c 128,-1,52
 483 319 483 319 482 319 c 2,53,54
 482 319 482 319 475.5 322.5 c 128,-1,55
 469 326 469 326 469 326 c 2,56,57
 468 325 468 325 470 323.5 c 128,-1,58
 472 322 472 322 475 319.5 c 128,-1,59
 478 317 478 317 482 314 c 0,60,61
 495 304 495 304 495 303 c 1,62,-1
 481 309 l 2,0,1
262 349 m 0,63,64
 346 359 346 359 396 446 c 0,65,66
 425 495 425 495 430 547 c 0,67,68
 435 607 435 607 397 665 c 0,69,70
 382 688 382 688 358 711 c 0,71,72
 325 742 325 742 312 746 c 0,73,74
 308 748 308 748 299 752 c 0,75,76
 281 762 281 762 252 768 c 0,77,78
 218 774 218 774 188 766 c 0,79,80
 137 753 137 753 106 692 c 0,81,82
 88 655 88 655 90 624 c 2,83,-1
 90 614 l 1,84,-1
 83 618 l 2,85,86
 75 621 75 621 70 624 c 2,87,-1
 65 626 l 1,88,-1
 63 620 l 2,89,90
 53 591 53 591 48.5 554 c 128,-1,91
 44 517 44 517 46 491 c 0,92,93
 49 457 49 457 62 431 c 0,94,95
 70 416 70 416 83 402 c 0,96,97
 107 376 107 376 113 376 c 0,98,99
 114 376 114 376 129 369 c 0,100,101
 163 355 163 355 211 349 c 0,102,103
 218 348 218 348 235.5 348 c 128,-1,104
 253 348 253 348 262 349 c 0,63,64
EndSplineSet
EndChar

StartChar: f
Encoding: 102 102 34
Width: 1000
GlyphClass: 1
Flags: W
LayerCount: 2
Fore
SplineSet
481 309 m 2,0,1
 455 321 455 321 440 336 c 0,2,3
 427 351 427 351 425 380 c 2,4,-1
 425 395 l 1,5,-1
 419 388 l 2,6,7
 393 355 393 355 354 335 c 0,8,9
 293 305 293 305 196 329 c 0,10,11
 164 338 164 338 130 356 c 0,12,13
 87 379 87 379 67.5 393.5 c 128,-1,14
 48 408 48 408 31 430 c 0,15,16
 -3 472 -3 472 0 543 c 0,17,18
 3 607 3 607 25 666 c 128,-1,19
 47 725 47 725 81 759 c 0,20,21
 94 772 94 772 103 776.5 c 128,-1,22
 112 781 112 781 120 785 c 0,23,24
 160 808 160 808 217 796 c 0,25,26
 259 788 259 788 305 762 c 0,27,28
 347 739 347 739 379 713 c 0,29,30
 418 683 418 683 440 648 c 0,31,32
 442 645 442 645 443.5 643 c 128,-1,33
 445 641 445 641 446 640 c 128,-1,34
 447 639 447 639 447 639 c 1,35,36
 448 640 448 640 450.5 656.5 c 128,-1,37
 453 673 453 673 453 674 c 1,38,39
 453 674 453 674 473.5 664 c 128,-1,40
 494 654 494 654 499 650 c 1,41,42
 499 650 499 650 498 644 c 0,43,44
 493 615 493 615 486 557 c 0,45,46
 474 457 474 457 473 385 c 0,47,48
 472 342 472 342 479 327 c 0,49,50
 480 325 480 325 481 323 c 128,-1,51
 482 321 482 321 482.5 320 c 128,-1,52
 483 319 483 319 482 319 c 2,53,54
 482 319 482 319 475.5 322.5 c 128,-1,55
 469 326 469 326 469 326 c 2,56,57
 468 325 468 325 470 323.5 c 128,-1,58
 472 322 472 322 475 319.5 c 128,-1,59
 478 317 478 317 482 314 c 0,60,61
 495 304 495 304 495 303 c 1,62,-1
 481 309 l 2,0,1
262 349 m 0,63,64
 346 359 346 359 396 446 c 0,65,66
 425 495 425 495 430 547 c 0,67,68
 435 607 435 607 397 665 c 0,69,70
 382 688 382 688 358 711 c 0,71,72
 325 742 325 742 312 746 c 0,73,74
 308 748 308 748 299 752 c 0,75,76
 281 762 281 762 252 768 c 0,77,78
 218 774 218 774 188 766 c 0,79,80
 137 753 137 753 106 692 c 0,81,82
 88 655 88 655 90 624 c 2,83,-1
 90 614 l 1,84,-1
 83 618 l 2,85,86
 75 621 75 621 70 624 c 2,87,-1
 65 626 l 1,88,-1
 63 620 l 2,89,90
 53 591 53 591 48.5 554 c 128,-1,91
 44 517 44 517 46 491 c 0,92,93
 49 457 49 457 62 431 c 0,94,95
 70 416 70 416 83 402 c 0,96,97
 107 376 107 376 113 376 c 0,98,99
 114 376 114 376 129 369 c 0,100,101
 163 355 163 355 211 349 c 0,102,103
 218 348 218 348 235.5 348 c 128,-1,104
 253 348 253 348 262 349 c 0,63,64
EndSplineSet
EndChar

StartChar: g
Encoding: 103 103 35
Width: 1000
GlyphClass: 1
Flags: W
LayerCount: 2
Fore
SplineSet
481 309 m 2,0,1
 455 321 455 321 440 336 c 0,2,3
 427 351 427 351 425 380 c 2,4,-1
 425 395 l 1,5,-1
 419 388 l 2,6,7
 393 355 393 355 354 335 c 0,8,9
 293 305 293 305 196 329 c 0,10,11
 164 338 164 338 130 356 c 0,12,13
 87 379 87 379 67.5 393.5 c 128,-1,14
 48 408 48 408 31 430 c 0,15,16
 -3 472 -3 472 0 543 c 0,17,18
 3 607 3 607 25 666 c 128,-1,19
 47 725 47 725 81 759 c 0,20,21
 94 772 94 772 103 776.5 c 128,-1,22
 112 781 112 781 120 785 c 0,23,24
 160 808 160 808 217 796 c 0,25,26
 259 788 259 788 305 762 c 0,27,28
 347 739 347 739 379 713 c 0,29,30
 418 683 418 683 440 648 c 0,31,32
 442 645 442 645 443.5 643 c 128,-1,33
 445 641 445 641 446 640 c 128,-1,34
 447 639 447 639 447 639 c 1,35,36
 448 640 448 640 450.5 656.5 c 128,-1,37
 453 673 453 673 453 674 c 1,38,39
 453 674 453 674 473.5 664 c 128,-1,40
 494 654 494 654 499 650 c 1,41,42
 499 650 499 650 498 644 c 0,43,44
 493 615 493 615 486 557 c 0,45,46
 474 457 474 457 473 385 c 0,47,48
 472 342 472 342 479 327 c 0,49,50
 480 325 480 325 481 323 c 128,-1,51
 482 321 482 321 482.5 320 c 128,-1,52
 483 319 483 319 482 319 c 2,53,54
 482 319 482 319 475.5 322.5 c 128,-1,55
 469 326 469 326 469 326 c 2,56,57
 468 325 468 325 470 323.5 c 128,-1,58
 472 322 472 322 475 319.5 c 128,-1,59
 478 317 478 317 482 314 c 0,60,61
 495 304 495 304 495 303 c 1,62,-1
 481 309 l 2,0,1
262 349 m 0,63,64
 346 359 346 359 396 446 c 0,65,66
 425 495 425 495 430 547 c 0,67,68
 435 607 435 607 397 665 c 0,69,70
 382 688 382 688 358 711 c 0,71,72
 325 742 325 742 312 746 c 0,73,74
 308 748 308 748 299 752 c 0,75,76
 281 762 281 762 252 768 c 0,77,78
 218 774 218 774 188 766 c 0,79,80
 137 753 137 753 106 692 c 0,81,82
 88 655 88 655 90 624 c 2,83,-1
 90 614 l 1,84,-1
 83 618 l 2,85,86
 75 621 75 621 70 624 c 2,87,-1
 65 626 l 1,88,-1
 63 620 l 2,89,90
 53 591 53 591 48.5 554 c 128,-1,91
 44 517 44 517 46 491 c 0,92,93
 49 457 49 457 62 431 c 0,94,95
 70 416 70 416 83 402 c 0,96,97
 107 376 107 376 113 376 c 0,98,99
 114 376 114 376 129 369 c 0,100,101
 163 355 163 355 211 349 c 0,102,103
 218 348 218 348 235.5 348 c 128,-1,104
 253 348 253 348 262 349 c 0,63,64
EndSplineSet
EndChar

StartChar: h
Encoding: 104 104 36
Width: 1000
GlyphClass: 1
Flags: W
LayerCount: 2
Fore
SplineSet
481 309 m 2,0,1
 455 321 455 321 440 336 c 0,2,3
 427 351 427 351 425 380 c 2,4,-1
 425 395 l 1,5,-1
 419 388 l 2,6,7
 393 355 393 355 354 335 c 0,8,9
 293 305 293 305 196 329 c 0,10,11
 164 338 164 338 130 356 c 0,12,13
 87 379 87 379 67.5 393.5 c 128,-1,14
 48 408 48 408 31 430 c 0,15,16
 -3 472 -3 472 0 543 c 0,17,18
 3 607 3 607 25 666 c 128,-1,19
 47 725 47 725 81 759 c 0,20,21
 94 772 94 772 103 776.5 c 128,-1,22
 112 781 112 781 120 785 c 0,23,24
 160 808 160 808 217 796 c 0,25,26
 259 788 259 788 305 762 c 0,27,28
 347 739 347 739 379 713 c 0,29,30
 418 683 418 683 440 648 c 0,31,32
 442 645 442 645 443.5 643 c 128,-1,33
 445 641 445 641 446 640 c 128,-1,34
 447 639 447 639 447 639 c 1,35,36
 448 640 448 640 450.5 656.5 c 128,-1,37
 453 673 453 673 453 674 c 1,38,39
 453 674 453 674 473.5 664 c 128,-1,40
 494 654 494 654 499 650 c 1,41,42
 499 650 499 650 498 644 c 0,43,44
 493 615 493 615 486 557 c 0,45,46
 474 457 474 457 473 385 c 0,47,48
 472 342 472 342 479 327 c 0,49,50
 480 325 480 325 481 323 c 128,-1,51
 482 321 482 321 482.5 320 c 128,-1,52
 483 319 483 319 482 319 c 2,53,54
 482 319 482 319 475.5 322.5 c 128,-1,55
 469 326 469 326 469 326 c 2,56,57
 468 325 468 325 470 323.5 c 128,-1,58
 472 322 472 322 475 319.5 c 128,-1,59
 478 317 478 317 482 314 c 0,60,61
 495 304 495 304 495 303 c 1,62,-1
 481 309 l 2,0,1
262 349 m 0,63,64
 346 359 346 359 396 446 c 0,65,66
 425 495 425 495 430 547 c 0,67,68
 435 607 435 607 397 665 c 0,69,70
 382 688 382 688 358 711 c 0,71,72
 325 742 325 742 312 746 c 0,73,74
 308 748 308 748 299 752 c 0,75,76
 281 762 281 762 252 768 c 0,77,78
 218 774 218 774 188 766 c 0,79,80
 137 753 137 753 106 692 c 0,81,82
 88 655 88 655 90 624 c 2,83,-1
 90 614 l 1,84,-1
 83 618 l 2,85,86
 75 621 75 621 70 624 c 2,87,-1
 65 626 l 1,88,-1
 63 620 l 2,89,90
 53 591 53 591 48.5 554 c 128,-1,91
 44 517 44 517 46 491 c 0,92,93
 49 457 49 457 62 431 c 0,94,95
 70 416 70 416 83 402 c 0,96,97
 107 376 107 376 113 376 c 0,98,99
 114 376 114 376 129 369 c 0,100,101
 163 355 163 355 211 349 c 0,102,103
 218 348 218 348 235.5 348 c 128,-1,104
 253 348 253 348 262 349 c 0,63,64
EndSplineSet
EndChar

StartChar: i
Encoding: 105 105 37
Width: 1000
GlyphClass: 1
Flags: W
LayerCount: 2
Fore
SplineSet
481 309 m 2,0,1
 455 321 455 321 440 336 c 0,2,3
 427 351 427 351 425 380 c 2,4,-1
 425 395 l 1,5,-1
 419 388 l 2,6,7
 393 355 393 355 354 335 c 0,8,9
 293 305 293 305 196 329 c 0,10,11
 164 338 164 338 130 356 c 0,12,13
 87 379 87 379 67.5 393.5 c 128,-1,14
 48 408 48 408 31 430 c 0,15,16
 -3 472 -3 472 0 543 c 0,17,18
 3 607 3 607 25 666 c 128,-1,19
 47 725 47 725 81 759 c 0,20,21
 94 772 94 772 103 776.5 c 128,-1,22
 112 781 112 781 120 785 c 0,23,24
 160 808 160 808 217 796 c 0,25,26
 259 788 259 788 305 762 c 0,27,28
 347 739 347 739 379 713 c 0,29,30
 418 683 418 683 440 648 c 0,31,32
 442 645 442 645 443.5 643 c 128,-1,33
 445 641 445 641 446 640 c 128,-1,34
 447 639 447 639 447 639 c 1,35,36
 448 640 448 640 450.5 656.5 c 128,-1,37
 453 673 453 673 453 674 c 1,38,39
 453 674 453 674 473.5 664 c 128,-1,40
 494 654 494 654 499 650 c 1,41,42
 499 650 499 650 498 644 c 0,43,44
 493 615 493 615 486 557 c 0,45,46
 474 457 474 457 473 385 c 0,47,48
 472 342 472 342 479 327 c 0,49,50
 480 325 480 325 481 323 c 128,-1,51
 482 321 482 321 482.5 320 c 128,-1,52
 483 319 483 319 482 319 c 2,53,54
 482 319 482 319 475.5 322.5 c 128,-1,55
 469 326 469 326 469 326 c 2,56,57
 468 325 468 325 470 323.5 c 128,-1,58
 472 322 472 322 475 319.5 c 128,-1,59
 478 317 478 317 482 314 c 0,60,61
 495 304 495 304 495 303 c 1,62,-1
 481 309 l 2,0,1
262 349 m 0,63,64
 346 359 346 359 396 446 c 0,65,66
 425 495 425 495 430 547 c 0,67,68
 435 607 435 607 397 665 c 0,69,70
 382 688 382 688 358 711 c 0,71,72
 325 742 325 742 312 746 c 0,73,74
 308 748 308 748 299 752 c 0,75,76
 281 762 281 762 252 768 c 0,77,78
 218 774 218 774 188 766 c 0,79,80
 137 753 137 753 106 692 c 0,81,82
 88 655 88 655 90 624 c 2,83,-1
 90 614 l 1,84,-1
 83 618 l 2,85,86
 75 621 75 621 70 624 c 2,87,-1
 65 626 l 1,88,-1
 63 620 l 2,89,90
 53 591 53 591 48.5 554 c 128,-1,91
 44 517 44 517 46 491 c 0,92,93
 49 457 49 457 62 431 c 0,94,95
 70 416 70 416 83 402 c 0,96,97
 107 376 107 376 113 376 c 0,98,99
 114 376 114 376 129 369 c 0,100,101
 163 355 163 355 211 349 c 0,102,103
 218 348 218 348 235.5 348 c 128,-1,104
 253 348 253 348 262 349 c 0,63,64
EndSplineSet
EndChar

StartChar: j
Encoding: 106 106 38
Width: 1000
GlyphClass: 1
Flags: W
LayerCount: 2
Fore
SplineSet
481 309 m 2,0,1
 455 321 455 321 440 336 c 0,2,3
 427 351 427 351 425 380 c 2,4,-1
 425 395 l 1,5,-1
 419 388 l 2,6,7
 393 355 393 355 354 335 c 0,8,9
 293 305 293 305 196 329 c 0,10,11
 164 338 164 338 130 356 c 0,12,13
 87 379 87 379 67.5 393.5 c 128,-1,14
 48 408 48 408 31 430 c 0,15,16
 -3 472 -3 472 0 543 c 0,17,18
 3 607 3 607 25 666 c 128,-1,19
 47 725 47 725 81 759 c 0,20,21
 94 772 94 772 103 776.5 c 128,-1,22
 112 781 112 781 120 785 c 0,23,24
 160 808 160 808 217 796 c 0,25,26
 259 788 259 788 305 762 c 0,27,28
 347 739 347 739 379 713 c 0,29,30
 418 683 418 683 440 648 c 0,31,32
 442 645 442 645 443.5 643 c 128,-1,33
 445 641 445 641 446 640 c 128,-1,34
 447 639 447 639 447 639 c 1,35,36
 448 640 448 640 450.5 656.5 c 128,-1,37
 453 673 453 673 453 674 c 1,38,39
 453 674 453 674 473.5 664 c 128,-1,40
 494 654 494 654 499 650 c 1,41,42
 499 650 499 650 498 644 c 0,43,44
 493 615 493 615 486 557 c 0,45,46
 474 457 474 457 473 385 c 0,47,48
 472 342 472 342 479 327 c 0,49,50
 480 325 480 325 481 323 c 128,-1,51
 482 321 482 321 482.5 320 c 128,-1,52
 483 319 483 319 482 319 c 2,53,54
 482 319 482 319 475.5 322.5 c 128,-1,55
 469 326 469 326 469 326 c 2,56,57
 468 325 468 325 470 323.5 c 128,-1,58
 472 322 472 322 475 319.5 c 128,-1,59
 478 317 478 317 482 314 c 0,60,61
 495 304 495 304 495 303 c 1,62,-1
 481 309 l 2,0,1
262 349 m 0,63,64
 346 359 346 359 396 446 c 0,65,66
 425 495 425 495 430 547 c 0,67,68
 435 607 435 607 397 665 c 0,69,70
 382 688 382 688 358 711 c 0,71,72
 325 742 325 742 312 746 c 0,73,74
 308 748 308 748 299 752 c 0,75,76
 281 762 281 762 252 768 c 0,77,78
 218 774 218 774 188 766 c 0,79,80
 137 753 137 753 106 692 c 0,81,82
 88 655 88 655 90 624 c 2,83,-1
 90 614 l 1,84,-1
 83 618 l 2,85,86
 75 621 75 621 70 624 c 2,87,-1
 65 626 l 1,88,-1
 63 620 l 2,89,90
 53 591 53 591 48.5 554 c 128,-1,91
 44 517 44 517 46 491 c 0,92,93
 49 457 49 457 62 431 c 0,94,95
 70 416 70 416 83 402 c 0,96,97
 107 376 107 376 113 376 c 0,98,99
 114 376 114 376 129 369 c 0,100,101
 163 355 163 355 211 349 c 0,102,103
 218 348 218 348 235.5 348 c 128,-1,104
 253 348 253 348 262 349 c 0,63,64
EndSplineSet
EndChar

StartChar: k
Encoding: 107 107 39
Width: 1000
GlyphClass: 1
Flags: W
LayerCount: 2
Fore
SplineSet
481 309 m 2,0,1
 455 321 455 321 440 336 c 0,2,3
 427 351 427 351 425 380 c 2,4,-1
 425 395 l 1,5,-1
 419 388 l 2,6,7
 393 355 393 355 354 335 c 0,8,9
 293 305 293 305 196 329 c 0,10,11
 164 338 164 338 130 356 c 0,12,13
 87 379 87 379 67.5 393.5 c 128,-1,14
 48 408 48 408 31 430 c 0,15,16
 -3 472 -3 472 0 543 c 0,17,18
 3 607 3 607 25 666 c 128,-1,19
 47 725 47 725 81 759 c 0,20,21
 94 772 94 772 103 776.5 c 128,-1,22
 112 781 112 781 120 785 c 0,23,24
 160 808 160 808 217 796 c 0,25,26
 259 788 259 788 305 762 c 0,27,28
 347 739 347 739 379 713 c 0,29,30
 418 683 418 683 440 648 c 0,31,32
 442 645 442 645 443.5 643 c 128,-1,33
 445 641 445 641 446 640 c 128,-1,34
 447 639 447 639 447 639 c 1,35,36
 448 640 448 640 450.5 656.5 c 128,-1,37
 453 673 453 673 453 674 c 1,38,39
 453 674 453 674 473.5 664 c 128,-1,40
 494 654 494 654 499 650 c 1,41,42
 499 650 499 650 498 644 c 0,43,44
 493 615 493 615 486 557 c 0,45,46
 474 457 474 457 473 385 c 0,47,48
 472 342 472 342 479 327 c 0,49,50
 480 325 480 325 481 323 c 128,-1,51
 482 321 482 321 482.5 320 c 128,-1,52
 483 319 483 319 482 319 c 2,53,54
 482 319 482 319 475.5 322.5 c 128,-1,55
 469 326 469 326 469 326 c 2,56,57
 468 325 468 325 470 323.5 c 128,-1,58
 472 322 472 322 475 319.5 c 128,-1,59
 478 317 478 317 482 314 c 0,60,61
 495 304 495 304 495 303 c 1,62,-1
 481 309 l 2,0,1
262 349 m 0,63,64
 346 359 346 359 396 446 c 0,65,66
 425 495 425 495 430 547 c 0,67,68
 435 607 435 607 397 665 c 0,69,70
 382 688 382 688 358 711 c 0,71,72
 325 742 325 742 312 746 c 0,73,74
 308 748 308 748 299 752 c 0,75,76
 281 762 281 762 252 768 c 0,77,78
 218 774 218 774 188 766 c 0,79,80
 137 753 137 753 106 692 c 0,81,82
 88 655 88 655 90 624 c 2,83,-1
 90 614 l 1,84,-1
 83 618 l 2,85,86
 75 621 75 621 70 624 c 2,87,-1
 65 626 l 1,88,-1
 63 620 l 2,89,90
 53 591 53 591 48.5 554 c 128,-1,91
 44 517 44 517 46 491 c 0,92,93
 49 457 49 457 62 431 c 0,94,95
 70 416 70 416 83 402 c 0,96,97
 107 376 107 376 113 376 c 0,98,99
 114 376 114 376 129 369 c 0,100,101
 163 355 163 355 211 349 c 0,102,103
 218 348 218 348 235.5 348 c 128,-1,104
 253 348 253 348 262 349 c 0,63,64
EndSplineSet
EndChar

StartChar: l
Encoding: 108 108 40
Width: 1000
GlyphClass: 1
Flags: W
LayerCount: 2
Fore
SplineSet
481 309 m 2,0,1
 455 321 455 321 440 336 c 0,2,3
 427 351 427 351 425 380 c 2,4,-1
 425 395 l 1,5,-1
 419 388 l 2,6,7
 393 355 393 355 354 335 c 0,8,9
 293 305 293 305 196 329 c 0,10,11
 164 338 164 338 130 356 c 0,12,13
 87 379 87 379 67.5 393.5 c 128,-1,14
 48 408 48 408 31 430 c 0,15,16
 -3 472 -3 472 0 543 c 0,17,18
 3 607 3 607 25 666 c 128,-1,19
 47 725 47 725 81 759 c 0,20,21
 94 772 94 772 103 776.5 c 128,-1,22
 112 781 112 781 120 785 c 0,23,24
 160 808 160 808 217 796 c 0,25,26
 259 788 259 788 305 762 c 0,27,28
 347 739 347 739 379 713 c 0,29,30
 418 683 418 683 440 648 c 0,31,32
 442 645 442 645 443.5 643 c 128,-1,33
 445 641 445 641 446 640 c 128,-1,34
 447 639 447 639 447 639 c 1,35,36
 448 640 448 640 450.5 656.5 c 128,-1,37
 453 673 453 673 453 674 c 1,38,39
 453 674 453 674 473.5 664 c 128,-1,40
 494 654 494 654 499 650 c 1,41,42
 499 650 499 650 498 644 c 0,43,44
 493 615 493 615 486 557 c 0,45,46
 474 457 474 457 473 385 c 0,47,48
 472 342 472 342 479 327 c 0,49,50
 480 325 480 325 481 323 c 128,-1,51
 482 321 482 321 482.5 320 c 128,-1,52
 483 319 483 319 482 319 c 2,53,54
 482 319 482 319 475.5 322.5 c 128,-1,55
 469 326 469 326 469 326 c 2,56,57
 468 325 468 325 470 323.5 c 128,-1,58
 472 322 472 322 475 319.5 c 128,-1,59
 478 317 478 317 482 314 c 0,60,61
 495 304 495 304 495 303 c 1,62,-1
 481 309 l 2,0,1
262 349 m 0,63,64
 346 359 346 359 396 446 c 0,65,66
 425 495 425 495 430 547 c 0,67,68
 435 607 435 607 397 665 c 0,69,70
 382 688 382 688 358 711 c 0,71,72
 325 742 325 742 312 746 c 0,73,74
 308 748 308 748 299 752 c 0,75,76
 281 762 281 762 252 768 c 0,77,78
 218 774 218 774 188 766 c 0,79,80
 137 753 137 753 106 692 c 0,81,82
 88 655 88 655 90 624 c 2,83,-1
 90 614 l 1,84,-1
 83 618 l 2,85,86
 75 621 75 621 70 624 c 2,87,-1
 65 626 l 1,88,-1
 63 620 l 2,89,90
 53 591 53 591 48.5 554 c 128,-1,91
 44 517 44 517 46 491 c 0,92,93
 49 457 49 457 62 431 c 0,94,95
 70 416 70 416 83 402 c 0,96,97
 107 376 107 376 113 376 c 0,98,99
 114 376 114 376 129 369 c 0,100,101
 163 355 163 355 211 349 c 0,102,103
 218 348 218 348 235.5 348 c 128,-1,104
 253 348 253 348 262 349 c 0,63,64
EndSplineSet
EndChar

StartChar: m
Encoding: 109 109 41
Width: 1000
GlyphClass: 1
Flags: W
LayerCount: 2
Fore
SplineSet
481 309 m 2,0,1
 455 321 455 321 440 336 c 0,2,3
 427 351 427 351 425 380 c 2,4,-1
 425 395 l 1,5,-1
 419 388 l 2,6,7
 393 355 393 355 354 335 c 0,8,9
 293 305 293 305 196 329 c 0,10,11
 164 338 164 338 130 356 c 0,12,13
 87 379 87 379 67.5 393.5 c 128,-1,14
 48 408 48 408 31 430 c 0,15,16
 -3 472 -3 472 0 543 c 0,17,18
 3 607 3 607 25 666 c 128,-1,19
 47 725 47 725 81 759 c 0,20,21
 94 772 94 772 103 776.5 c 128,-1,22
 112 781 112 781 120 785 c 0,23,24
 160 808 160 808 217 796 c 0,25,26
 259 788 259 788 305 762 c 0,27,28
 347 739 347 739 379 713 c 0,29,30
 418 683 418 683 440 648 c 0,31,32
 442 645 442 645 443.5 643 c 128,-1,33
 445 641 445 641 446 640 c 128,-1,34
 447 639 447 639 447 639 c 1,35,36
 448 640 448 640 450.5 656.5 c 128,-1,37
 453 673 453 673 453 674 c 1,38,39
 453 674 453 674 473.5 664 c 128,-1,40
 494 654 494 654 499 650 c 1,41,42
 499 650 499 650 498 644 c 0,43,44
 493 615 493 615 486 557 c 0,45,46
 474 457 474 457 473 385 c 0,47,48
 472 342 472 342 479 327 c 0,49,50
 480 325 480 325 481 323 c 128,-1,51
 482 321 482 321 482.5 320 c 128,-1,52
 483 319 483 319 482 319 c 2,53,54
 482 319 482 319 475.5 322.5 c 128,-1,55
 469 326 469 326 469 326 c 2,56,57
 468 325 468 325 470 323.5 c 128,-1,58
 472 322 472 322 475 319.5 c 128,-1,59
 478 317 478 317 482 314 c 0,60,61
 495 304 495 304 495 303 c 1,62,-1
 481 309 l 2,0,1
262 349 m 0,63,64
 346 359 346 359 396 446 c 0,65,66
 425 495 425 495 430 547 c 0,67,68
 435 607 435 607 397 665 c 0,69,70
 382 688 382 688 358 711 c 0,71,72
 325 742 325 742 312 746 c 0,73,74
 308 748 308 748 299 752 c 0,75,76
 281 762 281 762 252 768 c 0,77,78
 218 774 218 774 188 766 c 0,79,80
 137 753 137 753 106 692 c 0,81,82
 88 655 88 655 90 624 c 2,83,-1
 90 614 l 1,84,-1
 83 618 l 2,85,86
 75 621 75 621 70 624 c 2,87,-1
 65 626 l 1,88,-1
 63 620 l 2,89,90
 53 591 53 591 48.5 554 c 128,-1,91
 44 517 44 517 46 491 c 0,92,93
 49 457 49 457 62 431 c 0,94,95
 70 416 70 416 83 402 c 0,96,97
 107 376 107 376 113 376 c 0,98,99
 114 376 114 376 129 369 c 0,100,101
 163 355 163 355 211 349 c 0,102,103
 218 348 218 348 235.5 348 c 128,-1,104
 253 348 253 348 262 349 c 0,63,64
EndSplineSet
EndChar

StartChar: n
Encoding: 110 110 42
Width: 1000
GlyphClass: 1
Flags: W
LayerCount: 2
Fore
SplineSet
481 309 m 2,0,1
 455 321 455 321 440 336 c 0,2,3
 427 351 427 351 425 380 c 2,4,-1
 425 395 l 1,5,-1
 419 388 l 2,6,7
 393 355 393 355 354 335 c 0,8,9
 293 305 293 305 196 329 c 0,10,11
 164 338 164 338 130 356 c 0,12,13
 87 379 87 379 67.5 393.5 c 128,-1,14
 48 408 48 408 31 430 c 0,15,16
 -3 472 -3 472 0 543 c 0,17,18
 3 607 3 607 25 666 c 128,-1,19
 47 725 47 725 81 759 c 0,20,21
 94 772 94 772 103 776.5 c 128,-1,22
 112 781 112 781 120 785 c 0,23,24
 160 808 160 808 217 796 c 0,25,26
 259 788 259 788 305 762 c 0,27,28
 347 739 347 739 379 713 c 0,29,30
 418 683 418 683 440 648 c 0,31,32
 442 645 442 645 443.5 643 c 128,-1,33
 445 641 445 641 446 640 c 128,-1,34
 447 639 447 639 447 639 c 1,35,36
 448 640 448 640 450.5 656.5 c 128,-1,37
 453 673 453 673 453 674 c 1,38,39
 453 674 453 674 473.5 664 c 128,-1,40
 494 654 494 654 499 650 c 1,41,42
 499 650 499 650 498 644 c 0,43,44
 493 615 493 615 486 557 c 0,45,46
 474 457 474 457 473 385 c 0,47,48
 472 342 472 342 479 327 c 0,49,50
 480 325 480 325 481 323 c 128,-1,51
 482 321 482 321 482.5 320 c 128,-1,52
 483 319 483 319 482 319 c 2,53,54
 482 319 482 319 475.5 322.5 c 128,-1,55
 469 326 469 326 469 326 c 2,56,57
 468 325 468 325 470 323.5 c 128,-1,58
 472 322 472 322 475 319.5 c 128,-1,59
 478 317 478 317 482 314 c 0,60,61
 495 304 495 304 495 303 c 1,62,-1
 481 309 l 2,0,1
262 349 m 0,63,64
 346 359 346 359 396 446 c 0,65,66
 425 495 425 495 430 547 c 0,67,68
 435 607 435 607 397 665 c 0,69,70
 382 688 382 688 358 711 c 0,71,72
 325 742 325 742 312 746 c 0,73,74
 308 748 308 748 299 752 c 0,75,76
 281 762 281 762 252 768 c 0,77,78
 218 774 218 774 188 766 c 0,79,80
 137 753 137 753 106 692 c 0,81,82
 88 655 88 655 90 624 c 2,83,-1
 90 614 l 1,84,-1
 83 618 l 2,85,86
 75 621 75 621 70 624 c 2,87,-1
 65 626 l 1,88,-1
 63 620 l 2,89,90
 53 591 53 591 48.5 554 c 128,-1,91
 44 517 44 517 46 491 c 0,92,93
 49 457 49 457 62 431 c 0,94,95
 70 416 70 416 83 402 c 0,96,97
 107 376 107 376 113 376 c 0,98,99
 114 376 114 376 129 369 c 0,100,101
 163 355 163 355 211 349 c 0,102,103
 218 348 218 348 235.5 348 c 128,-1,104
 253 348 253 348 262 349 c 0,63,64
EndSplineSet
EndChar

StartChar: o
Encoding: 111 111 43
Width: 1000
GlyphClass: 1
Flags: W
LayerCount: 2
Fore
SplineSet
481 309 m 2,0,1
 455 321 455 321 440 336 c 0,2,3
 427 351 427 351 425 380 c 2,4,-1
 425 395 l 1,5,-1
 419 388 l 2,6,7
 393 355 393 355 354 335 c 0,8,9
 293 305 293 305 196 329 c 0,10,11
 164 338 164 338 130 356 c 0,12,13
 87 379 87 379 67.5 393.5 c 128,-1,14
 48 408 48 408 31 430 c 0,15,16
 -3 472 -3 472 0 543 c 0,17,18
 3 607 3 607 25 666 c 128,-1,19
 47 725 47 725 81 759 c 0,20,21
 94 772 94 772 103 776.5 c 128,-1,22
 112 781 112 781 120 785 c 0,23,24
 160 808 160 808 217 796 c 0,25,26
 259 788 259 788 305 762 c 0,27,28
 347 739 347 739 379 713 c 0,29,30
 418 683 418 683 440 648 c 0,31,32
 442 645 442 645 443.5 643 c 128,-1,33
 445 641 445 641 446 640 c 128,-1,34
 447 639 447 639 447 639 c 1,35,36
 448 640 448 640 450.5 656.5 c 128,-1,37
 453 673 453 673 453 674 c 1,38,39
 453 674 453 674 473.5 664 c 128,-1,40
 494 654 494 654 499 650 c 1,41,42
 499 650 499 650 498 644 c 0,43,44
 493 615 493 615 486 557 c 0,45,46
 474 457 474 457 473 385 c 0,47,48
 472 342 472 342 479 327 c 0,49,50
 480 325 480 325 481 323 c 128,-1,51
 482 321 482 321 482.5 320 c 128,-1,52
 483 319 483 319 482 319 c 2,53,54
 482 319 482 319 475.5 322.5 c 128,-1,55
 469 326 469 326 469 326 c 2,56,57
 468 325 468 325 470 323.5 c 128,-1,58
 472 322 472 322 475 319.5 c 128,-1,59
 478 317 478 317 482 314 c 0,60,61
 495 304 495 304 495 303 c 1,62,-1
 481 309 l 2,0,1
262 349 m 0,63,64
 346 359 346 359 396 446 c 0,65,66
 425 495 425 495 430 547 c 0,67,68
 435 607 435 607 397 665 c 0,69,70
 382 688 382 688 358 711 c 0,71,72
 325 742 325 742 312 746 c 0,73,74
 308 748 308 748 299 752 c 0,75,76
 281 762 281 762 252 768 c 0,77,78
 218 774 218 774 188 766 c 0,79,80
 137 753 137 753 106 692 c 0,81,82
 88 655 88 655 90 624 c 2,83,-1
 90 614 l 1,84,-1
 83 618 l 2,85,86
 75 621 75 621 70 624 c 2,87,-1
 65 626 l 1,88,-1
 63 620 l 2,89,90
 53 591 53 591 48.5 554 c 128,-1,91
 44 517 44 517 46 491 c 0,92,93
 49 457 49 457 62 431 c 0,94,95
 70 416 70 416 83 402 c 0,96,97
 107 376 107 376 113 376 c 0,98,99
 114 376 114 376 129 369 c 0,100,101
 163 355 163 355 211 349 c 0,102,103
 218 348 218 348 235.5 348 c 128,-1,104
 253 348 253 348 262 349 c 0,63,64
EndSplineSet
EndChar

StartChar: p
Encoding: 112 112 44
Width: 1000
GlyphClass: 1
Flags: W
LayerCount: 2
Fore
SplineSet
481 309 m 2,0,1
 455 321 455 321 440 336 c 0,2,3
 427 351 427 351 425 380 c 2,4,-1
 425 395 l 1,5,-1
 419 388 l 2,6,7
 393 355 393 355 354 335 c 0,8,9
 293 305 293 305 196 329 c 0,10,11
 164 338 164 338 130 356 c 0,12,13
 87 379 87 379 67.5 393.5 c 128,-1,14
 48 408 48 408 31 430 c 0,15,16
 -3 472 -3 472 0 543 c 0,17,18
 3 607 3 607 25 666 c 128,-1,19
 47 725 47 725 81 759 c 0,20,21
 94 772 94 772 103 776.5 c 128,-1,22
 112 781 112 781 120 785 c 0,23,24
 160 808 160 808 217 796 c 0,25,26
 259 788 259 788 305 762 c 0,27,28
 347 739 347 739 379 713 c 0,29,30
 418 683 418 683 440 648 c 0,31,32
 442 645 442 645 443.5 643 c 128,-1,33
 445 641 445 641 446 640 c 128,-1,34
 447 639 447 639 447 639 c 1,35,36
 448 640 448 640 450.5 656.5 c 128,-1,37
 453 673 453 673 453 674 c 1,38,39
 453 674 453 674 473.5 664 c 128,-1,40
 494 654 494 654 499 650 c 1,41,42
 499 650 499 650 498 644 c 0,43,44
 493 615 493 615 486 557 c 0,45,46
 474 457 474 457 473 385 c 0,47,48
 472 342 472 342 479 327 c 0,49,50
 480 325 480 325 481 323 c 128,-1,51
 482 321 482 321 482.5 320 c 128,-1,52
 483 319 483 319 482 319 c 2,53,54
 482 319 482 319 475.5 322.5 c 128,-1,55
 469 326 469 326 469 326 c 2,56,57
 468 325 468 325 470 323.5 c 128,-1,58
 472 322 472 322 475 319.5 c 128,-1,59
 478 317 478 317 482 314 c 0,60,61
 495 304 495 304 495 303 c 1,62,-1
 481 309 l 2,0,1
262 349 m 0,63,64
 346 359 346 359 396 446 c 0,65,66
 425 495 425 495 430 547 c 0,67,68
 435 607 435 607 397 665 c 0,69,70
 382 688 382 688 358 711 c 0,71,72
 325 742 325 742 312 746 c 0,73,74
 308 748 308 748 299 752 c 0,75,76
 281 762 281 762 252 768 c 0,77,78
 218 774 218 774 188 766 c 0,79,80
 137 753 137 753 106 692 c 0,81,82
 88 655 88 655 90 624 c 2,83,-1
 90 614 l 1,84,-1
 83 618 l 2,85,86
 75 621 75 621 70 624 c 2,87,-1
 65 626 l 1,88,-1
 63 620 l 2,89,90
 53 591 53 591 48.5 554 c 128,-1,91
 44 517 44 517 46 491 c 0,92,93
 49 457 49 457 62 431 c 0,94,95
 70 416 70 416 83 402 c 0,96,97
 107 376 107 376 113 376 c 0,98,99
 114 376 114 376 129 369 c 0,100,101
 163 355 163 355 211 349 c 0,102,103
 218 348 218 348 235.5 348 c 128,-1,104
 253 348 253 348 262 349 c 0,63,64
EndSplineSet
EndChar

StartChar: q
Encoding: 113 113 45
Width: 1000
GlyphClass: 1
Flags: W
LayerCount: 2
Fore
SplineSet
481 309 m 2,0,1
 455 321 455 321 440 336 c 0,2,3
 427 351 427 351 425 380 c 2,4,-1
 425 395 l 1,5,-1
 419 388 l 2,6,7
 393 355 393 355 354 335 c 0,8,9
 293 305 293 305 196 329 c 0,10,11
 164 338 164 338 130 356 c 0,12,13
 87 379 87 379 67.5 393.5 c 128,-1,14
 48 408 48 408 31 430 c 0,15,16
 -3 472 -3 472 0 543 c 0,17,18
 3 607 3 607 25 666 c 128,-1,19
 47 725 47 725 81 759 c 0,20,21
 94 772 94 772 103 776.5 c 128,-1,22
 112 781 112 781 120 785 c 0,23,24
 160 808 160 808 217 796 c 0,25,26
 259 788 259 788 305 762 c 0,27,28
 347 739 347 739 379 713 c 0,29,30
 418 683 418 683 440 648 c 0,31,32
 442 645 442 645 443.5 643 c 128,-1,33
 445 641 445 641 446 640 c 128,-1,34
 447 639 447 639 447 639 c 1,35,36
 448 640 448 640 450.5 656.5 c 128,-1,37
 453 673 453 673 453 674 c 1,38,39
 453 674 453 674 473.5 664 c 128,-1,40
 494 654 494 654 499 650 c 1,41,42
 499 650 499 650 498 644 c 0,43,44
 493 615 493 615 486 557 c 0,45,46
 474 457 474 457 473 385 c 0,47,48
 472 342 472 342 479 327 c 0,49,50
 480 325 480 325 481 323 c 128,-1,51
 482 321 482 321 482.5 320 c 128,-1,52
 483 319 483 319 482 319 c 2,53,54
 482 319 482 319 475.5 322.5 c 128,-1,55
 469 326 469 326 469 326 c 2,56,57
 468 325 468 325 470 323.5 c 128,-1,58
 472 322 472 322 475 319.5 c 128,-1,59
 478 317 478 317 482 314 c 0,60,61
 495 304 495 304 495 303 c 1,62,-1
 481 309 l 2,0,1
262 349 m 0,63,64
 346 359 346 359 396 446 c 0,65,66
 425 495 425 495 430 547 c 0,67,68
 435 607 435 607 397 665 c 0,69,70
 382 688 382 688 358 711 c 0,71,72
 325 742 325 742 312 746 c 0,73,74
 308 748 308 748 299 752 c 0,75,76
 281 762 281 762 252 768 c 0,77,78
 218 774 218 774 188 766 c 0,79,80
 137 753 137 753 106 692 c 0,81,82
 88 655 88 655 90 624 c 2,83,-1
 90 614 l 1,84,-1
 83 618 l 2,85,86
 75 621 75 621 70 624 c 2,87,-1
 65 626 l 1,88,-1
 63 620 l 2,89,90
 53 591 53 591 48.5 554 c 128,-1,91
 44 517 44 517 46 491 c 0,92,93
 49 457 49 457 62 431 c 0,94,95
 70 416 70 416 83 402 c 0,96,97
 107 376 107 376 113 376 c 0,98,99
 114 376 114 376 129 369 c 0,100,101
 163 355 163 355 211 349 c 0,102,103
 218 348 218 348 235.5 348 c 128,-1,104
 253 348 253 348 262 349 c 0,63,64
EndSplineSet
EndChar

StartChar: r
Encoding: 114 114 46
Width: 1000
GlyphClass: 1
Flags: W
LayerCount: 2
Fore
SplineSet
481 309 m 2,0,1
 455 321 455 321 440 336 c 0,2,3
 427 351 427 351 425 380 c 2,4,-1
 425 395 l 1,5,-1
 419 388 l 2,6,7
 393 355 393 355 354 335 c 0,8,9
 293 305 293 305 196 329 c 0,10,11
 164 338 164 338 130 356 c 0,12,13
 87 379 87 379 67.5 393.5 c 128,-1,14
 48 408 48 408 31 430 c 0,15,16
 -3 472 -3 472 0 543 c 0,17,18
 3 607 3 607 25 666 c 128,-1,19
 47 725 47 725 81 759 c 0,20,21
 94 772 94 772 103 776.5 c 128,-1,22
 112 781 112 781 120 785 c 0,23,24
 160 808 160 808 217 796 c 0,25,26
 259 788 259 788 305 762 c 0,27,28
 347 739 347 739 379 713 c 0,29,30
 418 683 418 683 440 648 c 0,31,32
 442 645 442 645 443.5 643 c 128,-1,33
 445 641 445 641 446 640 c 128,-1,34
 447 639 447 639 447 639 c 1,35,36
 448 640 448 640 450.5 656.5 c 128,-1,37
 453 673 453 673 453 674 c 1,38,39
 453 674 453 674 473.5 664 c 128,-1,40
 494 654 494 654 499 650 c 1,41,42
 499 650 499 650 498 644 c 0,43,44
 493 615 493 615 486 557 c 0,45,46
 474 457 474 457 473 385 c 0,47,48
 472 342 472 342 479 327 c 0,49,50
 480 325 480 325 481 323 c 128,-1,51
 482 321 482 321 482.5 320 c 128,-1,52
 483 319 483 319 482 319 c 2,53,54
 482 319 482 319 475.5 322.5 c 128,-1,55
 469 326 469 326 469 326 c 2,56,57
 468 325 468 325 470 323.5 c 128,-1,58
 472 322 472 322 475 319.5 c 128,-1,59
 478 317 478 317 482 314 c 0,60,61
 495 304 495 304 495 303 c 1,62,-1
 481 309 l 2,0,1
262 349 m 0,63,64
 346 359 346 359 396 446 c 0,65,66
 425 495 425 495 430 547 c 0,67,68
 435 607 435 607 397 665 c 0,69,70
 382 688 382 688 358 711 c 0,71,72
 325 742 325 742 312 746 c 0,73,74
 308 748 308 748 299 752 c 0,75,76
 281 762 281 762 252 768 c 0,77,78
 218 774 218 774 188 766 c 0,79,80
 137 753 137 753 106 692 c 0,81,82
 88 655 88 655 90 624 c 2,83,-1
 90 614 l 1,84,-1
 83 618 l 2,85,86
 75 621 75 621 70 624 c 2,87,-1
 65 626 l 1,88,-1
 63 620 l 2,89,90
 53 591 53 591 48.5 554 c 128,-1,91
 44 517 44 517 46 491 c 0,92,93
 49 457 49 457 62 431 c 0,94,95
 70 416 70 416 83 402 c 0,96,97
 107 376 107 376 113 376 c 0,98,99
 114 376 114 376 129 369 c 0,100,101
 163 355 163 355 211 349 c 0,102,103
 218 348 218 348 235.5 348 c 128,-1,104
 253 348 253 348 262 349 c 0,63,64
EndSplineSet
EndChar

StartChar: s
Encoding: 115 115 47
Width: 1000
GlyphClass: 1
Flags: W
LayerCount: 2
Fore
SplineSet
481 309 m 2,0,1
 455 321 455 321 440 336 c 0,2,3
 427 351 427 351 425 380 c 2,4,-1
 425 395 l 1,5,-1
 419 388 l 2,6,7
 393 355 393 355 354 335 c 0,8,9
 293 305 293 305 196 329 c 0,10,11
 164 338 164 338 130 356 c 0,12,13
 87 379 87 379 67.5 393.5 c 128,-1,14
 48 408 48 408 31 430 c 0,15,16
 -3 472 -3 472 0 543 c 0,17,18
 3 607 3 607 25 666 c 128,-1,19
 47 725 47 725 81 759 c 0,20,21
 94 772 94 772 103 776.5 c 128,-1,22
 112 781 112 781 120 785 c 0,23,24
 160 808 160 808 217 796 c 0,25,26
 259 788 259 788 305 762 c 0,27,28
 347 739 347 739 379 713 c 0,29,30
 418 683 418 683 440 648 c 0,31,32
 442 645 442 645 443.5 643 c 128,-1,33
 445 641 445 641 446 640 c 128,-1,34
 447 639 447 639 447 639 c 1,35,36
 448 640 448 640 450.5 656.5 c 128,-1,37
 453 673 453 673 453 674 c 1,38,39
 453 674 453 674 473.5 664 c 128,-1,40
 494 654 494 654 499 650 c 1,41,42
 499 650 499 650 498 644 c 0,43,44
 493 615 493 615 486 557 c 0,45,46
 474 457 474 457 473 385 c 0,47,48
 472 342 472 342 479 327 c 0,49,50
 480 325 480 325 481 323 c 128,-1,51
 482 321 482 321 482.5 320 c 128,-1,52
 483 319 483 319 482 319 c 2,53,54
 482 319 482 319 475.5 322.5 c 128,-1,55
 469 326 469 326 469 326 c 2,56,57
 468 325 468 325 470 323.5 c 128,-1,58
 472 322 472 322 475 319.5 c 128,-1,59
 478 317 478 317 482 314 c 0,60,61
 495 304 495 304 495 303 c 1,62,-1
 481 309 l 2,0,1
262 349 m 0,63,64
 346 359 346 359 396 446 c 0,65,66
 425 495 425 495 430 547 c 0,67,68
 435 607 435 607 397 665 c 0,69,70
 382 688 382 688 358 711 c 0,71,72
 325 742 325 742 312 746 c 0,73,74
 308 748 308 748 299 752 c 0,75,76
 281 762 281 762 252 768 c 0,77,78
 218 774 218 774 188 766 c 0,79,80
 137 753 137 753 106 692 c 0,81,82
 88 655 88 655 90 624 c 2,83,-1
 90 614 l 1,84,-1
 83 618 l 2,85,86
 75 621 75 621 70 624 c 2,87,-1
 65 626 l 1,88,-1
 63 620 l 2,89,90
 53 591 53 591 48.5 554 c 128,-1,91
 44 517 44 517 46 491 c 0,92,93
 49 457 49 457 62 431 c 0,94,95
 70 416 70 416 83 402 c 0,96,97
 107 376 107 376 113 376 c 0,98,99
 114 376 114 376 129 369 c 0,100,101
 163 355 163 355 211 349 c 0,102,103
 218 348 218 348 235.5 348 c 128,-1,104
 253 348 253 348 262 349 c 0,63,64
EndSplineSet
EndChar

StartChar: t
Encoding: 116 116 48
Width: 1000
GlyphClass: 1
Flags: W
LayerCount: 2
Fore
SplineSet
481 309 m 2,0,1
 455 321 455 321 440 336 c 0,2,3
 427 351 427 351 425 380 c 2,4,-1
 425 395 l 1,5,-1
 419 388 l 2,6,7
 393 355 393 355 354 335 c 0,8,9
 293 305 293 305 196 329 c 0,10,11
 164 338 164 338 130 356 c 0,12,13
 87 379 87 379 67.5 393.5 c 128,-1,14
 48 408 48 408 31 430 c 0,15,16
 -3 472 -3 472 0 543 c 0,17,18
 3 607 3 607 25 666 c 128,-1,19
 47 725 47 725 81 759 c 0,20,21
 94 772 94 772 103 776.5 c 128,-1,22
 112 781 112 781 120 785 c 0,23,24
 160 808 160 808 217 796 c 0,25,26
 259 788 259 788 305 762 c 0,27,28
 347 739 347 739 379 713 c 0,29,30
 418 683 418 683 440 648 c 0,31,32
 442 645 442 645 443.5 643 c 128,-1,33
 445 641 445 641 446 640 c 128,-1,34
 447 639 447 639 447 639 c 1,35,36
 448 640 448 640 450.5 656.5 c 128,-1,37
 453 673 453 673 453 674 c 1,38,39
 453 674 453 674 473.5 664 c 128,-1,40
 494 654 494 654 499 650 c 1,41,42
 499 650 499 650 498 644 c 0,43,44
 493 615 493 615 486 557 c 0,45,46
 474 457 474 457 473 385 c 0,47,48
 472 342 472 342 479 327 c 0,49,50
 480 325 480 325 481 323 c 128,-1,51
 482 321 482 321 482.5 320 c 128,-1,52
 483 319 483 319 482 319 c 2,53,54
 482 319 482 319 475.5 322.5 c 128,-1,55
 469 326 469 326 469 326 c 2,56,57
 468 325 468 325 470 323.5 c 128,-1,58
 472 322 472 322 475 319.5 c 128,-1,59
 478 317 478 317 482 314 c 0,60,61
 495 304 495 304 495 303 c 1,62,-1
 481 309 l 2,0,1
262 349 m 0,63,64
 346 359 346 359 396 446 c 0,65,66
 425 495 425 495 430 547 c 0,67,68
 435 607 435 607 397 665 c 0,69,70
 382 688 382 688 358 711 c 0,71,72
 325 742 325 742 312 746 c 0,73,74
 308 748 308 748 299 752 c 0,75,76
 281 762 281 762 252 768 c 0,77,78
 218 774 218 774 188 766 c 0,79,80
 137 753 137 753 106 692 c 0,81,82
 88 655 88 655 90 624 c 2,83,-1
 90 614 l 1,84,-1
 83 618 l 2,85,86
 75 621 75 621 70 624 c 2,87,-1
 65 626 l 1,88,-1
 63 620 l 2,89,90
 53 591 53 591 48.5 554 c 128,-1,91
 44 517 44 517 46 491 c 0,92,93
 49 457 49 457 62 431 c 0,94,95
 70 416 70 416 83 402 c 0,96,97
 107 376 107 376 113 376 c 0,98,99
 114 376 114 376 129 369 c 0,100,101
 163 355 163 355 211 349 c 0,102,103
 218 348 218 348 235.5 348 c 128,-1,104
 253 348 253 348 262 349 c 0,63,64
EndSplineSet
EndChar

StartChar: u
Encoding: 117 117 49
Width: 1000
GlyphClass: 1
Flags: W
LayerCount: 2
Fore
SplineSet
481 309 m 2,0,1
 455 321 455 321 440 336 c 0,2,3
 427 351 427 351 425 380 c 2,4,-1
 425 395 l 1,5,-1
 419 388 l 2,6,7
 393 355 393 355 354 335 c 0,8,9
 293 305 293 305 196 329 c 0,10,11
 164 338 164 338 130 356 c 0,12,13
 87 379 87 379 67.5 393.5 c 128,-1,14
 48 408 48 408 31 430 c 0,15,16
 -3 472 -3 472 0 543 c 0,17,18
 3 607 3 607 25 666 c 128,-1,19
 47 725 47 725 81 759 c 0,20,21
 94 772 94 772 103 776.5 c 128,-1,22
 112 781 112 781 120 785 c 0,23,24
 160 808 160 808 217 796 c 0,25,26
 259 788 259 788 305 762 c 0,27,28
 347 739 347 739 379 713 c 0,29,30
 418 683 418 683 440 648 c 0,31,32
 442 645 442 645 443.5 643 c 128,-1,33
 445 641 445 641 446 640 c 128,-1,34
 447 639 447 639 447 639 c 1,35,36
 448 640 448 640 450.5 656.5 c 128,-1,37
 453 673 453 673 453 674 c 1,38,39
 453 674 453 674 473.5 664 c 128,-1,40
 494 654 494 654 499 650 c 1,41,42
 499 650 499 650 498 644 c 0,43,44
 493 615 493 615 486 557 c 0,45,46
 474 457 474 457 473 385 c 0,47,48
 472 342 472 342 479 327 c 0,49,50
 480 325 480 325 481 323 c 128,-1,51
 482 321 482 321 482.5 320 c 128,-1,52
 483 319 483 319 482 319 c 2,53,54
 482 319 482 319 475.5 322.5 c 128,-1,55
 469 326 469 326 469 326 c 2,56,57
 468 325 468 325 470 323.5 c 128,-1,58
 472 322 472 322 475 319.5 c 128,-1,59
 478 317 478 317 482 314 c 0,60,61
 495 304 495 304 495 303 c 1,62,-1
 481 309 l 2,0,1
262 349 m 0,63,64
 346 359 346 359 396 446 c 0,65,66
 425 495 425 495 430 547 c 0,67,68
 435 607 435 607 397 665 c 0,69,70
 382 688 382 688 358 711 c 0,71,72
 325 742 325 742 312 746 c 0,73,74
 308 748 308 748 299 752 c 0,75,76
 281 762 281 762 252 768 c 0,77,78
 218 774 218 774 188 766 c 0,79,80
 137 753 137 753 106 692 c 0,81,82
 88 655 88 655 90 624 c 2,83,-1
 90 614 l 1,84,-1
 83 618 l 2,85,86
 75 621 75 621 70 624 c 2,87,-1
 65 626 l 1,88,-1
 63 620 l 2,89,90
 53 591 53 591 48.5 554 c 128,-1,91
 44 517 44 517 46 491 c 0,92,93
 49 457 49 457 62 431 c 0,94,95
 70 416 70 416 83 402 c 0,96,97
 107 376 107 376 113 376 c 0,98,99
 114 376 114 376 129 369 c 0,100,101
 163 355 163 355 211 349 c 0,102,103
 218 348 218 348 235.5 348 c 128,-1,104
 253 348 253 348 262 349 c 0,63,64
EndSplineSet
EndChar

StartChar: v
Encoding: 118 118 50
Width: 1000
GlyphClass: 1
Flags: W
LayerCount: 2
Fore
SplineSet
481 309 m 2,0,1
 455 321 455 321 440 336 c 0,2,3
 427 351 427 351 425 380 c 2,4,-1
 425 395 l 1,5,-1
 419 388 l 2,6,7
 393 355 393 355 354 335 c 0,8,9
 293 305 293 305 196 329 c 0,10,11
 164 338 164 338 130 356 c 0,12,13
 87 379 87 379 67.5 393.5 c 128,-1,14
 48 408 48 408 31 430 c 0,15,16
 -3 472 -3 472 0 543 c 0,17,18
 3 607 3 607 25 666 c 128,-1,19
 47 725 47 725 81 759 c 0,20,21
 94 772 94 772 103 776.5 c 128,-1,22
 112 781 112 781 120 785 c 0,23,24
 160 808 160 808 217 796 c 0,25,26
 259 788 259 788 305 762 c 0,27,28
 347 739 347 739 379 713 c 0,29,30
 418 683 418 683 440 648 c 0,31,32
 442 645 442 645 443.5 643 c 128,-1,33
 445 641 445 641 446 640 c 128,-1,34
 447 639 447 639 447 639 c 1,35,36
 448 640 448 640 450.5 656.5 c 128,-1,37
 453 673 453 673 453 674 c 1,38,39
 453 674 453 674 473.5 664 c 128,-1,40
 494 654 494 654 499 650 c 1,41,42
 499 650 499 650 498 644 c 0,43,44
 493 615 493 615 486 557 c 0,45,46
 474 457 474 457 473 385 c 0,47,48
 472 342 472 342 479 327 c 0,49,50
 480 325 480 325 481 323 c 128,-1,51
 482 321 482 321 482.5 320 c 128,-1,52
 483 319 483 319 482 319 c 2,53,54
 482 319 482 319 475.5 322.5 c 128,-1,55
 469 326 469 326 469 326 c 2,56,57
 468 325 468 325 470 323.5 c 128,-1,58
 472 322 472 322 475 319.5 c 128,-1,59
 478 317 478 317 482 314 c 0,60,61
 495 304 495 304 495 303 c 1,62,-1
 481 309 l 2,0,1
262 349 m 0,63,64
 346 359 346 359 396 446 c 0,65,66
 425 495 425 495 430 547 c 0,67,68
 435 607 435 607 397 665 c 0,69,70
 382 688 382 688 358 711 c 0,71,72
 325 742 325 742 312 746 c 0,73,74
 308 748 308 748 299 752 c 0,75,76
 281 762 281 762 252 768 c 0,77,78
 218 774 218 774 188 766 c 0,79,80
 137 753 137 753 106 692 c 0,81,82
 88 655 88 655 90 624 c 2,83,-1
 90 614 l 1,84,-1
 83 618 l 2,85,86
 75 621 75 621 70 624 c 2,87,-1
 65 626 l 1,88,-1
 63 620 l 2,89,90
 53 591 53 591 48.5 554 c 128,-1,91
 44 517 44 517 46 491 c 0,92,93
 49 457 49 457 62 431 c 0,94,95
 70 416 70 416 83 402 c 0,96,97
 107 376 107 376 113 376 c 0,98,99
 114 376 114 376 129 369 c 0,100,101
 163 355 163 355 211 349 c 0,102,103
 218 348 218 348 235.5 348 c 128,-1,104
 253 348 253 348 262 349 c 0,63,64
EndSplineSet
EndChar

StartChar: w
Encoding: 119 119 51
Width: 1000
GlyphClass: 1
Flags: W
LayerCount: 2
Fore
SplineSet
481 309 m 2,0,1
 455 321 455 321 440 336 c 0,2,3
 427 351 427 351 425 380 c 2,4,-1
 425 395 l 1,5,-1
 419 388 l 2,6,7
 393 355 393 355 354 335 c 0,8,9
 293 305 293 305 196 329 c 0,10,11
 164 338 164 338 130 356 c 0,12,13
 87 379 87 379 67.5 393.5 c 128,-1,14
 48 408 48 408 31 430 c 0,15,16
 -3 472 -3 472 0 543 c 0,17,18
 3 607 3 607 25 666 c 128,-1,19
 47 725 47 725 81 759 c 0,20,21
 94 772 94 772 103 776.5 c 128,-1,22
 112 781 112 781 120 785 c 0,23,24
 160 808 160 808 217 796 c 0,25,26
 259 788 259 788 305 762 c 0,27,28
 347 739 347 739 379 713 c 0,29,30
 418 683 418 683 440 648 c 0,31,32
 442 645 442 645 443.5 643 c 128,-1,33
 445 641 445 641 446 640 c 128,-1,34
 447 639 447 639 447 639 c 1,35,36
 448 640 448 640 450.5 656.5 c 128,-1,37
 453 673 453 673 453 674 c 1,38,39
 453 674 453 674 473.5 664 c 128,-1,40
 494 654 494 654 499 650 c 1,41,42
 499 650 499 650 498 644 c 0,43,44
 493 615 493 615 486 557 c 0,45,46
 474 457 474 457 473 385 c 0,47,48
 472 342 472 342 479 327 c 0,49,50
 480 325 480 325 481 323 c 128,-1,51
 482 321 482 321 482.5 320 c 128,-1,52
 483 319 483 319 482 319 c 2,53,54
 482 319 482 319 475.5 322.5 c 128,-1,55
 469 326 469 326 469 326 c 2,56,57
 468 325 468 325 470 323.5 c 128,-1,58
 472 322 472 322 475 319.5 c 128,-1,59
 478 317 478 317 482 314 c 0,60,61
 495 304 495 304 495 303 c 1,62,-1
 481 309 l 2,0,1
262 349 m 0,63,64
 346 359 346 359 396 446 c 0,65,66
 425 495 425 495 430 547 c 0,67,68
 435 607 435 607 397 665 c 0,69,70
 382 688 382 688 358 711 c 0,71,72
 325 742 325 742 312 746 c 0,73,74
 308 748 308 748 299 752 c 0,75,76
 281 762 281 762 252 768 c 0,77,78
 218 774 218 774 188 766 c 0,79,80
 137 753 137 753 106 692 c 0,81,82
 88 655 88 655 90 624 c 2,83,-1
 90 614 l 1,84,-1
 83 618 l 2,85,86
 75 621 75 621 70 624 c 2,87,-1
 65 626 l 1,88,-1
 63 620 l 2,89,90
 53 591 53 591 48.5 554 c 128,-1,91
 44 517 44 517 46 491 c 0,92,93
 49 457 49 457 62 431 c 0,94,95
 70 416 70 416 83 402 c 0,96,97
 107 376 107 376 113 376 c 0,98,99
 114 376 114 376 129 369 c 0,100,101
 163 355 163 355 211 349 c 0,102,103
 218 348 218 348 235.5 348 c 128,-1,104
 253 348 253 348 262 349 c 0,63,64
EndSplineSet
EndChar

StartChar: x
Encoding: 120 120 52
Width: 1000
GlyphClass: 1
Flags: W
LayerCount: 2
Fore
SplineSet
481 309 m 2,0,1
 455 321 455 321 440 336 c 0,2,3
 427 351 427 351 425 380 c 2,4,-1
 425 395 l 1,5,-1
 419 388 l 2,6,7
 393 355 393 355 354 335 c 0,8,9
 293 305 293 305 196 329 c 0,10,11
 164 338 164 338 130 356 c 0,12,13
 87 379 87 379 67.5 393.5 c 128,-1,14
 48 408 48 408 31 430 c 0,15,16
 -3 472 -3 472 0 543 c 0,17,18
 3 607 3 607 25 666 c 128,-1,19
 47 725 47 725 81 759 c 0,20,21
 94 772 94 772 103 776.5 c 128,-1,22
 112 781 112 781 120 785 c 0,23,24
 160 808 160 808 217 796 c 0,25,26
 259 788 259 788 305 762 c 0,27,28
 347 739 347 739 379 713 c 0,29,30
 418 683 418 683 440 648 c 0,31,32
 442 645 442 645 443.5 643 c 128,-1,33
 445 641 445 641 446 640 c 128,-1,34
 447 639 447 639 447 639 c 1,35,36
 448 640 448 640 450.5 656.5 c 128,-1,37
 453 673 453 673 453 674 c 1,38,39
 453 674 453 674 473.5 664 c 128,-1,40
 494 654 494 654 499 650 c 1,41,42
 499 650 499 650 498 644 c 0,43,44
 493 615 493 615 486 557 c 0,45,46
 474 457 474 457 473 385 c 0,47,48
 472 342 472 342 479 327 c 0,49,50
 480 325 480 325 481 323 c 128,-1,51
 482 321 482 321 482.5 320 c 128,-1,52
 483 319 483 319 482 319 c 2,53,54
 482 319 482 319 475.5 322.5 c 128,-1,55
 469 326 469 326 469 326 c 2,56,57
 468 325 468 325 470 323.5 c 128,-1,58
 472 322 472 322 475 319.5 c 128,-1,59
 478 317 478 317 482 314 c 0,60,61
 495 304 495 304 495 303 c 1,62,-1
 481 309 l 2,0,1
262 349 m 0,63,64
 346 359 346 359 396 446 c 0,65,66
 425 495 425 495 430 547 c 0,67,68
 435 607 435 607 397 665 c 0,69,70
 382 688 382 688 358 711 c 0,71,72
 325 742 325 742 312 746 c 0,73,74
 308 748 308 748 299 752 c 0,75,76
 281 762 281 762 252 768 c 0,77,78
 218 774 218 774 188 766 c 0,79,80
 137 753 137 753 106 692 c 0,81,82
 88 655 88 655 90 624 c 2,83,-1
 90 614 l 1,84,-1
 83 618 l 2,85,86
 75 621 75 621 70 624 c 2,87,-1
 65 626 l 1,88,-1
 63 620 l 2,89,90
 53 591 53 591 48.5 554 c 128,-1,91
 44 517 44 517 46 491 c 0,92,93
 49 457 49 457 62 431 c 0,94,95
 70 416 70 416 83 402 c 0,96,97
 107 376 107 376 113 376 c 0,98,99
 114 376 114 376 129 369 c 0,100,101
 163 355 163 355 211 349 c 0,102,103
 218 348 218 348 235.5 348 c 128,-1,104
 253 348 253 348 262 349 c 0,63,64
EndSplineSet
EndChar

StartChar: y
Encoding: 121 121 53
Width: 1000
GlyphClass: 1
Flags: W
LayerCount: 2
Fore
SplineSet
481 309 m 2,0,1
 455 321 455 321 440 336 c 0,2,3
 427 351 427 351 425 380 c 2,4,-1
 425 395 l 1,5,-1
 419 388 l 2,6,7
 393 355 393 355 354 335 c 0,8,9
 293 305 293 305 196 329 c 0,10,11
 164 338 164 338 130 356 c 0,12,13
 87 379 87 379 67.5 393.5 c 128,-1,14
 48 408 48 408 31 430 c 0,15,16
 -3 472 -3 472 0 543 c 0,17,18
 3 607 3 607 25 666 c 128,-1,19
 47 725 47 725 81 759 c 0,20,21
 94 772 94 772 103 776.5 c 128,-1,22
 112 781 112 781 120 785 c 0,23,24
 160 808 160 808 217 796 c 0,25,26
 259 788 259 788 305 762 c 0,27,28
 347 739 347 739 379 713 c 0,29,30
 418 683 418 683 440 648 c 0,31,32
 442 645 442 645 443.5 643 c 128,-1,33
 445 641 445 641 446 640 c 128,-1,34
 447 639 447 639 447 639 c 1,35,36
 448 640 448 640 450.5 656.5 c 128,-1,37
 453 673 453 673 453 674 c 1,38,39
 453 674 453 674 473.5 664 c 128,-1,40
 494 654 494 654 499 650 c 1,41,42
 499 650 499 650 498 644 c 0,43,44
 493 615 493 615 486 557 c 0,45,46
 474 457 474 457 473 385 c 0,47,48
 472 342 472 342 479 327 c 0,49,50
 480 325 480 325 481 323 c 128,-1,51
 482 321 482 321 482.5 320 c 128,-1,52
 483 319 483 319 482 319 c 2,53,54
 482 319 482 319 475.5 322.5 c 128,-1,55
 469 326 469 326 469 326 c 2,56,57
 468 325 468 325 470 323.5 c 128,-1,58
 472 322 472 322 475 319.5 c 128,-1,59
 478 317 478 317 482 314 c 0,60,61
 495 304 495 304 495 303 c 1,62,-1
 481 309 l 2,0,1
262 349 m 0,63,64
 346 359 346 359 396 446 c 0,65,66
 425 495 425 495 430 547 c 0,67,68
 435 607 435 607 397 665 c 0,69,70
 382 688 382 688 358 711 c 0,71,72
 325 742 325 742 312 746 c 0,73,74
 308 748 308 748 299 752 c 0,75,76
 281 762 281 762 252 768 c 0,77,78
 218 774 218 774 188 766 c 0,79,80
 137 753 137 753 106 692 c 0,81,82
 88 655 88 655 90 624 c 2,83,-1
 90 614 l 1,84,-1
 83 618 l 2,85,86
 75 621 75 621 70 624 c 2,87,-1
 65 626 l 1,88,-1
 63 620 l 2,89,90
 53 591 53 591 48.5 554 c 128,-1,91
 44 517 44 517 46 491 c 0,92,93
 49 457 49 457 62 431 c 0,94,95
 70 416 70 416 83 402 c 0,96,97
 107 376 107 376 113 376 c 0,98,99
 114 376 114 376 129 369 c 0,100,101
 163 355 163 355 211 349 c 0,102,103
 218 348 218 348 235.5 348 c 128,-1,104
 253 348 253 348 262 349 c 0,63,64
EndSplineSet
EndChar

StartChar: z
Encoding: 122 122 54
Width: 1000
GlyphClass: 1
Flags: W
LayerCount: 2
Fore
SplineSet
481 309 m 2,0,1
 455 321 455 321 440 336 c 0,2,3
 427 351 427 351 425 380 c 2,4,-1
 425 395 l 1,5,-1
 419 388 l 2,6,7
 393 355 393 355 354 335 c 0,8,9
 293 305 293 305 196 329 c 0,10,11
 164 338 164 338 130 356 c 0,12,13
 87 379 87 379 67.5 393.5 c 128,-1,14
 48 408 48 408 31 430 c 0,15,16
 -3 472 -3 472 0 543 c 0,17,18
 3 607 3 607 25 666 c 128,-1,19
 47 725 47 725 81 759 c 0,20,21
 94 772 94 772 103 776.5 c 128,-1,22
 112 781 112 781 120 785 c 0,23,24
 160 808 160 808 217 796 c 0,25,26
 259 788 259 788 305 762 c 0,27,28
 347 739 347 739 379 713 c 0,29,30
 418 683 418 683 440 648 c 0,31,32
 442 645 442 645 443.5 643 c 128,-1,33
 445 641 445 641 446 640 c 128,-1,34
 447 639 447 639 447 639 c 1,35,36
 448 640 448 640 450.5 656.5 c 128,-1,37
 453 673 453 673 453 674 c 1,38,39
 453 674 453 674 473.5 664 c 128,-1,40
 494 654 494 654 499 650 c 1,41,42
 499 650 499 650 498 644 c 0,43,44
 493 615 493 615 486 557 c 0,45,46
 474 457 474 457 473 385 c 0,47,48
 472 342 472 342 479 327 c 0,49,50
 480 325 480 325 481 323 c 128,-1,51
 482 321 482 321 482.5 320 c 128,-1,52
 483 319 483 319 482 319 c 2,53,54
 482 319 482 319 475.5 322.5 c 128,-1,55
 469 326 469 326 469 326 c 2,56,57
 468 325 468 325 470 323.5 c 128,-1,58
 472 322 472 322 475 319.5 c 128,-1,59
 478 317 478 317 482 314 c 0,60,61
 495 304 495 304 495 303 c 1,62,-1
 481 309 l 2,0,1
262 349 m 0,63,64
 346 359 346 359 396 446 c 0,65,66
 425 495 425 495 430 547 c 0,67,68
 435 607 435 607 397 665 c 0,69,70
 382 688 382 688 358 711 c 0,71,72
 325 742 325 742 312 746 c 0,73,74
 308 748 308 748 299 752 c 0,75,76
 281 762 281 762 252 768 c 0,77,78
 218 774 218 774 188 766 c 0,79,80
 137 753 137 753 106 692 c 0,81,82
 88 655 88 655 90 624 c 2,83,-1
 90 614 l 1,84,-1
 83 618 l 2,85,86
 75 621 75 621 70 624 c 2,87,-1
 65 626 l 1,88,-1
 63 620 l 2,89,90
 53 591 53 591 48.5 554 c 128,-1,91
 44 517 44 517 46 491 c 0,92,93
 49 457 49 457 62 431 c 0,94,95
 70 416 70 416 83 402 c 0,96,97
 107 376 107 376 113 376 c 0,98,99
 114 376 114 376 129 369 c 0,100,101
 163 355 163 355 211 349 c 0,102,103
 218 348 218 348 235.5 348 c 128,-1,104
 253 348 253 348 262 349 c 0,63,64
EndSplineSet
EndChar
